<?xml version="1.0" encoding="utf-8" standalone="no"?>
<!DOCTYPE svg PUBLIC "-//W3C//DTD SVG 1.1//EN"
  "http://www.w3.org/Graphics/SVG/1.1/DTD/svg11.dtd">
<svg xmlns:xlink="http://www.w3.org/1999/xlink" width="460.8pt" height="345.6pt" viewBox="0 0 460.8 345.6" xmlns="http://www.w3.org/2000/svg" version="1.1">
 <metadata>
  <rdf:RDF xmlns:dc="http://purl.org/dc/elements/1.1/" xmlns:cc="http://creativecommons.org/ns#" xmlns:rdf="http://www.w3.org/1999/02/22-rdf-syntax-ns#">
   <cc:Work>
    <dc:type rdf:resource="http://purl.org/dc/dcmitype/StillImage"/>
    <dc:date>2025-07-19T16:52:22.915531</dc:date>
    <dc:format>image/svg+xml</dc:format>
    <dc:creator>
     <cc:Agent>
      <dc:title>Matplotlib v3.10.0, https://matplotlib.org/</dc:title>
     </cc:Agent>
    </dc:creator>
   </cc:Work>
  </rdf:RDF>
 </metadata>
 <defs>
  <style type="text/css">*{stroke-linejoin: round; stroke-linecap: butt}</style>
 </defs>
 <g id="figure_1">
  <g id="patch_1">
   <path d="M 0 345.6 
L 460.8 345.6 
L 460.8 0 
L 0 0 
z
" style="fill: #ffffff"/>
  </g>
  <g id="axes_1">
   <g id="patch_2">
    <path d="M 57.6 307.584 
L 414.72 307.584 
L 414.72 41.472 
L 57.6 41.472 
z
" style="fill: #ffffff"/>
   </g>
   <g id="patch_3">
    <path d="M 57.6 293.241409 
L 414.72 293.241409 
L 414.72 293.241409 
L 57.6 293.241409 
z
" clip-path="url(#pd5180a5bcf)" style="stroke: #000000; stroke-linejoin: miter"/>
   </g>
   <g id="patch_4">
    <path d="M 57.6 293.105926 
L 414.72 293.105926 
L 414.72 293.105926 
L 57.6 293.105926 
z
" clip-path="url(#pd5180a5bcf)" style="fill: #0000ff; stroke: #0000ff; stroke-linejoin: miter"/>
   </g>
   <g id="patch_5">
    <path d="M 57.6 299.954894 
L 414.72 299.954894 
L 414.72 299.954894 
L 57.6 299.954894 
z
" clip-path="url(#pd5180a5bcf)" style="fill: #ff0000; stroke: #ff0000; stroke-linejoin: miter"/>
   </g>
   <g id="patch_6">
    <path d="M 57.6 290.558038 
L 414.72 290.558038 
L 414.72 290.558038 
L 57.6 290.558038 
z
" clip-path="url(#pd5180a5bcf)" style="fill: #008000; stroke: #008000; stroke-linejoin: miter"/>
   </g>
   <g id="patch_7">
    <path d="M 57.6 307.584 
L 396.7426 307.584 
L 396.7426 294.2784 
L 57.6 294.2784 
z
" clip-path="url(#pd5180a5bcf)" style="fill: #808080; stroke: #808080; stroke-linejoin: miter"/>
   </g>
   <g id="patch_8">
    <path d="M 388.019235 307.584 
L 396.7426 307.584 
L 396.7426 294.2784 
L 388.019235 294.2784 
z
" clip-path="url(#pd5180a5bcf)" style="fill: #008000; stroke: #008000; stroke-linejoin: miter"/>
   </g>
   <g id="patch_9">
    <path d="M 396.7426 307.584 
L 606.103346 307.584 
L 606.103346 294.2784 
L 396.7426 294.2784 
z
" clip-path="url(#pd5180a5bcf)" style="fill: #0000ff; stroke: #0000ff; stroke-linejoin: miter"/>
   </g>
   <g id="patch_10">
    <path d="M 606.103346 307.584 
L 414.72 307.584 
L 414.72 294.2784 
L 606.103346 294.2784 
z
" clip-path="url(#pd5180a5bcf)" style="fill: #ff0000; stroke: #ff0000; stroke-linejoin: miter"/>
   </g>
   <g id="patch_11">
    <path d="M 178.5131 68.137454 
C 180.880833 68.137454 183.151909 67.436473 184.82615 66.188894 
C 186.50039 64.941315 187.4411 63.248997 187.4411 61.484654 
C 187.4411 59.720311 186.50039 58.027993 184.82615 56.780414 
C 183.151909 55.532835 180.880833 54.831854 178.5131 54.831854 
C 176.145367 54.831854 173.874291 55.532835 172.200051 56.780414 
C 170.525811 58.027993 169.5851 59.720311 169.5851 61.484654 
C 169.5851 63.248997 170.525811 64.941315 172.200051 66.188894 
C 173.874291 67.436473 176.145367 68.137454 178.5131 68.137454 
z
" clip-path="url(#pd5180a5bcf)" style="fill: #ff0000; stroke: #ff0000; stroke-linejoin: miter"/>
   </g>
   <g id="patch_12">
    <path d="M 387.873846 60.736444 
C 390.241579 60.736444 392.512655 60.035463 394.186895 58.787884 
C 395.861136 57.540305 396.801846 55.847987 396.801846 54.083644 
C 396.801846 52.319301 395.861136 50.626983 394.186895 49.379404 
C 392.512655 48.131825 390.241579 47.430844 387.873846 47.430844 
C 385.506113 47.430844 383.235037 48.131825 381.560797 49.379404 
C 379.886556 50.626983 378.945846 52.319301 378.945846 54.083644 
C 378.945846 55.847987 379.886556 57.540305 381.560797 58.787884 
C 383.235037 60.035463 385.506113 60.736444 387.873846 60.736444 
z
" clip-path="url(#pd5180a5bcf)" style="fill: #ff0000; stroke: #ff0000; stroke-linejoin: miter"/>
   </g>
   <g id="patch_13">
    <path d="M 178.5131 61.484654 
L 387.873846 54.083644 
z
" clip-path="url(#pd5180a5bcf)" style="fill: #ff0000; stroke: #ff0000; stroke-linejoin: miter"/>
   </g>
   <g id="patch_14">
    <path d="M 388.164625 307.584 
L 388.164625 307.584 
L 388.164625 41.472 
L 388.164625 41.472 
z
" clip-path="url(#pd5180a5bcf)" style="fill: #008000; stroke: #008000; stroke-linejoin: miter"/>
   </g>
   <g id="patch_15">
    <path d="M 396.015653 307.584 
L 396.015653 307.584 
L 396.015653 41.472 
L 396.015653 41.472 
z
" clip-path="url(#pd5180a5bcf)" style="fill: #0000ff; stroke: #0000ff; stroke-linejoin: miter"/>
   </g>
   <g id="patch_16">
    <path d="M 388.164625 299.894209 
C 390.532358 299.894209 392.803434 299.193228 394.477674 297.945649 
C 396.151914 296.69807 397.092625 295.005753 397.092625 293.241409 
C 397.092625 291.477066 396.151914 289.784748 394.477674 288.537169 
C 392.803434 287.28959 390.532358 286.588609 388.164625 286.588609 
C 385.796892 286.588609 383.525816 287.28959 381.851576 288.537169 
C 380.177335 289.784748 379.236625 291.477066 379.236625 293.241409 
C 379.236625 295.005753 380.177335 296.69807 381.851576 297.945649 
C 383.525816 299.193228 385.796892 299.894209 388.164625 299.894209 
z
" clip-path="url(#pd5180a5bcf)" style="fill: #0000ff; stroke: #0000ff; stroke-linejoin: miter"/>
   </g>
   <g id="patch_17">
    <path d="M 396.161042 296.66284 
C 398.528775 296.66284 400.799851 295.961859 402.474092 294.71428 
C 404.148332 293.4667 405.089042 291.774383 405.089042 290.01004 
C 405.089042 288.245696 404.148332 286.553379 402.474092 285.3058 
C 400.799851 284.05822 398.528775 283.35724 396.161042 283.35724 
C 393.793309 283.35724 391.522233 284.05822 389.847993 285.3058 
C 388.173753 286.553379 387.233042 288.245696 387.233042 290.01004 
C 387.233042 291.774383 388.173753 293.4667 389.847993 294.71428 
C 391.522233 295.961859 393.793309 296.66284 396.161042 296.66284 
z
" clip-path="url(#pd5180a5bcf)" style="fill: #0000ff; stroke: #0000ff; stroke-linejoin: miter"/>
   </g>
   <g id="patch_18">
    <path d="M 388.164625 293.241409 
L 396.161042 290.01004 
z
" clip-path="url(#pd5180a5bcf)" style="fill: #0000ff; stroke: #0000ff; stroke-linejoin: miter"/>
   </g>
   <g id="matplotlib.axis_1">
    <g id="xtick_1">
     <g id="line2d_1">
      <defs>
       <path id="mf872e1aae5" d="M 0 0 
L 0 3.5 
" style="stroke: #000000; stroke-width: 0.8"/>
      </defs>
      <g>
       <use xlink:href="#mf872e1aae5" x="57.985282" y="307.584" style="stroke: #000000; stroke-width: 0.8"/>
      </g>
     </g>
     <g id="text_1">
      <!-- 28473500 -->
      <g transform="translate(32.535282 322.182437) scale(0.1 -0.1)">
       <defs>
        <path id="DejaVuSans-32" d="M 1228 531 
L 3431 531 
L 3431 0 
L 469 0 
L 469 531 
Q 828 903 1448 1529 
Q 2069 2156 2228 2338 
Q 2531 2678 2651 2914 
Q 2772 3150 2772 3378 
Q 2772 3750 2511 3984 
Q 2250 4219 1831 4219 
Q 1534 4219 1204 4116 
Q 875 4013 500 3803 
L 500 4441 
Q 881 4594 1212 4672 
Q 1544 4750 1819 4750 
Q 2544 4750 2975 4387 
Q 3406 4025 3406 3419 
Q 3406 3131 3298 2873 
Q 3191 2616 2906 2266 
Q 2828 2175 2409 1742 
Q 1991 1309 1228 531 
z
" transform="scale(0.015625)"/>
        <path id="DejaVuSans-38" d="M 2034 2216 
Q 1584 2216 1326 1975 
Q 1069 1734 1069 1313 
Q 1069 891 1326 650 
Q 1584 409 2034 409 
Q 2484 409 2743 651 
Q 3003 894 3003 1313 
Q 3003 1734 2745 1975 
Q 2488 2216 2034 2216 
z
M 1403 2484 
Q 997 2584 770 2862 
Q 544 3141 544 3541 
Q 544 4100 942 4425 
Q 1341 4750 2034 4750 
Q 2731 4750 3128 4425 
Q 3525 4100 3525 3541 
Q 3525 3141 3298 2862 
Q 3072 2584 2669 2484 
Q 3125 2378 3379 2068 
Q 3634 1759 3634 1313 
Q 3634 634 3220 271 
Q 2806 -91 2034 -91 
Q 1263 -91 848 271 
Q 434 634 434 1313 
Q 434 1759 690 2068 
Q 947 2378 1403 2484 
z
M 1172 3481 
Q 1172 3119 1398 2916 
Q 1625 2713 2034 2713 
Q 2441 2713 2670 2916 
Q 2900 3119 2900 3481 
Q 2900 3844 2670 4047 
Q 2441 4250 2034 4250 
Q 1625 4250 1398 4047 
Q 1172 3844 1172 3481 
z
" transform="scale(0.015625)"/>
        <path id="DejaVuSans-34" d="M 2419 4116 
L 825 1625 
L 2419 1625 
L 2419 4116 
z
M 2253 4666 
L 3047 4666 
L 3047 1625 
L 3713 1625 
L 3713 1100 
L 3047 1100 
L 3047 0 
L 2419 0 
L 2419 1100 
L 313 1100 
L 313 1709 
L 2253 4666 
z
" transform="scale(0.015625)"/>
        <path id="DejaVuSans-37" d="M 525 4666 
L 3525 4666 
L 3525 4397 
L 1831 0 
L 1172 0 
L 2766 4134 
L 525 4134 
L 525 4666 
z
" transform="scale(0.015625)"/>
        <path id="DejaVuSans-33" d="M 2597 2516 
Q 3050 2419 3304 2112 
Q 3559 1806 3559 1356 
Q 3559 666 3084 287 
Q 2609 -91 1734 -91 
Q 1441 -91 1130 -33 
Q 819 25 488 141 
L 488 750 
Q 750 597 1062 519 
Q 1375 441 1716 441 
Q 2309 441 2620 675 
Q 2931 909 2931 1356 
Q 2931 1769 2642 2001 
Q 2353 2234 1838 2234 
L 1294 2234 
L 1294 2753 
L 1863 2753 
Q 2328 2753 2575 2939 
Q 2822 3125 2822 3475 
Q 2822 3834 2567 4026 
Q 2313 4219 1838 4219 
Q 1578 4219 1281 4162 
Q 984 4106 628 3988 
L 628 4550 
Q 988 4650 1302 4700 
Q 1616 4750 1894 4750 
Q 2613 4750 3031 4423 
Q 3450 4097 3450 3541 
Q 3450 3153 3228 2886 
Q 3006 2619 2597 2516 
z
" transform="scale(0.015625)"/>
        <path id="DejaVuSans-35" d="M 691 4666 
L 3169 4666 
L 3169 4134 
L 1269 4134 
L 1269 2991 
Q 1406 3038 1543 3061 
Q 1681 3084 1819 3084 
Q 2600 3084 3056 2656 
Q 3513 2228 3513 1497 
Q 3513 744 3044 326 
Q 2575 -91 1722 -91 
Q 1428 -91 1123 -41 
Q 819 9 494 109 
L 494 744 
Q 775 591 1075 516 
Q 1375 441 1709 441 
Q 2250 441 2565 725 
Q 2881 1009 2881 1497 
Q 2881 1984 2565 2268 
Q 2250 2553 1709 2553 
Q 1456 2553 1204 2497 
Q 953 2441 691 2322 
L 691 4666 
z
" transform="scale(0.015625)"/>
        <path id="DejaVuSans-30" d="M 2034 4250 
Q 1547 4250 1301 3770 
Q 1056 3291 1056 2328 
Q 1056 1369 1301 889 
Q 1547 409 2034 409 
Q 2525 409 2770 889 
Q 3016 1369 3016 2328 
Q 3016 3291 2770 3770 
Q 2525 4250 2034 4250 
z
M 2034 4750 
Q 2819 4750 3233 4129 
Q 3647 3509 3647 2328 
Q 3647 1150 3233 529 
Q 2819 -91 2034 -91 
Q 1250 -91 836 529 
Q 422 1150 422 2328 
Q 422 3509 836 4129 
Q 1250 4750 2034 4750 
z
" transform="scale(0.015625)"/>
       </defs>
       <use xlink:href="#DejaVuSans-32"/>
       <use xlink:href="#DejaVuSans-38" transform="translate(63.623047 0)"/>
       <use xlink:href="#DejaVuSans-34" transform="translate(127.246094 0)"/>
       <use xlink:href="#DejaVuSans-37" transform="translate(190.869141 0)"/>
       <use xlink:href="#DejaVuSans-33" transform="translate(254.492188 0)"/>
       <use xlink:href="#DejaVuSans-35" transform="translate(318.115234 0)"/>
       <use xlink:href="#DejaVuSans-30" transform="translate(381.738281 0)"/>
       <use xlink:href="#DejaVuSans-30" transform="translate(445.361328 0)"/>
      </g>
     </g>
    </g>
    <g id="xtick_2">
     <g id="line2d_2">
      <g>
       <use xlink:href="#mf872e1aae5" x="130.679985" y="307.584" style="stroke: #000000; stroke-width: 0.8"/>
      </g>
     </g>
     <g id="text_2">
      <!-- 28474000 -->
      <g transform="translate(105.229985 322.182437) scale(0.1 -0.1)">
       <use xlink:href="#DejaVuSans-32"/>
       <use xlink:href="#DejaVuSans-38" transform="translate(63.623047 0)"/>
       <use xlink:href="#DejaVuSans-34" transform="translate(127.246094 0)"/>
       <use xlink:href="#DejaVuSans-37" transform="translate(190.869141 0)"/>
       <use xlink:href="#DejaVuSans-34" transform="translate(254.492188 0)"/>
       <use xlink:href="#DejaVuSans-30" transform="translate(318.115234 0)"/>
       <use xlink:href="#DejaVuSans-30" transform="translate(381.738281 0)"/>
       <use xlink:href="#DejaVuSans-30" transform="translate(445.361328 0)"/>
      </g>
     </g>
    </g>
    <g id="xtick_3">
     <g id="line2d_3">
      <g>
       <use xlink:href="#mf872e1aae5" x="203.374689" y="307.584" style="stroke: #000000; stroke-width: 0.8"/>
      </g>
     </g>
     <g id="text_3">
      <!-- 28474500 -->
      <g transform="translate(177.924689 322.182437) scale(0.1 -0.1)">
       <use xlink:href="#DejaVuSans-32"/>
       <use xlink:href="#DejaVuSans-38" transform="translate(63.623047 0)"/>
       <use xlink:href="#DejaVuSans-34" transform="translate(127.246094 0)"/>
       <use xlink:href="#DejaVuSans-37" transform="translate(190.869141 0)"/>
       <use xlink:href="#DejaVuSans-34" transform="translate(254.492188 0)"/>
       <use xlink:href="#DejaVuSans-35" transform="translate(318.115234 0)"/>
       <use xlink:href="#DejaVuSans-30" transform="translate(381.738281 0)"/>
       <use xlink:href="#DejaVuSans-30" transform="translate(445.361328 0)"/>
      </g>
     </g>
    </g>
    <g id="xtick_4">
     <g id="line2d_4">
      <g>
       <use xlink:href="#mf872e1aae5" x="276.069392" y="307.584" style="stroke: #000000; stroke-width: 0.8"/>
      </g>
     </g>
     <g id="text_4">
      <!-- 28475000 -->
      <g transform="translate(250.619392 322.182437) scale(0.1 -0.1)">
       <use xlink:href="#DejaVuSans-32"/>
       <use xlink:href="#DejaVuSans-38" transform="translate(63.623047 0)"/>
       <use xlink:href="#DejaVuSans-34" transform="translate(127.246094 0)"/>
       <use xlink:href="#DejaVuSans-37" transform="translate(190.869141 0)"/>
       <use xlink:href="#DejaVuSans-35" transform="translate(254.492188 0)"/>
       <use xlink:href="#DejaVuSans-30" transform="translate(318.115234 0)"/>
       <use xlink:href="#DejaVuSans-30" transform="translate(381.738281 0)"/>
       <use xlink:href="#DejaVuSans-30" transform="translate(445.361328 0)"/>
      </g>
     </g>
    </g>
    <g id="xtick_5">
     <g id="line2d_5">
      <g>
       <use xlink:href="#mf872e1aae5" x="348.764096" y="307.584" style="stroke: #000000; stroke-width: 0.8"/>
      </g>
     </g>
     <g id="text_5">
      <!-- 28475500 -->
      <g transform="translate(323.314096 322.182437) scale(0.1 -0.1)">
       <use xlink:href="#DejaVuSans-32"/>
       <use xlink:href="#DejaVuSans-38" transform="translate(63.623047 0)"/>
       <use xlink:href="#DejaVuSans-34" transform="translate(127.246094 0)"/>
       <use xlink:href="#DejaVuSans-37" transform="translate(190.869141 0)"/>
       <use xlink:href="#DejaVuSans-35" transform="translate(254.492188 0)"/>
       <use xlink:href="#DejaVuSans-35" transform="translate(318.115234 0)"/>
       <use xlink:href="#DejaVuSans-30" transform="translate(381.738281 0)"/>
       <use xlink:href="#DejaVuSans-30" transform="translate(445.361328 0)"/>
      </g>
     </g>
    </g>
    <g id="text_6">
     <!-- MID -->
     <g transform="translate(226.520938 335.860562) scale(0.1 -0.1)">
      <defs>
       <path id="DejaVuSans-4d" d="M 628 4666 
L 1569 4666 
L 2759 1491 
L 3956 4666 
L 4897 4666 
L 4897 0 
L 4281 0 
L 4281 4097 
L 3078 897 
L 2444 897 
L 1241 4097 
L 1241 0 
L 628 0 
L 628 4666 
z
" transform="scale(0.015625)"/>
       <path id="DejaVuSans-49" d="M 628 4666 
L 1259 4666 
L 1259 0 
L 628 0 
L 628 4666 
z
" transform="scale(0.015625)"/>
       <path id="DejaVuSans-44" d="M 1259 4147 
L 1259 519 
L 2022 519 
Q 2988 519 3436 956 
Q 3884 1394 3884 2338 
Q 3884 3275 3436 3711 
Q 2988 4147 2022 4147 
L 1259 4147 
z
M 628 4666 
L 1925 4666 
Q 3281 4666 3915 4102 
Q 4550 3538 4550 2338 
Q 4550 1131 3912 565 
Q 3275 0 1925 0 
L 628 0 
L 628 4666 
z
" transform="scale(0.015625)"/>
      </defs>
      <use xlink:href="#DejaVuSans-4d"/>
      <use xlink:href="#DejaVuSans-49" transform="translate(86.279297 0)"/>
      <use xlink:href="#DejaVuSans-44" transform="translate(115.771484 0)"/>
     </g>
    </g>
   </g>
   <g id="matplotlib.axis_2">
    <g id="ytick_1">
     <g id="line2d_6">
      <defs>
       <path id="m80b84ea93f" d="M 0 0 
L -3.5 0 
" style="stroke: #a4d2b6; stroke-width: 0.8"/>
      </defs>
      <g>
       <use xlink:href="#m80b84ea93f" x="57.6" y="306.191154" style="fill: #a4d2b6; stroke: #a4d2b6; stroke-width: 0.8"/>
      </g>
     </g>
     <g id="text_7">
      <!-- 60 -->
      <g style="fill: #a4d2b6" transform="translate(37.875 309.990373) scale(0.1 -0.1)">
       <defs>
        <path id="DejaVuSans-36" d="M 2113 2584 
Q 1688 2584 1439 2293 
Q 1191 2003 1191 1497 
Q 1191 994 1439 701 
Q 1688 409 2113 409 
Q 2538 409 2786 701 
Q 3034 994 3034 1497 
Q 3034 2003 2786 2293 
Q 2538 2584 2113 2584 
z
M 3366 4563 
L 3366 3988 
Q 3128 4100 2886 4159 
Q 2644 4219 2406 4219 
Q 1781 4219 1451 3797 
Q 1122 3375 1075 2522 
Q 1259 2794 1537 2939 
Q 1816 3084 2150 3084 
Q 2853 3084 3261 2657 
Q 3669 2231 3669 1497 
Q 3669 778 3244 343 
Q 2819 -91 2113 -91 
Q 1303 -91 875 529 
Q 447 1150 447 2328 
Q 447 3434 972 4092 
Q 1497 4750 2381 4750 
Q 2619 4750 2861 4703 
Q 3103 4656 3366 4563 
z
" transform="scale(0.015625)"/>
       </defs>
       <use xlink:href="#DejaVuSans-36"/>
       <use xlink:href="#DejaVuSans-30" transform="translate(63.623047 0)"/>
      </g>
     </g>
    </g>
    <g id="ytick_2">
     <g id="line2d_7">
      <g>
       <use xlink:href="#m80b84ea93f" x="57.6" y="265.748478" style="fill: #a4d2b6; stroke: #a4d2b6; stroke-width: 0.8"/>
      </g>
     </g>
     <g id="text_8">
      <!-- 80 -->
      <g style="fill: #a4d2b6" transform="translate(37.875 269.547697) scale(0.1 -0.1)">
       <use xlink:href="#DejaVuSans-38"/>
       <use xlink:href="#DejaVuSans-30" transform="translate(63.623047 0)"/>
      </g>
     </g>
    </g>
    <g id="ytick_3">
     <g id="line2d_8">
      <g>
       <use xlink:href="#m80b84ea93f" x="57.6" y="225.305802" style="fill: #a4d2b6; stroke: #a4d2b6; stroke-width: 0.8"/>
      </g>
     </g>
     <g id="text_9">
      <!-- 100 -->
      <g style="fill: #a4d2b6" transform="translate(31.5125 229.105021) scale(0.1 -0.1)">
       <defs>
        <path id="DejaVuSans-31" d="M 794 531 
L 1825 531 
L 1825 4091 
L 703 3866 
L 703 4441 
L 1819 4666 
L 2450 4666 
L 2450 531 
L 3481 531 
L 3481 0 
L 794 0 
L 794 531 
z
" transform="scale(0.015625)"/>
       </defs>
       <use xlink:href="#DejaVuSans-31"/>
       <use xlink:href="#DejaVuSans-30" transform="translate(63.623047 0)"/>
       <use xlink:href="#DejaVuSans-30" transform="translate(127.246094 0)"/>
      </g>
     </g>
    </g>
    <g id="ytick_4">
     <g id="line2d_9">
      <g>
       <use xlink:href="#m80b84ea93f" x="57.6" y="184.863126" style="fill: #a4d2b6; stroke: #a4d2b6; stroke-width: 0.8"/>
      </g>
     </g>
     <g id="text_10">
      <!-- 120 -->
      <g style="fill: #a4d2b6" transform="translate(31.5125 188.662345) scale(0.1 -0.1)">
       <use xlink:href="#DejaVuSans-31"/>
       <use xlink:href="#DejaVuSans-32" transform="translate(63.623047 0)"/>
       <use xlink:href="#DejaVuSans-30" transform="translate(127.246094 0)"/>
      </g>
     </g>
    </g>
    <g id="ytick_5">
     <g id="line2d_10">
      <g>
       <use xlink:href="#m80b84ea93f" x="57.6" y="144.42045" style="fill: #a4d2b6; stroke: #a4d2b6; stroke-width: 0.8"/>
      </g>
     </g>
     <g id="text_11">
      <!-- 140 -->
      <g style="fill: #a4d2b6" transform="translate(31.5125 148.219669) scale(0.1 -0.1)">
       <use xlink:href="#DejaVuSans-31"/>
       <use xlink:href="#DejaVuSans-34" transform="translate(63.623047 0)"/>
       <use xlink:href="#DejaVuSans-30" transform="translate(127.246094 0)"/>
      </g>
     </g>
    </g>
    <g id="ytick_6">
     <g id="line2d_11">
      <g>
       <use xlink:href="#m80b84ea93f" x="57.6" y="103.977774" style="fill: #a4d2b6; stroke: #a4d2b6; stroke-width: 0.8"/>
      </g>
     </g>
     <g id="text_12">
      <!-- 160 -->
      <g style="fill: #a4d2b6" transform="translate(31.5125 107.776992) scale(0.1 -0.1)">
       <use xlink:href="#DejaVuSans-31"/>
       <use xlink:href="#DejaVuSans-36" transform="translate(63.623047 0)"/>
       <use xlink:href="#DejaVuSans-30" transform="translate(127.246094 0)"/>
      </g>
     </g>
    </g>
    <g id="ytick_7">
     <g id="line2d_12">
      <g>
       <use xlink:href="#m80b84ea93f" x="57.6" y="63.535098" style="fill: #a4d2b6; stroke: #a4d2b6; stroke-width: 0.8"/>
      </g>
     </g>
     <g id="text_13">
      <!-- 180 -->
      <g style="fill: #a4d2b6" transform="translate(31.5125 67.334316) scale(0.1 -0.1)">
       <use xlink:href="#DejaVuSans-31"/>
       <use xlink:href="#DejaVuSans-38" transform="translate(63.623047 0)"/>
       <use xlink:href="#DejaVuSans-30" transform="translate(127.246094 0)"/>
      </g>
     </g>
    </g>
    <g id="text_14">
     <!-- NYSE:AAPL#1d -->
     <g style="fill: #a4d2b6" transform="translate(25.432812 212.664719) rotate(-90) scale(0.1 -0.1)">
      <defs>
       <path id="DejaVuSans-4e" d="M 628 4666 
L 1478 4666 
L 3547 763 
L 3547 4666 
L 4159 4666 
L 4159 0 
L 3309 0 
L 1241 3903 
L 1241 0 
L 628 0 
L 628 4666 
z
" transform="scale(0.015625)"/>
       <path id="DejaVuSans-59" d="M -13 4666 
L 666 4666 
L 1959 2747 
L 3244 4666 
L 3922 4666 
L 2272 2222 
L 2272 0 
L 1638 0 
L 1638 2222 
L -13 4666 
z
" transform="scale(0.015625)"/>
       <path id="DejaVuSans-53" d="M 3425 4513 
L 3425 3897 
Q 3066 4069 2747 4153 
Q 2428 4238 2131 4238 
Q 1616 4238 1336 4038 
Q 1056 3838 1056 3469 
Q 1056 3159 1242 3001 
Q 1428 2844 1947 2747 
L 2328 2669 
Q 3034 2534 3370 2195 
Q 3706 1856 3706 1288 
Q 3706 609 3251 259 
Q 2797 -91 1919 -91 
Q 1588 -91 1214 -16 
Q 841 59 441 206 
L 441 856 
Q 825 641 1194 531 
Q 1563 422 1919 422 
Q 2459 422 2753 634 
Q 3047 847 3047 1241 
Q 3047 1584 2836 1778 
Q 2625 1972 2144 2069 
L 1759 2144 
Q 1053 2284 737 2584 
Q 422 2884 422 3419 
Q 422 4038 858 4394 
Q 1294 4750 2059 4750 
Q 2388 4750 2728 4690 
Q 3069 4631 3425 4513 
z
" transform="scale(0.015625)"/>
       <path id="DejaVuSans-45" d="M 628 4666 
L 3578 4666 
L 3578 4134 
L 1259 4134 
L 1259 2753 
L 3481 2753 
L 3481 2222 
L 1259 2222 
L 1259 531 
L 3634 531 
L 3634 0 
L 628 0 
L 628 4666 
z
" transform="scale(0.015625)"/>
       <path id="DejaVuSans-3a" d="M 750 794 
L 1409 794 
L 1409 0 
L 750 0 
L 750 794 
z
M 750 3309 
L 1409 3309 
L 1409 2516 
L 750 2516 
L 750 3309 
z
" transform="scale(0.015625)"/>
       <path id="DejaVuSans-41" d="M 2188 4044 
L 1331 1722 
L 3047 1722 
L 2188 4044 
z
M 1831 4666 
L 2547 4666 
L 4325 0 
L 3669 0 
L 3244 1197 
L 1141 1197 
L 716 0 
L 50 0 
L 1831 4666 
z
" transform="scale(0.015625)"/>
       <path id="DejaVuSans-50" d="M 1259 4147 
L 1259 2394 
L 2053 2394 
Q 2494 2394 2734 2622 
Q 2975 2850 2975 3272 
Q 2975 3691 2734 3919 
Q 2494 4147 2053 4147 
L 1259 4147 
z
M 628 4666 
L 2053 4666 
Q 2838 4666 3239 4311 
Q 3641 3956 3641 3272 
Q 3641 2581 3239 2228 
Q 2838 1875 2053 1875 
L 1259 1875 
L 1259 0 
L 628 0 
L 628 4666 
z
" transform="scale(0.015625)"/>
       <path id="DejaVuSans-4c" d="M 628 4666 
L 1259 4666 
L 1259 531 
L 3531 531 
L 3531 0 
L 628 0 
L 628 4666 
z
" transform="scale(0.015625)"/>
       <path id="DejaVuSans-23" d="M 3272 2816 
L 2363 2816 
L 2100 1772 
L 3016 1772 
L 3272 2816 
z
M 2803 4594 
L 2478 3297 
L 3391 3297 
L 3719 4594 
L 4219 4594 
L 3897 3297 
L 4872 3297 
L 4872 2816 
L 3775 2816 
L 3519 1772 
L 4513 1772 
L 4513 1294 
L 3397 1294 
L 3072 0 
L 2572 0 
L 2894 1294 
L 1978 1294 
L 1656 0 
L 1153 0 
L 1478 1294 
L 494 1294 
L 494 1772 
L 1594 1772 
L 1856 2816 
L 850 2816 
L 850 3297 
L 1978 3297 
L 2297 4594 
L 2803 4594 
z
" transform="scale(0.015625)"/>
       <path id="DejaVuSans-64" d="M 2906 2969 
L 2906 4863 
L 3481 4863 
L 3481 0 
L 2906 0 
L 2906 525 
Q 2725 213 2448 61 
Q 2172 -91 1784 -91 
Q 1150 -91 751 415 
Q 353 922 353 1747 
Q 353 2572 751 3078 
Q 1150 3584 1784 3584 
Q 2172 3584 2448 3432 
Q 2725 3281 2906 2969 
z
M 947 1747 
Q 947 1113 1208 752 
Q 1469 391 1925 391 
Q 2381 391 2643 752 
Q 2906 1113 2906 1747 
Q 2906 2381 2643 2742 
Q 2381 3103 1925 3103 
Q 1469 3103 1208 2742 
Q 947 2381 947 1747 
z
" transform="scale(0.015625)"/>
      </defs>
      <use xlink:href="#DejaVuSans-4e"/>
      <use xlink:href="#DejaVuSans-59" transform="translate(74.804688 0)"/>
      <use xlink:href="#DejaVuSans-53" transform="translate(135.888672 0)"/>
      <use xlink:href="#DejaVuSans-45" transform="translate(199.365234 0)"/>
      <use xlink:href="#DejaVuSans-3a" transform="translate(262.548828 0)"/>
      <use xlink:href="#DejaVuSans-41" transform="translate(296.240234 0)"/>
      <use xlink:href="#DejaVuSans-41" transform="translate(367.398438 0)"/>
      <use xlink:href="#DejaVuSans-50" transform="translate(435.806641 0)"/>
      <use xlink:href="#DejaVuSans-4c" transform="translate(496.109375 0)"/>
      <use xlink:href="#DejaVuSans-23" transform="translate(551.822266 0)"/>
      <use xlink:href="#DejaVuSans-31" transform="translate(635.611328 0)"/>
      <use xlink:href="#DejaVuSans-64" transform="translate(699.234375 0)"/>
     </g>
    </g>
   </g>
   <g id="line2d_13">
    <path d="M 388.019235 293.241409 
L 388.164625 293.43149 
L 388.310014 293.285896 
L 388.455404 293.316228 
L 388.600793 292.958311 
L 389.036961 292.921912 
L 389.182351 292.705544 
L 389.32774 292.782385 
L 389.47313 292.557928 
L 389.763908 292.849115 
L 390.054687 292.543773 
L 390.200077 292.325383 
L 390.927024 292.286962 
L 391.072413 292.195966 
L 391.217802 291.937133 
L 391.363192 291.925 
L 392.090139 291.286006 
L 392.235528 291.356781 
L 392.380918 291.199054 
L 392.671696 291.192988 
L 392.817086 291.07166 
L 393.253254 291.269829 
L 393.544033 291.603481 
L 393.834812 291.275895 
L 393.980201 291.263762 
L 394.27098 291.045372 
L 394.416369 290.944265 
L 394.997927 291.08177 
L 395.288706 291.134346 
L 395.434095 291.44171 
L 395.579485 291.106036 
L 395.724874 291.172766 
L 395.870263 290.1435 
L 396.015653 290.012062 
L 396.306432 290.6551 
L 396.451821 290.274939 
L 396.59721 290.414466 
L 396.7426 290.163722 
L 397.033379 290.849225 
L 397.324157 290.566126 
L 397.469547 290.456931 
L 397.760326 290.568148 
L 398.051105 290.293138 
L 398.196494 289.087947 
L 398.487273 295.488 
L 398.487273 295.488 
" clip-path="url(#pd5180a5bcf)" style="fill: none; stroke: #54ca59; stroke-width: 1.5; stroke-linecap: square"/>
   </g>
   <g id="line2d_14">
    <path d="M 73.832727 60.338104 
L 81.247587 60.338104 
L 81.392976 60.689955 
L 81.829145 60.689955 
L 82.119923 61.48061 
L 82.265313 61.583738 
L 82.410702 60.774885 
L 82.701481 61.377481 
L 82.99226 61.377481 
L 83.137649 61.648447 
L 84.300765 61.658557 
L 84.591543 61.510942 
L 86.626995 61.563517 
L 86.772384 61.151002 
L 87.9355 61.151002 
L 88.080889 61.436123 
L 92.151793 61.4523 
L 92.297182 61.057984 
L 92.587961 61.057984 
L 92.73335 60.853748 
L 92.87874 60.425056 
L 93.024129 60.49583 
L 93.314908 60.370458 
L 94.332634 60.390679 
L 94.623412 60.501897 
L 96.658864 60.40079 
L 97.095032 60.346193 
L 98.258148 60.226887 
L 98.403537 59.992319 
L 99.566652 59.970076 
L 100.438989 59.970076 
L 100.875157 60.269351 
L 101.602104 60.243064 
L 102.61983 60.319905 
L 103.055998 60.360347 
L 107.708459 60.289573 
L 108.144627 60.27744 
L 108.290017 60.30575 
L 108.435406 60.560539 
L 108.580796 60.475609 
L 108.726185 60.530207 
L 109.016964 60.459432 
L 109.162353 60.459432 
L 109.307743 60.255196 
L 109.598521 60.1642 
L 109.743911 59.905367 
L 109.8893 59.905367 
L 110.180079 59.656645 
L 110.325468 59.622269 
L 110.470858 59.800216 
L 110.616247 59.70922 
L 110.761637 59.786061 
L 111.197805 59.595981 
L 111.488584 59.569693 
L 111.779362 59.666756 
L 111.924752 59.666756 
L 112.070141 59.830548 
L 112.36092 59.753707 
L 113.233257 59.773929 
L 113.378646 59.937721 
L 113.814814 59.893235 
L 114.250982 59.923567 
L 114.541761 60.178355 
L 114.977929 60.146001 
L 115.268708 60.291595 
L 115.995655 60.291595 
L 116.141045 59.998386 
L 116.286434 60.346193 
L 116.577213 60.34417 
L 116.722602 60.087359 
L 116.867992 60.330015 
L 117.013381 59.927611 
L 117.30416 59.873013 
L 117.449549 59.959965 
L 117.740328 59.873013 
L 118.031107 60.00243 
L 118.321886 60.611092 
L 118.758054 60.649513 
L 118.903443 60.954855 
L 119.048833 60.768818 
L 119.339612 60.888124 
L 119.63039 60.734442 
L 119.77578 60.837571 
L 119.921169 60.605026 
L 120.066559 60.685911 
L 120.357337 60.081293 
L 120.502727 60.352259 
L 120.793506 60.382591 
L 120.938895 60.576716 
L 121.375063 60.520096 
L 121.665842 60.150046 
L 121.811232 60.186444 
L 121.956621 60.00243 
L 122.2474 60.103536 
L 122.392789 59.939744 
L 122.683568 59.931655 
L 123.265126 59.953899 
L 123.410515 59.868969 
L 123.701294 60.010518 
L 124.428241 59.933677 
L 124.71902 59.915478 
L 124.864409 59.980186 
L 125.155188 59.862903 
L 125.445967 59.947832 
L 125.736746 59.873013 
L 126.172914 59.94581 
L 127.336029 60.085337 
L 127.626808 60.232953 
L 127.917587 60.085337 
L 128.208365 60.050961 
L 128.499144 60.356303 
L 128.644534 60.340126 
L 128.789923 59.234019 
L 129.226091 59.604069 
L 129.371481 59.191554 
L 129.51687 58.336192 
L 129.662259 58.712308 
L 129.807649 58.73253 
L 129.953038 58.437298 
L 130.243817 58.30586 
L 130.389207 58.635467 
L 130.534596 58.611202 
L 130.679985 58.746685 
L 130.825375 59.116735 
L 131.406932 58.01265 
L 131.697711 58.239129 
L 131.843101 57.856946 
L 132.279269 58.601091 
L 132.424658 58.599069 
L 132.570048 58.160266 
L 132.860826 58.398878 
L 133.151605 58.31597 
L 133.442384 58.554582 
L 133.587773 58.481785 
L 133.733163 58.890256 
L 134.46011 57.949964 
L 134.605499 58.038938 
L 134.750889 58.350346 
L 134.896278 58.269461 
L 135.187057 57.931765 
L 135.623225 58.10769 
L 136.059393 57.919632 
L 136.78634 58.233063 
L 136.93173 57.986362 
L 137.367898 58.406966 
L 137.949456 58.481785 
L 138.094845 58.570759 
L 138.385624 58.30586 
L 138.531013 58.340236 
L 138.676403 58.564693 
L 138.967182 58.366524 
L 139.25796 58.408988 
L 139.984907 58.724441 
L 140.130297 58.623335 
L 140.275686 58.857902 
L 140.711854 58.712308 
L 141.002633 58.841725 
L 141.293412 58.946876 
L 141.584191 58.910478 
L 141.87497 59.112691 
L 142.020359 58.997429 
L 142.311138 59.262329 
L 142.601917 58.965075 
L 143.038085 59.106624 
L 143.619643 58.586936 
L 143.910421 58.61929 
L 144.2012 58.417077 
L 144.491979 58.421121 
L 144.782758 58.655689 
L 145.800484 58.641534 
L 145.945873 58.79926 
L 146.091262 58.781061 
L 146.382041 59.07427 
L 146.81821 59.355347 
L 147.399767 59.385679 
L 147.981325 59.217842 
L 148.272104 59.331081 
L 148.417493 59.260307 
L 148.562882 59.322993 
L 148.853661 59.151111 
L 149.14444 59.260307 
L 149.580608 58.97923 
L 150.016776 59.058093 
L 150.162166 58.920588 
L 150.307555 58.967097 
L 150.452945 58.876101 
L 150.889113 59.143023 
L 152.488396 60.512007 
L 152.924565 60.418989 
L 153.651512 60.449321 
L 153.94229 60.160156 
L 154.669237 60.562561 
L 154.960016 60.574694 
L 155.105406 60.572672 
L 155.250795 60.714221 
L 155.541574 60.45741 
L 155.977742 60.79915 
L 156.123132 60.720287 
L 156.41391 60.825438 
L 156.850079 60.770841 
L 157.140857 60.869925 
L 157.431636 61.019563 
L 157.722415 60.742531 
L 158.158583 60.778929 
L 159.612477 60.408879 
L 159.757867 60.487742 
L 160.048646 61.171223 
L 160.484814 60.708154 
L 160.920982 60.615136 
L 161.35715 60.239019 
L 161.793318 60.299683 
L 162.374876 60.113647 
L 162.811044 60.336082 
L 162.956434 60.273396 
L 163.101823 60.356303 
L 163.247212 60.218798 
L 163.392602 60.346193 
L 163.537991 60.307772 
L 163.97416 60.659623 
L 164.119549 60.501897 
L 164.555717 60.740509 
L 164.846496 60.536273 
L 165.137275 60.596937 
L 165.282664 60.548406 
L 165.573443 60.722309 
L 166.881948 60.797128 
L 167.318116 60.651535 
L 167.608895 60.829482 
L 167.754284 60.890147 
L 167.899673 60.787018 
L 168.335842 60.865881 
L 168.626621 61.387591 
L 168.77201 61.391636 
L 169.062789 60.70411 
L 169.353568 61.027652 
L 170.080515 61.013497 
L 170.225904 61.066072 
L 170.371293 60.934633 
L 170.807462 61.207622 
L 171.09824 60.96901 
L 171.389019 61.266263 
L 171.679798 61.262219 
L 171.970577 61.785952 
L 172.261356 62.060962 
L 172.697524 61.67069 
L 172.988303 61.644402 
L 174.878365 61.872904 
L 175.459923 61.721244 
L 175.750701 61.500831 
L 176.18687 61.549362 
L 176.332259 61.537229 
L 176.623038 61.308728 
L 176.768427 61.377481 
L 176.913817 61.320861 
L 177.204596 61.500831 
L 177.640764 61.341082 
L 177.931543 61.506897 
L 178.367711 61.426012 
L 178.65849 61.508919 
L 179.240047 61.355237 
L 179.530826 61.468477 
L 179.966994 61.213688 
L 180.257773 61.521052 
L 182.147835 60.487742 
L 182.584004 59.832571 
L 182.729393 59.723375 
L 182.874782 59.895257 
L 183.020172 59.786061 
L 183.165561 59.864925 
L 183.310951 59.808305 
L 183.45634 59.549472 
L 184.328676 59.537339 
L 184.910234 59.054049 
L 185.201013 58.888234 
L 185.346402 58.821504 
L 185.491792 58.892278 
L 185.782571 58.795216 
L 186.073349 58.829592 
L 186.218739 58.817459 
L 186.509518 59.227953 
L 186.654907 59.100558 
L 186.800296 59.177399 
L 186.945686 58.845769 
L 187.091075 59.229975 
L 187.236465 58.857902 
L 187.527243 58.857902 
L 187.672633 59.272439 
L 187.963412 59.288617 
L 188.39958 59.329059 
L 188.835748 59.256262 
L 189.126527 60.152068 
L 189.417306 59.418033 
L 189.998863 59.110669 
L 190.144253 58.981252 
L 190.289642 58.698153 
L 190.435032 58.813415 
L 190.580421 58.59098 
L 190.8712 58.853858 
L 191.161979 59.114713 
L 191.452757 58.774995 
L 191.888926 58.441342 
L 192.034315 58.819481 
L 192.179704 58.734552 
L 192.325094 58.338214 
L 192.615873 58.41101 
L 192.906651 58.49594 
L 193.052041 58.433254 
L 193.488209 58.805327 
L 193.633599 58.878123 
L 193.778988 59.108647 
L 193.924377 59.697088 
L 194.069767 58.948898 
L 194.796714 58.447409 
L 194.942103 58.45752 
L 195.232882 58.791172 
L 195.378271 58.639512 
L 196.395997 58.948898 
L 196.686776 59.181443 
L 196.832165 59.108647 
L 196.977555 58.863968 
L 197.268334 58.890256 
L 197.704502 58.928677 
L 198.14067 58.861946 
L 198.576838 58.997429 
L 198.867617 58.843747 
L 199.303785 58.724441 
L 199.594564 58.79926 
L 199.885343 58.683999 
L 200.466901 58.683999 
L 201.193848 58.791172 
L 201.339237 58.558626 
L 201.484626 58.779039 
L 201.775405 58.673888 
L 202.066184 58.815437 
L 202.502352 58.758817 
L 202.647742 58.865991 
L 202.938521 58.791172 
L 203.08391 58.880146 
L 203.229299 58.758817 
L 203.520078 58.809371 
L 203.810857 58.76084 
L 204.392415 59.155156 
L 204.683193 58.987319 
L 205.119362 58.683999 
L 205.41014 58.601091 
L 205.700919 58.679954 
L 205.846309 58.544471 
L 205.991698 58.631423 
L 206.573256 58.382701 
L 206.718645 58.518184 
L 207.736371 57.964119 
L 208.608707 58.091513 
L 209.044876 58.698153 
L 209.335654 58.570759 
L 209.626433 58.477741 
L 210.35338 58.334169 
L 210.49877 58.334169 
L 210.789549 58.455497 
L 211.080327 58.419099 
L 211.225717 58.60918 
L 211.371106 58.479763 
L 211.661885 58.706242 
L 211.952664 58.629401 
L 212.388832 58.530316 
L 212.534221 58.530316 
L 212.679611 58.378656 
L 212.825 58.431232 
L 212.97039 58.119823 
L 214.860452 58.154199 
L 215.005841 58.233063 
L 215.587399 58.057137 
L 216.023567 58.018717 
L 216.314346 57.95603 
L 216.605125 58.089491 
L 217.186682 58.394833 
L 217.332072 58.194642 
L 217.477461 58.370568 
L 217.913629 58.200709 
L 218.204408 58.267439 
L 219.222134 57.871101 
L 219.512913 58.010628 
L 219.803692 57.80437 
L 220.094471 57.594068 
L 220.385249 57.640577 
L 221.693754 57.525316 
L 290.462943 57.525316 
L 290.608333 55.632599 
L 290.899112 55.812569 
L 291.18989 55.891432 
L 291.480669 55.673041 
L 291.771448 55.541603 
L 292.062227 55.65282 
L 292.353006 55.731683 
L 292.934563 56.425275 
L 293.079953 56.425275 
L 293.225342 56.740728 
L 293.516121 56.451563 
L 294.097679 56.374722 
L 294.243068 56.665909 
L 295.551573 56.6194 
L 296.423909 56.121955 
L 297.150856 56.176553 
L 297.587024 56.28777 
L 299.331697 56.384832 
L 299.767865 56.661865 
L 300.349423 56.663887 
L 301.512538 56.659843 
L 301.657928 56.801392 
L 301.948707 56.730617 
L 302.384875 56.718484 
L 303.257211 57.274571 
L 303.984158 57.183575 
L 304.274937 57.068314 
L 305.292663 57.068314 
L 305.438052 56.83779 
L 307.328115 56.942941 
L 307.618893 57.025849 
L 308.055062 57.122911 
L 308.49123 57.139088 
L 310.090513 57.066291 
L 310.381292 56.500094 
L 310.96285 56.469762 
L 311.253629 56.037025 
L 312.125965 56.075446 
L 312.271354 56.210929 
L 312.707523 56.13611 
L 314.016027 56.119933 
L 314.161417 56.295859 
L 316.633037 56.338323 
L 316.778426 56.738706 
L 316.923815 56.477851 
L 317.069205 56.71444 
L 318.37771 56.74275 
L 318.668488 56.696241 
L 319.104657 56.574913 
L 319.540825 56.585024 
L 319.686214 56.471784 
L 320.122382 56.722529 
L 320.994719 56.762971 
L 321.285498 56.898454 
L 321.721666 56.8661 
L 322.157834 56.882277 
L 322.739392 56.98945 
L 325.065622 57.013716 
L 325.356401 57.114823 
L 325.50179 56.805436 
L 325.64718 56.835768 
L 325.792569 56.154309 
L 326.083348 56.833746 
L 326.374127 56.665909 
L 326.664906 57.345346 
L 326.810295 57.355457 
L 326.955685 58.839703 
L 327.101074 57.252328 
L 327.682632 56.98945 
L 327.828021 57.29277 
L 328.1188 56.963163 
L 328.554968 56.847901 
L 328.845747 56.888344 
L 329.863473 57.329169 
L 330.154252 57.163354 
L 330.44503 56.878233 
L 331.462756 57.027871 
L 331.608146 57.00765 
L 331.753535 57.120889 
L 332.189703 57.104712 
L 332.335093 57.193686 
L 333.207429 56.829702 
L 333.498208 56.801392 
L 333.788987 56.813525 
L 334.661323 56.585024 
L 335.097491 56.483917 
L 335.679049 57.248284 
L 335.969828 57.163354 
L 336.115217 58.783083 
L 336.260607 56.981362 
L 336.405996 56.726573 
L 336.551385 58.633445 
L 336.696775 56.934853 
L 336.842164 56.977318 
L 337.278332 56.858012 
L 337.85989 56.967207 
L 338.441448 56.417187 
L 338.877616 55.549691 
L 339.168395 57.484873 
L 339.313784 57.499028 
L 339.749952 58.105668 
L 339.895342 58.038938 
L 340.186121 57.33928 
L 340.476899 56.738706 
L 340.622289 56.936875 
L 340.913068 56.651754 
L 341.203846 56.981362 
L 341.349236 56.825658 
L 341.494625 56.364611 
L 342.076183 57.403988 
L 342.221572 57.128978 
L 342.512351 57.167398 
L 342.80313 57.203797 
L 342.948519 57.128978 
L 343.239298 56.653776 
L 343.384688 57.042026 
L 343.675466 56.904521 
L 343.966245 56.564802 
L 344.257024 56.633555 
L 344.547803 57.118867 
L 344.693192 57.149199 
L 344.838582 56.934853 
L 344.983971 57.058203 
L 345.420139 56.987428 
L 345.565529 57.492962 
L 346.001697 57.689109 
L 346.147086 57.543515 
L 346.583254 57.895366 
L 346.728644 57.850879 
L 346.874033 57.561714 
L 347.019423 57.579913 
L 347.164812 57.329169 
L 347.74637 57.337257 
L 348.473317 57.04607 
L 348.764096 57.244239 
L 349.345653 57.147177 
L 349.636432 57.592046 
L 350.0726 57.644622 
L 350.363379 57.664843 
L 350.508768 57.563736 
L 350.799547 57.729551 
L 350.944937 57.674954 
L 351.381105 57.798304 
L 352.108052 58.119823 
L 352.398831 58.427188 
L 352.54422 58.182509 
L 352.68961 58.170377 
L 352.834999 58.421121 
L 352.980388 58.366524 
L 353.271167 57.55767 
L 353.561946 57.581936 
L 353.852725 57.749773 
L 354.288893 57.604179 
L 354.579672 57.70933 
L 354.725061 57.769994 
L 355.01584 57.559692 
L 355.161229 57.454541 
L 355.452008 57.626423 
L 355.742787 57.329169 
L 356.033566 57.450497 
L 356.469734 57.517227 
L 356.760513 57.110778 
L 357.196681 57.474763 
L 357.632849 57.385789 
L 358.069018 57.430276 
L 358.214407 57.347368 
L 358.359796 57.50105 
L 358.505186 57.361523 
L 358.650575 57.598113 
L 358.941354 57.486895 
L 359.232133 57.521272 
L 359.377522 57.304903 
L 359.813691 57.555648 
L 360.249859 57.55767 
L 360.395248 57.802348 
L 360.976806 57.782127 
L 362.139921 57.753817 
L 362.576089 57.852902 
L 362.721479 57.947942 
L 363.303036 57.715396 
L 363.448426 57.774038 
L 364.029983 57.561714 
L 364.466152 57.446453 
L 364.75693 57.248284 
L 365.193099 56.995517 
L 365.629267 57.157288 
L 366.501603 57.379722 
L 367.22855 56.706352 
L 367.37394 56.572891 
L 367.519329 56.661865 
L 367.955497 56.475828 
L 368.682444 56.305969 
L 368.827834 56.227106 
L 368.973223 56.275637 
L 369.264002 56.150265 
L 369.409391 56.297881 
L 370.717896 55.582045 
L 371.008675 55.654842 
L 371.154064 55.788303 
L 371.444843 55.662931 
L 371.590232 55.626532 
L 371.881011 55.379832 
L 372.17179 55.294902 
L 372.607958 55.339389 
L 374.207242 55.262548 
L 374.352631 55.353544 
L 374.498021 55.307035 
L 374.934189 55.503182 
L 375.224968 55.428363 
L 375.515746 55.424319 
L 375.806525 54.991582 
L 375.951915 54.906653 
L 376.824251 55.157397 
L 377.11503 55.044158 
L 378.132756 54.89452 
L 378.278145 54.639731 
L 378.568924 54.692306 
L 378.714313 54.589178 
L 379.150482 54.688262 
L 380.313597 53.970405 
L 380.458986 53.968382 
L 380.604376 54.122065 
L 381.040544 53.93805 
L 381.622102 53.592266 
L 381.91288 53.646863 
L 382.203659 53.612487 
L 383.221385 53.96636 
L 383.366774 53.911763 
L 383.802943 54.358654 
L 384.3845 53.772236 
L 384.52989 53.845032 
L 384.675279 54.059379 
L 385.838394 54.144308 
L 386.129173 54.550757 
L 386.274563 54.510314 
L 386.419952 54.348544 
L 386.710731 54.43954 
L 387.146899 54.061401 
L 388.019235 54.059379 
L 388.019235 54.059379 
" clip-path="url(#pd5180a5bcf)" style="fill: none; stroke: #a4d2b6; stroke-width: 1.5; stroke-linecap: square"/>
   </g>
   <g id="patch_19">
    <path d="M 57.6 307.584 
L 57.6 41.472 
" style="fill: none; stroke: #000000; stroke-width: 0.8; stroke-linejoin: miter; stroke-linecap: square"/>
   </g>
   <g id="patch_20">
    <path d="M 414.72 307.584 
L 414.72 41.472 
" style="fill: none; stroke: #000000; stroke-width: 0.8; stroke-linejoin: miter; stroke-linecap: square"/>
   </g>
   <g id="patch_21">
    <path d="M 57.6 307.584 
L 414.72 307.584 
" style="fill: none; stroke: #000000; stroke-width: 0.8; stroke-linejoin: miter; stroke-linecap: square"/>
   </g>
   <g id="patch_22">
    <path d="M 57.6 41.472 
L 414.72 41.472 
" style="fill: none; stroke: #000000; stroke-width: 0.8; stroke-linejoin: miter; stroke-linecap: square"/>
   </g>
  </g>
 </g>
 <defs>
  <clipPath id="pd5180a5bcf">
   <rect x="57.6" y="41.472" width="357.12" height="266.112"/>
  </clipPath>
 </defs>
</svg>
