<?xml version="1.0" encoding="utf-8" standalone="no"?>
<!DOCTYPE svg PUBLIC "-//W3C//DTD SVG 1.1//EN"
  "http://www.w3.org/Graphics/SVG/1.1/DTD/svg11.dtd">
<svg xmlns:xlink="http://www.w3.org/1999/xlink" width="460.8pt" height="345.6pt" viewBox="0 0 460.8 345.6" xmlns="http://www.w3.org/2000/svg" version="1.1">
 <metadata>
  <rdf:RDF xmlns:dc="http://purl.org/dc/elements/1.1/" xmlns:cc="http://creativecommons.org/ns#" xmlns:rdf="http://www.w3.org/1999/02/22-rdf-syntax-ns#">
   <cc:Work>
    <dc:type rdf:resource="http://purl.org/dc/dcmitype/StillImage"/>
    <dc:date>2025-07-19T16:52:21.649015</dc:date>
    <dc:format>image/svg+xml</dc:format>
    <dc:creator>
     <cc:Agent>
      <dc:title>Matplotlib v3.10.0, https://matplotlib.org/</dc:title>
     </cc:Agent>
    </dc:creator>
   </cc:Work>
  </rdf:RDF>
 </metadata>
 <defs>
  <style type="text/css">*{stroke-linejoin: round; stroke-linecap: butt}</style>
 </defs>
 <g id="figure_1">
  <g id="patch_1">
   <path d="M 0 345.6 
L 460.8 345.6 
L 460.8 0 
L 0 0 
z
" style="fill: #ffffff"/>
  </g>
  <g id="axes_1">
   <g id="patch_2">
    <path d="M 57.6 307.584 
L 414.72 307.584 
L 414.72 41.472 
L 57.6 41.472 
z
" style="fill: #ffffff"/>
   </g>
   <g id="patch_3">
    <path d="M 57.6 292.7279 
L 414.72 292.7279 
L 414.72 292.7279 
L 57.6 292.7279 
z
" clip-path="url(#p2ab3841321)" style="stroke: #000000; stroke-linejoin: miter"/>
   </g>
   <g id="patch_4">
    <path d="M 57.6 292.625539 
L 414.72 292.625539 
L 414.72 292.625539 
L 57.6 292.625539 
z
" clip-path="url(#p2ab3841321)" style="fill: #0000ff; stroke: #0000ff; stroke-linejoin: miter"/>
   </g>
   <g id="patch_5">
    <path d="M 57.6 297.87704 
L 414.72 297.87704 
L 414.72 297.87704 
L 57.6 297.87704 
z
" clip-path="url(#p2ab3841321)" style="fill: #ff0000; stroke: #ff0000; stroke-linejoin: miter"/>
   </g>
   <g id="patch_6">
    <path d="M 57.6 290.667879 
L 414.72 290.667879 
L 414.72 290.667879 
L 57.6 290.667879 
z
" clip-path="url(#p2ab3841321)" style="fill: #008000; stroke: #008000; stroke-linejoin: miter"/>
   </g>
   <g id="patch_7">
    <path d="M 57.6 307.584 
L 249.187237 307.584 
L 249.187237 294.2784 
L 57.6 294.2784 
z
" clip-path="url(#p2ab3841321)" style="fill: #808080; stroke: #808080; stroke-linejoin: miter"/>
   </g>
   <g id="patch_8">
    <path d="M 244.45006 307.584 
L 249.187237 307.584 
L 249.187237 294.2784 
L 244.45006 294.2784 
z
" clip-path="url(#p2ab3841321)" style="fill: #008000; stroke: #008000; stroke-linejoin: miter"/>
   </g>
   <g id="patch_9">
    <path d="M 249.187237 307.584 
L 362.879491 307.584 
L 362.879491 294.2784 
L 249.187237 294.2784 
z
" clip-path="url(#p2ab3841321)" style="fill: #0000ff; stroke: #0000ff; stroke-linejoin: miter"/>
   </g>
   <g id="patch_10">
    <path d="M 362.879491 307.584 
L 414.72 307.584 
L 414.72 294.2784 
L 362.879491 294.2784 
z
" clip-path="url(#p2ab3841321)" style="fill: #ff0000; stroke: #ff0000; stroke-linejoin: miter"/>
   </g>
   <g id="patch_11">
    <path d="M 130.678854 70.745737 
C 133.046587 70.745737 135.317663 70.044756 136.991903 68.797177 
C 138.666144 67.549598 139.606854 65.85728 139.606854 64.092937 
C 139.606854 62.328593 138.666144 60.636276 136.991903 59.388697 
C 135.317663 58.141118 133.046587 57.440137 130.678854 57.440137 
C 128.311121 57.440137 126.040045 58.141118 124.365805 59.388697 
C 122.691564 60.636276 121.750854 62.328593 121.750854 64.092937 
C 121.750854 65.85728 122.691564 67.549598 124.365805 68.797177 
C 126.040045 70.044756 128.311121 70.745737 130.678854 70.745737 
z
" clip-path="url(#p2ab3841321)" style="fill: #ff0000; stroke: #ff0000; stroke-linejoin: miter"/>
   </g>
   <g id="patch_12">
    <path d="M 244.371107 61.178609 
C 246.73884 61.178609 249.009916 60.477628 250.684157 59.230049 
C 252.358397 57.98247 253.299107 56.290153 253.299107 54.525809 
C 253.299107 52.761466 252.358397 51.069148 250.684157 49.821569 
C 249.009916 48.57399 246.73884 47.873009 244.371107 47.873009 
C 242.003374 47.873009 239.732298 48.57399 238.058058 49.821569 
C 236.383818 51.069148 235.443107 52.761466 235.443107 54.525809 
C 235.443107 56.290153 236.383818 57.98247 238.058058 59.230049 
C 239.732298 60.477628 242.003374 61.178609 244.371107 61.178609 
z
" clip-path="url(#p2ab3841321)" style="fill: #ff0000; stroke: #ff0000; stroke-linejoin: miter"/>
   </g>
   <g id="patch_13">
    <path d="M 130.678854 64.092937 
L 244.371107 54.525809 
z
" clip-path="url(#p2ab3841321)" style="fill: #ff0000; stroke: #ff0000; stroke-linejoin: miter"/>
   </g>
   <g id="patch_14">
    <path d="M 244.529013 307.584 
L 244.529013 307.584 
L 244.529013 41.472 
L 244.529013 41.472 
z
" clip-path="url(#p2ab3841321)" style="fill: #008000; stroke: #008000; stroke-linejoin: miter"/>
   </g>
   <g id="patch_15">
    <path d="M 362.879491 307.584 
L 362.879491 307.584 
L 362.879491 41.472 
L 362.879491 41.472 
z
" clip-path="url(#p2ab3841321)" style="fill: #ff0000; stroke: #ff0000; stroke-linejoin: miter"/>
   </g>
   <g id="patch_16">
    <path d="M 244.529013 299.382528 
C 246.896746 299.382528 249.167822 298.681547 250.842062 297.433968 
C 252.516303 296.186389 253.457013 294.494071 253.457013 292.729728 
C 253.457013 290.965385 252.516303 289.273067 250.842062 288.025488 
C 249.167822 286.777909 246.896746 286.076928 244.529013 286.076928 
C 242.16128 286.076928 239.890204 286.777909 238.215964 288.025488 
C 236.541723 289.273067 235.601013 290.965385 235.601013 292.729728 
C 235.601013 294.494071 236.541723 296.186389 238.215964 297.433968 
C 239.890204 298.681547 242.16128 299.382528 244.529013 299.382528 
z
" clip-path="url(#p2ab3841321)" style="fill: #0000ff; stroke: #0000ff; stroke-linejoin: miter"/>
   </g>
   <g id="patch_17">
    <path d="M 362.958444 298.031724 
C 365.326177 298.031724 367.597253 297.330743 369.271493 296.083164 
C 370.945733 294.835585 371.886444 293.143268 371.886444 291.378924 
C 371.886444 289.614581 370.945733 287.922263 369.271493 286.674684 
C 367.597253 285.427105 365.326177 284.726124 362.958444 284.726124 
C 360.59071 284.726124 358.319634 285.427105 356.645394 286.674684 
C 354.971154 287.922263 354.030444 289.614581 354.030444 291.378924 
C 354.030444 293.143268 354.971154 294.835585 356.645394 296.083164 
C 358.319634 297.330743 360.59071 298.031724 362.958444 298.031724 
z
" clip-path="url(#p2ab3841321)" style="fill: #0000ff; stroke: #0000ff; stroke-linejoin: miter"/>
   </g>
   <g id="patch_18">
    <path d="M 244.529013 292.729728 
L 362.958444 291.378924 
z
" clip-path="url(#p2ab3841321)" style="fill: #0000ff; stroke: #0000ff; stroke-linejoin: miter"/>
   </g>
   <g id="matplotlib.axis_1">
    <g id="xtick_1">
     <g id="line2d_1">
      <defs>
       <path id="m06cda2fa19" d="M 0 0 
L 0 3.5 
" style="stroke: #000000; stroke-width: 0.8"/>
      </defs>
      <g>
       <use xlink:href="#m06cda2fa19" x="85.754623" y="307.584" style="stroke: #000000; stroke-width: 0.8"/>
      </g>
     </g>
     <g id="text_1">
      <!-- 28423000 -->
      <g transform="translate(60.304623 322.182437) scale(0.1 -0.1)">
       <defs>
        <path id="DejaVuSans-32" d="M 1228 531 
L 3431 531 
L 3431 0 
L 469 0 
L 469 531 
Q 828 903 1448 1529 
Q 2069 2156 2228 2338 
Q 2531 2678 2651 2914 
Q 2772 3150 2772 3378 
Q 2772 3750 2511 3984 
Q 2250 4219 1831 4219 
Q 1534 4219 1204 4116 
Q 875 4013 500 3803 
L 500 4441 
Q 881 4594 1212 4672 
Q 1544 4750 1819 4750 
Q 2544 4750 2975 4387 
Q 3406 4025 3406 3419 
Q 3406 3131 3298 2873 
Q 3191 2616 2906 2266 
Q 2828 2175 2409 1742 
Q 1991 1309 1228 531 
z
" transform="scale(0.015625)"/>
        <path id="DejaVuSans-38" d="M 2034 2216 
Q 1584 2216 1326 1975 
Q 1069 1734 1069 1313 
Q 1069 891 1326 650 
Q 1584 409 2034 409 
Q 2484 409 2743 651 
Q 3003 894 3003 1313 
Q 3003 1734 2745 1975 
Q 2488 2216 2034 2216 
z
M 1403 2484 
Q 997 2584 770 2862 
Q 544 3141 544 3541 
Q 544 4100 942 4425 
Q 1341 4750 2034 4750 
Q 2731 4750 3128 4425 
Q 3525 4100 3525 3541 
Q 3525 3141 3298 2862 
Q 3072 2584 2669 2484 
Q 3125 2378 3379 2068 
Q 3634 1759 3634 1313 
Q 3634 634 3220 271 
Q 2806 -91 2034 -91 
Q 1263 -91 848 271 
Q 434 634 434 1313 
Q 434 1759 690 2068 
Q 947 2378 1403 2484 
z
M 1172 3481 
Q 1172 3119 1398 2916 
Q 1625 2713 2034 2713 
Q 2441 2713 2670 2916 
Q 2900 3119 2900 3481 
Q 2900 3844 2670 4047 
Q 2441 4250 2034 4250 
Q 1625 4250 1398 4047 
Q 1172 3844 1172 3481 
z
" transform="scale(0.015625)"/>
        <path id="DejaVuSans-34" d="M 2419 4116 
L 825 1625 
L 2419 1625 
L 2419 4116 
z
M 2253 4666 
L 3047 4666 
L 3047 1625 
L 3713 1625 
L 3713 1100 
L 3047 1100 
L 3047 0 
L 2419 0 
L 2419 1100 
L 313 1100 
L 313 1709 
L 2253 4666 
z
" transform="scale(0.015625)"/>
        <path id="DejaVuSans-33" d="M 2597 2516 
Q 3050 2419 3304 2112 
Q 3559 1806 3559 1356 
Q 3559 666 3084 287 
Q 2609 -91 1734 -91 
Q 1441 -91 1130 -33 
Q 819 25 488 141 
L 488 750 
Q 750 597 1062 519 
Q 1375 441 1716 441 
Q 2309 441 2620 675 
Q 2931 909 2931 1356 
Q 2931 1769 2642 2001 
Q 2353 2234 1838 2234 
L 1294 2234 
L 1294 2753 
L 1863 2753 
Q 2328 2753 2575 2939 
Q 2822 3125 2822 3475 
Q 2822 3834 2567 4026 
Q 2313 4219 1838 4219 
Q 1578 4219 1281 4162 
Q 984 4106 628 3988 
L 628 4550 
Q 988 4650 1302 4700 
Q 1616 4750 1894 4750 
Q 2613 4750 3031 4423 
Q 3450 4097 3450 3541 
Q 3450 3153 3228 2886 
Q 3006 2619 2597 2516 
z
" transform="scale(0.015625)"/>
        <path id="DejaVuSans-30" d="M 2034 4250 
Q 1547 4250 1301 3770 
Q 1056 3291 1056 2328 
Q 1056 1369 1301 889 
Q 1547 409 2034 409 
Q 2525 409 2770 889 
Q 3016 1369 3016 2328 
Q 3016 3291 2770 3770 
Q 2525 4250 2034 4250 
z
M 2034 4750 
Q 2819 4750 3233 4129 
Q 3647 3509 3647 2328 
Q 3647 1150 3233 529 
Q 2819 -91 2034 -91 
Q 1250 -91 836 529 
Q 422 1150 422 2328 
Q 422 3509 836 4129 
Q 1250 4750 2034 4750 
z
" transform="scale(0.015625)"/>
       </defs>
       <use xlink:href="#DejaVuSans-32"/>
       <use xlink:href="#DejaVuSans-38" transform="translate(63.623047 0)"/>
       <use xlink:href="#DejaVuSans-34" transform="translate(127.246094 0)"/>
       <use xlink:href="#DejaVuSans-32" transform="translate(190.869141 0)"/>
       <use xlink:href="#DejaVuSans-33" transform="translate(254.492188 0)"/>
       <use xlink:href="#DejaVuSans-30" transform="translate(318.115234 0)"/>
       <use xlink:href="#DejaVuSans-30" transform="translate(381.738281 0)"/>
       <use xlink:href="#DejaVuSans-30" transform="translate(445.361328 0)"/>
      </g>
     </g>
    </g>
    <g id="xtick_2">
     <g id="line2d_2">
      <g>
       <use xlink:href="#m06cda2fa19" x="164.707577" y="307.584" style="stroke: #000000; stroke-width: 0.8"/>
      </g>
     </g>
     <g id="text_2">
      <!-- 28424000 -->
      <g transform="translate(139.257577 322.182437) scale(0.1 -0.1)">
       <use xlink:href="#DejaVuSans-32"/>
       <use xlink:href="#DejaVuSans-38" transform="translate(63.623047 0)"/>
       <use xlink:href="#DejaVuSans-34" transform="translate(127.246094 0)"/>
       <use xlink:href="#DejaVuSans-32" transform="translate(190.869141 0)"/>
       <use xlink:href="#DejaVuSans-34" transform="translate(254.492188 0)"/>
       <use xlink:href="#DejaVuSans-30" transform="translate(318.115234 0)"/>
       <use xlink:href="#DejaVuSans-30" transform="translate(381.738281 0)"/>
       <use xlink:href="#DejaVuSans-30" transform="translate(445.361328 0)"/>
      </g>
     </g>
    </g>
    <g id="xtick_3">
     <g id="line2d_3">
      <g>
       <use xlink:href="#m06cda2fa19" x="243.660531" y="307.584" style="stroke: #000000; stroke-width: 0.8"/>
      </g>
     </g>
     <g id="text_3">
      <!-- 28425000 -->
      <g transform="translate(218.210531 322.182437) scale(0.1 -0.1)">
       <defs>
        <path id="DejaVuSans-35" d="M 691 4666 
L 3169 4666 
L 3169 4134 
L 1269 4134 
L 1269 2991 
Q 1406 3038 1543 3061 
Q 1681 3084 1819 3084 
Q 2600 3084 3056 2656 
Q 3513 2228 3513 1497 
Q 3513 744 3044 326 
Q 2575 -91 1722 -91 
Q 1428 -91 1123 -41 
Q 819 9 494 109 
L 494 744 
Q 775 591 1075 516 
Q 1375 441 1709 441 
Q 2250 441 2565 725 
Q 2881 1009 2881 1497 
Q 2881 1984 2565 2268 
Q 2250 2553 1709 2553 
Q 1456 2553 1204 2497 
Q 953 2441 691 2322 
L 691 4666 
z
" transform="scale(0.015625)"/>
       </defs>
       <use xlink:href="#DejaVuSans-32"/>
       <use xlink:href="#DejaVuSans-38" transform="translate(63.623047 0)"/>
       <use xlink:href="#DejaVuSans-34" transform="translate(127.246094 0)"/>
       <use xlink:href="#DejaVuSans-32" transform="translate(190.869141 0)"/>
       <use xlink:href="#DejaVuSans-35" transform="translate(254.492188 0)"/>
       <use xlink:href="#DejaVuSans-30" transform="translate(318.115234 0)"/>
       <use xlink:href="#DejaVuSans-30" transform="translate(381.738281 0)"/>
       <use xlink:href="#DejaVuSans-30" transform="translate(445.361328 0)"/>
      </g>
     </g>
    </g>
    <g id="xtick_4">
     <g id="line2d_4">
      <g>
       <use xlink:href="#m06cda2fa19" x="322.613484" y="307.584" style="stroke: #000000; stroke-width: 0.8"/>
      </g>
     </g>
     <g id="text_4">
      <!-- 28426000 -->
      <g transform="translate(297.163484 322.182437) scale(0.1 -0.1)">
       <defs>
        <path id="DejaVuSans-36" d="M 2113 2584 
Q 1688 2584 1439 2293 
Q 1191 2003 1191 1497 
Q 1191 994 1439 701 
Q 1688 409 2113 409 
Q 2538 409 2786 701 
Q 3034 994 3034 1497 
Q 3034 2003 2786 2293 
Q 2538 2584 2113 2584 
z
M 3366 4563 
L 3366 3988 
Q 3128 4100 2886 4159 
Q 2644 4219 2406 4219 
Q 1781 4219 1451 3797 
Q 1122 3375 1075 2522 
Q 1259 2794 1537 2939 
Q 1816 3084 2150 3084 
Q 2853 3084 3261 2657 
Q 3669 2231 3669 1497 
Q 3669 778 3244 343 
Q 2819 -91 2113 -91 
Q 1303 -91 875 529 
Q 447 1150 447 2328 
Q 447 3434 972 4092 
Q 1497 4750 2381 4750 
Q 2619 4750 2861 4703 
Q 3103 4656 3366 4563 
z
" transform="scale(0.015625)"/>
       </defs>
       <use xlink:href="#DejaVuSans-32"/>
       <use xlink:href="#DejaVuSans-38" transform="translate(63.623047 0)"/>
       <use xlink:href="#DejaVuSans-34" transform="translate(127.246094 0)"/>
       <use xlink:href="#DejaVuSans-32" transform="translate(190.869141 0)"/>
       <use xlink:href="#DejaVuSans-36" transform="translate(254.492188 0)"/>
       <use xlink:href="#DejaVuSans-30" transform="translate(318.115234 0)"/>
       <use xlink:href="#DejaVuSans-30" transform="translate(381.738281 0)"/>
       <use xlink:href="#DejaVuSans-30" transform="translate(445.361328 0)"/>
      </g>
     </g>
    </g>
    <g id="xtick_5">
     <g id="line2d_5">
      <g>
       <use xlink:href="#m06cda2fa19" x="401.566438" y="307.584" style="stroke: #000000; stroke-width: 0.8"/>
      </g>
     </g>
     <g id="text_5">
      <!-- 28427000 -->
      <g transform="translate(376.116438 322.182437) scale(0.1 -0.1)">
       <defs>
        <path id="DejaVuSans-37" d="M 525 4666 
L 3525 4666 
L 3525 4397 
L 1831 0 
L 1172 0 
L 2766 4134 
L 525 4134 
L 525 4666 
z
" transform="scale(0.015625)"/>
       </defs>
       <use xlink:href="#DejaVuSans-32"/>
       <use xlink:href="#DejaVuSans-38" transform="translate(63.623047 0)"/>
       <use xlink:href="#DejaVuSans-34" transform="translate(127.246094 0)"/>
       <use xlink:href="#DejaVuSans-32" transform="translate(190.869141 0)"/>
       <use xlink:href="#DejaVuSans-37" transform="translate(254.492188 0)"/>
       <use xlink:href="#DejaVuSans-30" transform="translate(318.115234 0)"/>
       <use xlink:href="#DejaVuSans-30" transform="translate(381.738281 0)"/>
       <use xlink:href="#DejaVuSans-30" transform="translate(445.361328 0)"/>
      </g>
     </g>
    </g>
    <g id="text_6">
     <!-- MID -->
     <g transform="translate(226.520938 335.860562) scale(0.1 -0.1)">
      <defs>
       <path id="DejaVuSans-4d" d="M 628 4666 
L 1569 4666 
L 2759 1491 
L 3956 4666 
L 4897 4666 
L 4897 0 
L 4281 0 
L 4281 4097 
L 3078 897 
L 2444 897 
L 1241 4097 
L 1241 0 
L 628 0 
L 628 4666 
z
" transform="scale(0.015625)"/>
       <path id="DejaVuSans-49" d="M 628 4666 
L 1259 4666 
L 1259 0 
L 628 0 
L 628 4666 
z
" transform="scale(0.015625)"/>
       <path id="DejaVuSans-44" d="M 1259 4147 
L 1259 519 
L 2022 519 
Q 2988 519 3436 956 
Q 3884 1394 3884 2338 
Q 3884 3275 3436 3711 
Q 2988 4147 2022 4147 
L 1259 4147 
z
M 628 4666 
L 1925 4666 
Q 3281 4666 3915 4102 
Q 4550 3538 4550 2338 
Q 4550 1131 3912 565 
Q 3275 0 1925 0 
L 628 0 
L 628 4666 
z
" transform="scale(0.015625)"/>
      </defs>
      <use xlink:href="#DejaVuSans-4d"/>
      <use xlink:href="#DejaVuSans-49" transform="translate(86.279297 0)"/>
      <use xlink:href="#DejaVuSans-44" transform="translate(115.771484 0)"/>
     </g>
    </g>
   </g>
   <g id="matplotlib.axis_2">
    <g id="ytick_1">
     <g id="line2d_6">
      <defs>
       <path id="m90dcb4d0ee" d="M 0 0 
L -3.5 0 
" style="stroke: #0d78ae; stroke-width: 0.8"/>
      </defs>
      <g>
       <use xlink:href="#m90dcb4d0ee" x="57.6" y="286.048824" style="fill: #0d78ae; stroke: #0d78ae; stroke-width: 0.8"/>
      </g>
     </g>
     <g id="text_7">
      <!-- 60 -->
      <g style="fill: #0d78ae" transform="translate(37.875 289.848043) scale(0.1 -0.1)">
       <use xlink:href="#DejaVuSans-36"/>
       <use xlink:href="#DejaVuSans-30" transform="translate(63.623047 0)"/>
      </g>
     </g>
    </g>
    <g id="ytick_2">
     <g id="line2d_7">
      <g>
       <use xlink:href="#m90dcb4d0ee" x="57.6" y="249.491212" style="fill: #0d78ae; stroke: #0d78ae; stroke-width: 0.8"/>
      </g>
     </g>
     <g id="text_8">
      <!-- 80 -->
      <g style="fill: #0d78ae" transform="translate(37.875 253.290431) scale(0.1 -0.1)">
       <use xlink:href="#DejaVuSans-38"/>
       <use xlink:href="#DejaVuSans-30" transform="translate(63.623047 0)"/>
      </g>
     </g>
    </g>
    <g id="ytick_3">
     <g id="line2d_8">
      <g>
       <use xlink:href="#m90dcb4d0ee" x="57.6" y="212.9336" style="fill: #0d78ae; stroke: #0d78ae; stroke-width: 0.8"/>
      </g>
     </g>
     <g id="text_9">
      <!-- 100 -->
      <g style="fill: #0d78ae" transform="translate(31.5125 216.732818) scale(0.1 -0.1)">
       <defs>
        <path id="DejaVuSans-31" d="M 794 531 
L 1825 531 
L 1825 4091 
L 703 3866 
L 703 4441 
L 1819 4666 
L 2450 4666 
L 2450 531 
L 3481 531 
L 3481 0 
L 794 0 
L 794 531 
z
" transform="scale(0.015625)"/>
       </defs>
       <use xlink:href="#DejaVuSans-31"/>
       <use xlink:href="#DejaVuSans-30" transform="translate(63.623047 0)"/>
       <use xlink:href="#DejaVuSans-30" transform="translate(127.246094 0)"/>
      </g>
     </g>
    </g>
    <g id="ytick_4">
     <g id="line2d_9">
      <g>
       <use xlink:href="#m90dcb4d0ee" x="57.6" y="176.375987" style="fill: #0d78ae; stroke: #0d78ae; stroke-width: 0.8"/>
      </g>
     </g>
     <g id="text_10">
      <!-- 120 -->
      <g style="fill: #0d78ae" transform="translate(31.5125 180.175206) scale(0.1 -0.1)">
       <use xlink:href="#DejaVuSans-31"/>
       <use xlink:href="#DejaVuSans-32" transform="translate(63.623047 0)"/>
       <use xlink:href="#DejaVuSans-30" transform="translate(127.246094 0)"/>
      </g>
     </g>
    </g>
    <g id="ytick_5">
     <g id="line2d_10">
      <g>
       <use xlink:href="#m90dcb4d0ee" x="57.6" y="139.818375" style="fill: #0d78ae; stroke: #0d78ae; stroke-width: 0.8"/>
      </g>
     </g>
     <g id="text_11">
      <!-- 140 -->
      <g style="fill: #0d78ae" transform="translate(31.5125 143.617594) scale(0.1 -0.1)">
       <use xlink:href="#DejaVuSans-31"/>
       <use xlink:href="#DejaVuSans-34" transform="translate(63.623047 0)"/>
       <use xlink:href="#DejaVuSans-30" transform="translate(127.246094 0)"/>
      </g>
     </g>
    </g>
    <g id="ytick_6">
     <g id="line2d_11">
      <g>
       <use xlink:href="#m90dcb4d0ee" x="57.6" y="103.260763" style="fill: #0d78ae; stroke: #0d78ae; stroke-width: 0.8"/>
      </g>
     </g>
     <g id="text_12">
      <!-- 160 -->
      <g style="fill: #0d78ae" transform="translate(31.5125 107.059981) scale(0.1 -0.1)">
       <use xlink:href="#DejaVuSans-31"/>
       <use xlink:href="#DejaVuSans-36" transform="translate(63.623047 0)"/>
       <use xlink:href="#DejaVuSans-30" transform="translate(127.246094 0)"/>
      </g>
     </g>
    </g>
    <g id="ytick_7">
     <g id="line2d_12">
      <g>
       <use xlink:href="#m90dcb4d0ee" x="57.6" y="66.70315" style="fill: #0d78ae; stroke: #0d78ae; stroke-width: 0.8"/>
      </g>
     </g>
     <g id="text_13">
      <!-- 180 -->
      <g style="fill: #0d78ae" transform="translate(31.5125 70.502369) scale(0.1 -0.1)">
       <use xlink:href="#DejaVuSans-31"/>
       <use xlink:href="#DejaVuSans-38" transform="translate(63.623047 0)"/>
       <use xlink:href="#DejaVuSans-30" transform="translate(127.246094 0)"/>
      </g>
     </g>
    </g>
    <g id="text_14">
     <!-- NYSE:AAPL#1d -->
     <g style="fill: #0d78ae" transform="translate(25.432812 212.664719) rotate(-90) scale(0.1 -0.1)">
      <defs>
       <path id="DejaVuSans-4e" d="M 628 4666 
L 1478 4666 
L 3547 763 
L 3547 4666 
L 4159 4666 
L 4159 0 
L 3309 0 
L 1241 3903 
L 1241 0 
L 628 0 
L 628 4666 
z
" transform="scale(0.015625)"/>
       <path id="DejaVuSans-59" d="M -13 4666 
L 666 4666 
L 1959 2747 
L 3244 4666 
L 3922 4666 
L 2272 2222 
L 2272 0 
L 1638 0 
L 1638 2222 
L -13 4666 
z
" transform="scale(0.015625)"/>
       <path id="DejaVuSans-53" d="M 3425 4513 
L 3425 3897 
Q 3066 4069 2747 4153 
Q 2428 4238 2131 4238 
Q 1616 4238 1336 4038 
Q 1056 3838 1056 3469 
Q 1056 3159 1242 3001 
Q 1428 2844 1947 2747 
L 2328 2669 
Q 3034 2534 3370 2195 
Q 3706 1856 3706 1288 
Q 3706 609 3251 259 
Q 2797 -91 1919 -91 
Q 1588 -91 1214 -16 
Q 841 59 441 206 
L 441 856 
Q 825 641 1194 531 
Q 1563 422 1919 422 
Q 2459 422 2753 634 
Q 3047 847 3047 1241 
Q 3047 1584 2836 1778 
Q 2625 1972 2144 2069 
L 1759 2144 
Q 1053 2284 737 2584 
Q 422 2884 422 3419 
Q 422 4038 858 4394 
Q 1294 4750 2059 4750 
Q 2388 4750 2728 4690 
Q 3069 4631 3425 4513 
z
" transform="scale(0.015625)"/>
       <path id="DejaVuSans-45" d="M 628 4666 
L 3578 4666 
L 3578 4134 
L 1259 4134 
L 1259 2753 
L 3481 2753 
L 3481 2222 
L 1259 2222 
L 1259 531 
L 3634 531 
L 3634 0 
L 628 0 
L 628 4666 
z
" transform="scale(0.015625)"/>
       <path id="DejaVuSans-3a" d="M 750 794 
L 1409 794 
L 1409 0 
L 750 0 
L 750 794 
z
M 750 3309 
L 1409 3309 
L 1409 2516 
L 750 2516 
L 750 3309 
z
" transform="scale(0.015625)"/>
       <path id="DejaVuSans-41" d="M 2188 4044 
L 1331 1722 
L 3047 1722 
L 2188 4044 
z
M 1831 4666 
L 2547 4666 
L 4325 0 
L 3669 0 
L 3244 1197 
L 1141 1197 
L 716 0 
L 50 0 
L 1831 4666 
z
" transform="scale(0.015625)"/>
       <path id="DejaVuSans-50" d="M 1259 4147 
L 1259 2394 
L 2053 2394 
Q 2494 2394 2734 2622 
Q 2975 2850 2975 3272 
Q 2975 3691 2734 3919 
Q 2494 4147 2053 4147 
L 1259 4147 
z
M 628 4666 
L 2053 4666 
Q 2838 4666 3239 4311 
Q 3641 3956 3641 3272 
Q 3641 2581 3239 2228 
Q 2838 1875 2053 1875 
L 1259 1875 
L 1259 0 
L 628 0 
L 628 4666 
z
" transform="scale(0.015625)"/>
       <path id="DejaVuSans-4c" d="M 628 4666 
L 1259 4666 
L 1259 531 
L 3531 531 
L 3531 0 
L 628 0 
L 628 4666 
z
" transform="scale(0.015625)"/>
       <path id="DejaVuSans-23" d="M 3272 2816 
L 2363 2816 
L 2100 1772 
L 3016 1772 
L 3272 2816 
z
M 2803 4594 
L 2478 3297 
L 3391 3297 
L 3719 4594 
L 4219 4594 
L 3897 3297 
L 4872 3297 
L 4872 2816 
L 3775 2816 
L 3519 1772 
L 4513 1772 
L 4513 1294 
L 3397 1294 
L 3072 0 
L 2572 0 
L 2894 1294 
L 1978 1294 
L 1656 0 
L 1153 0 
L 1478 1294 
L 494 1294 
L 494 1772 
L 1594 1772 
L 1856 2816 
L 850 2816 
L 850 3297 
L 1978 3297 
L 2297 4594 
L 2803 4594 
z
" transform="scale(0.015625)"/>
       <path id="DejaVuSans-64" d="M 2906 2969 
L 2906 4863 
L 3481 4863 
L 3481 0 
L 2906 0 
L 2906 525 
Q 2725 213 2448 61 
Q 2172 -91 1784 -91 
Q 1150 -91 751 415 
Q 353 922 353 1747 
Q 353 2572 751 3078 
Q 1150 3584 1784 3584 
Q 2172 3584 2448 3432 
Q 2725 3281 2906 2969 
z
M 947 1747 
Q 947 1113 1208 752 
Q 1469 391 1925 391 
Q 2381 391 2643 752 
Q 2906 1113 2906 1747 
Q 2906 2381 2643 2742 
Q 2381 3103 1925 3103 
Q 1469 3103 1208 2742 
Q 947 2381 947 1747 
z
" transform="scale(0.015625)"/>
      </defs>
      <use xlink:href="#DejaVuSans-4e"/>
      <use xlink:href="#DejaVuSans-59" transform="translate(74.804688 0)"/>
      <use xlink:href="#DejaVuSans-53" transform="translate(135.888672 0)"/>
      <use xlink:href="#DejaVuSans-45" transform="translate(199.365234 0)"/>
      <use xlink:href="#DejaVuSans-3a" transform="translate(262.548828 0)"/>
      <use xlink:href="#DejaVuSans-41" transform="translate(296.240234 0)"/>
      <use xlink:href="#DejaVuSans-41" transform="translate(367.398438 0)"/>
      <use xlink:href="#DejaVuSans-50" transform="translate(435.806641 0)"/>
      <use xlink:href="#DejaVuSans-4c" transform="translate(496.109375 0)"/>
      <use xlink:href="#DejaVuSans-23" transform="translate(551.822266 0)"/>
      <use xlink:href="#DejaVuSans-31" transform="translate(635.611328 0)"/>
      <use xlink:href="#DejaVuSans-64" transform="translate(699.234375 0)"/>
     </g>
    </g>
   </g>
   <g id="line2d_13">
    <path d="M 244.45006 292.7279 
L 244.686919 292.724245 
L 245.002731 292.612744 
L 245.397496 292.594465 
L 245.555401 292.618227 
L 245.713307 292.526833 
L 246.029119 292.749835 
L 246.265978 294.084188 
L 246.502837 294.330952 
L 246.58179 294.334607 
L 246.660743 294.029351 
L 246.739696 294.100639 
L 246.976555 293.864842 
L 247.213414 294.299878 
L 247.450272 294.862865 
L 247.608178 294.886627 
L 247.845037 294.97071 
L 247.92399 295.15167 
L 248.081896 294.945119 
L 248.476661 295.475205 
L 249.187237 295.049309 
L 249.26619 295.016407 
L 249.503049 294.601478 
L 249.739908 294.632552 
L 249.897814 294.5046 
L 250.134673 294.769643 
L 250.292579 294.632552 
L 250.529438 294.369337 
L 250.687343 294.35837 
L 250.845249 294.40955 
L 250.924202 294.341919 
L 251.161061 294.603306 
L 251.240014 294.652659 
L 251.476873 294.279771 
L 251.713732 294.230418 
L 251.792685 294.171926 
L 252.029544 294.305361 
L 252.18745 294.230418 
L 252.345356 294.266976 
L 252.661167 294.192033 
L 252.976979 294.285255 
L 253.292791 293.788071 
L 253.450697 293.778932 
L 253.608603 293.661947 
L 253.845462 293.773448 
L 254.319179 293.950752 
L 254.950803 293.526684 
L 255.108709 293.544963 
L 255.266615 293.581521 
L 256.056144 293.480987 
L 256.845674 293.554102 
L 257.161486 293.839252 
L 258.819498 293.923334 
L 259.056357 293.722267 
L 259.530074 293.872154 
L 259.766933 294.067737 
L 260.003792 294.049458 
L 260.240651 294.064081 
L 260.47751 294.053114 
L 261.661804 294.067737 
L 261.977616 293.895916 
L 262.214475 293.9014 
L 262.767145 293.703989 
L 263.556675 293.919678 
L 263.714581 293.947097 
L 263.872487 293.996449 
L 264.109346 293.996449 
L 264.346204 294.102466 
L 266.320028 293.998277 
L 266.477934 294.14268 
L 266.872699 293.859358 
L 267.109558 293.89226 
L 267.42537 293.654636 
L 267.741181 293.638185 
L 267.97804 293.705816 
L 268.214899 293.689365 
L 268.925476 293.523028 
L 269.478146 293.323789 
L 269.636052 293.292715 
L 269.872911 293.111755 
L 270.030817 293.175731 
L 270.188723 293.027673 
L 270.741394 292.991115 
L 270.8993 292.938107 
L 271.45197 293.087993 
L 272.320453 293.353035 
L 272.478359 293.484643 
L 272.715218 293.475503 
L 273.267888 293.683882 
L 273.504747 293.597971 
L 273.662653 293.629045 
L 274.215324 293.877637 
L 275.083806 293.532168 
L 276.031242 293.292715 
L 276.2681 293.062402 
L 276.504959 293.214117 
L 277.84716 293.55593 
L 278.162971 293.385937 
L 278.320877 293.50475 
L 278.478783 293.437118 
L 278.557736 293.501094 
L 278.715642 293.354863 
L 278.794595 293.799038 
L 278.952501 293.391421 
L 279.584125 293.480987 
L 279.663077 293.325617 
L 279.74203 293.411528 
L 281.478995 293.336585 
L 281.952713 293.353035 
L 282.268525 293.323789 
L 283.452819 293.327445 
L 283.768631 293.345724 
L 285.742455 293.453569 
L 286.058267 293.479159 
L 287.084655 293.579693 
L 287.400467 293.566897 
L 287.716279 293.464536 
L 288.505808 293.442602 
L 288.742667 293.451741 
L 289.058479 293.455397 
L 291.506021 293.535823 
L 291.742879 293.588832 
L 292.137644 293.563242 
L 293.400891 293.603455 
L 295.058903 293.501094 
L 295.927386 293.47002 
L 333.587945 293.47002 
L 333.745851 291.958363 
L 333.824804 291.958363 
L 333.98271 292.216094 
L 334.140615 292.133839 
L 334.298521 292.159429 
L 334.456427 292.031478 
L 334.53538 292.05524 
L 334.693286 291.971158 
L 335.245957 291.991264 
L 335.561769 291.923633 
L 335.87758 291.958363 
L 336.193392 291.881592 
L 336.903969 291.609237 
L 337.377687 291.810304 
L 341.325334 291.746328 
L 341.641146 291.616549 
L 343.378111 291.519671 
L 344.404499 291.406343 
L 345.904606 291.340539 
L 346.062511 291.263768 
L 346.615182 291.358818 
L 347.246806 291.333227 
L 347.483665 291.430105 
L 347.799476 291.360646 
L 347.878429 291.51236 
L 347.957382 291.437417 
L 348.194241 291.698803 
L 348.4311 291.627516 
L 348.746912 291.620205 
L 349.22063 291.601926 
L 349.457489 291.585475 
L 350.325971 291.366129 
L 350.957595 291.033455 
L 351.194453 291.108398 
L 351.352359 291.062701 
L 351.589218 290.929266 
L 351.826077 290.905503 
L 352.536654 291.000553 
L 352.773513 292.086314 
L 353.089324 291.013348 
L 354.273619 291.015176 
L 354.826289 290.761101 
L 355.457913 290.713576 
L 355.615819 290.762929 
L 355.773725 290.746478 
L 356.16849 290.903675 
L 356.405348 290.927438 
L 356.72116 290.927438 
L 356.958019 290.943889 
L 357.194878 291.040766 
L 357.51069 290.764756 
L 357.747549 290.878085 
L 358.142313 290.901848 
L 359.010796 291.051734 
L 359.247655 290.83056 
L 359.484514 290.976791 
L 359.721372 291.073668 
L 359.879278 291.558057 
L 360.19509 290.836044 
L 360.352996 290.940233 
L 360.510902 290.717232 
L 360.668808 290.755617 
L 361.063573 290.8397 
L 361.53729 291.181513 
L 361.616243 291.186997 
L 361.774149 291.29667 
L 362.089961 291.26194 
L 362.32682 291.589131 
L 362.405773 291.450212 
L 362.721585 291.367957 
L 362.879491 291.378924 
L 363.037397 291.225382 
L 363.274255 291.221727 
L 363.590067 291.007865 
L 363.826926 291.049906 
L 363.905879 291.004209 
L 364.063785 291.179685 
L 364.537503 291.210759 
L 364.616456 291.336883 
L 364.695409 291.280219 
L 364.932267 290.958512 
L 365.090173 290.973135 
L 365.405985 291.009692 
L 365.563891 290.982274 
L 366.037609 290.574657 
L 366.353421 290.552722 
L 366.432374 290.517993 
L 366.669232 290.790347 
L 366.827138 290.823249 
L 367.221903 291.051734 
L 367.853527 290.784863 
L 368.090386 290.896364 
L 368.722009 290.58928 
L 369.432586 290.561862 
L 370.61688 290.976791 
L 370.932692 290.751961 
L 371.564316 290.671535 
L 371.722221 291.002381 
L 371.801174 290.817765 
L 371.95908 291.144956 
L 372.116986 291.1413 
L 372.432798 291.678697 
L 372.590704 291.760951 
L 372.906516 291.444728 
L 373.459186 291.722566 
L 373.538139 291.715254 
L 373.774998 291.516015 
L 374.011857 291.592786 
L 374.169763 291.662246 
L 374.406622 291.680525 
L 375.511963 291.450212 
L 375.906728 291.675041 
L 376.22254 291.627516 
L 376.380446 291.802993 
L 376.538352 291.711599 
L 377.248928 292.477481 
L 377.406834 292.464685 
L 377.880552 292.802843 
L 378.038458 293.047779 
L 378.196364 292.78822 
L 378.35427 292.927139 
L 378.512175 292.768114 
L 378.670081 292.757146 
L 379.301705 292.272758 
L 379.775423 292.053412 
L 380.170187 292.044273 
L 380.643905 292.201471 
L 380.801811 292.117388 
L 380.959717 291.930944 
L 381.196576 291.863313 
L 381.433435 291.821271 
L 381.670294 291.81396 
L 381.749247 291.762779 
L 381.907152 291.81396 
L 382.222964 291.675041 
L 382.38087 291.717082 
L 382.538776 291.921805 
L 382.775635 291.832239 
L 383.091447 291.607409 
L 383.249353 291.589131 
L 383.565164 291.547089 
L 383.802023 291.590959 
L 383.959929 291.581819 
L 384.354694 291.762779 
L 384.5126 291.740845 
L 384.749459 291.940084 
L 385.381082 291.642139 
L 385.538988 291.675041 
L 386.170612 291.824927 
L 386.64433 291.777402 
L 386.881189 291.896215 
L 387.197 291.845034 
L 387.591765 291.804821 
L 387.828624 291.841378 
L 387.98653 291.832239 
L 388.223389 291.616549 
L 388.460248 291.585475 
L 388.618154 291.590959 
L 388.855012 291.662246 
L 389.012918 291.698803 
L 389.486636 291.536122 
L 389.644542 291.543434 
L 389.881401 291.260112 
L 390.355119 291.384408 
L 390.591977 291.367957 
L 390.828836 291.419138 
L 391.065695 291.057217 
L 391.144648 291.062701 
L 391.302554 291.208931 
L 391.697319 291.185169 
L 391.934178 291.01152 
L 392.092083 291.10657 
L 393.118472 291.150439 
L 393.355331 291.112054 
L 393.59219 291.152267 
L 394.618578 290.987758 
L 394.697531 291.324088 
L 394.855437 290.949372 
L 395.171249 290.907331 
L 395.250202 285.701527 
L 395.329155 290.927438 
L 395.408108 285.036179 
L 395.566013 290.538099 
L 395.644966 290.351655 
L 395.723919 290.883569 
L 395.802872 290.867118 
L 396.197637 290.817765 
L 396.592402 290.86529 
L 397.06612 290.762929 
L 398.092508 290.792175 
L 398.487273 290.848839 
L 398.487273 290.848839 
" clip-path="url(#p2ab3841321)" style="fill: none; stroke: #66159c; stroke-width: 1.5; stroke-linecap: square"/>
   </g>
   <g id="line2d_14">
    <path d="M 73.832727 63.104053 
L 106.361344 63.104053 
L 106.440297 62.884708 
L 106.51925 62.923093 
L 106.914015 63.782197 
L 107.150874 63.765746 
L 107.30878 63.932083 
L 107.624591 63.893698 
L 107.86145 63.751123 
L 107.940403 63.751123 
L 108.098309 63.573819 
L 108.493074 63.46049 
L 108.65098 63.354473 
L 110.387945 63.407481 
L 110.545851 63.230177 
L 111.177474 63.169857 
L 112.519675 63.250284 
L 112.67758 63.257595 
L 113.072345 63.323399 
L 113.309204 63.40017 
L 113.46711 63.40017 
L 113.625016 63.513498 
L 114.730357 63.577474 
L 114.967216 63.650589 
L 116.230463 63.582958 
L 116.388369 63.465974 
L 116.467322 63.465974 
L 116.625228 63.595753 
L 116.94104 63.595753 
L 117.098946 63.317915 
L 118.520099 63.233833 
L 118.678005 63.065668 
L 119.07277 63.065668 
L 119.230676 62.948683 
L 119.546487 62.912126 
L 119.704393 62.912126 
L 119.862299 62.764067 
L 120.41497 62.764067 
L 120.651829 62.438705 
L 120.730782 62.53741 
L 120.888688 62.396663 
L 121.125547 62.552033 
L 121.441358 62.659878 
L 121.520311 62.756756 
L 121.678217 62.605042 
L 121.994029 62.623321 
L 122.309841 62.272368 
L 123.020417 62.374729 
L 123.257276 62.570312 
L 123.336229 62.570312 
L 123.494135 62.389352 
L 123.652041 62.561173 
L 123.8889 62.760412 
L 124.204712 62.775035 
L 124.915288 62.88288 
L 125.073194 62.469779 
L 125.152147 62.552033 
L 125.2311 60.453626 
L 125.389006 62.857289 
L 125.546912 62.378385 
L 125.783771 62.674501 
L 126.178536 62.824387 
L 126.336441 62.723854 
L 126.494347 60.367716 
L 126.652253 62.974274 
L 127.047018 63.078463 
L 127.283877 63.378235 
L 127.441783 63.465974 
L 127.520736 63.369096 
L 127.678642 63.70177 
L 127.994453 63.723705 
L 128.152359 63.487908 
L 128.310265 63.732844 
L 128.468171 63.731016 
L 128.626077 63.88273 
L 128.70503 63.95219 
L 128.862936 64.368947 
L 129.178748 64.370774 
L 129.257701 64.304971 
L 129.415607 64.337873 
L 129.49456 64.237339 
L 129.652466 64.46948 
L 129.889324 64.337873 
L 130.04723 64.231856 
L 130.757807 64.017994 
L 130.915713 63.94305 
L 131.073619 63.924772 
L 131.152572 63.241144 
L 131.310478 63.793164 
L 131.784195 64.049067 
L 131.942101 64.400021 
L 132.021054 64.226372 
L 132.100007 64.312282 
L 132.17896 64.566358 
L 132.257913 64.471308 
L 132.336866 64.465824 
L 132.494772 65.27192 
L 132.652678 65.681365 
L 132.889537 65.131173 
L 132.96849 65.374281 
L 133.047443 65.568036 
L 133.284301 65.354174 
L 133.442207 65.977482 
L 133.52116 65.765447 
L 133.679066 65.575348 
L 133.758019 65.774587 
L 134.152784 64.16788 
L 134.31069 64.782048 
L 134.468596 64.928278 
L 134.626502 64.458513 
L 134.784407 64.240995 
L 134.86336 64.407332 
L 135.021266 63.813271 
L 135.100219 63.98692 
L 135.179172 63.908321 
L 135.258125 63.756607 
L 135.337078 64.027133 
L 135.416031 63.906493 
L 135.494984 64.136806 
L 135.573937 63.930255 
L 135.65289 63.992403 
L 135.731843 63.910149 
L 135.889749 63.451351 
L 136.047655 63.665213 
L 136.205561 63.42576 
L 136.44242 64.027133 
L 136.521372 63.961329 
L 136.600325 64.052723 
L 136.679278 63.818755 
L 136.758231 63.954018 
L 136.916137 63.449523 
L 136.99509 63.52081 
L 137.074043 63.747467 
L 137.152996 63.654245 
L 137.310902 63.738328 
L 137.389855 63.738328 
L 137.547761 64.15874 
L 137.942526 63.445867 
L 138.179385 63.67618 
L 138.258337 63.807787 
L 138.416243 63.484252 
L 138.574149 63.729188 
L 138.653102 63.593925 
L 138.732055 63.665213 
L 138.968914 63.915632 
L 139.12682 64.078314 
L 139.284726 64.076486 
L 139.442632 63.827894 
L 139.916349 63.285013 
L 140.311114 63.224693 
L 140.390067 63.051045 
L 140.46902 63.12416 
L 140.784832 63.668868 
L 140.863785 63.551884 
L 140.942738 63.617688 
L 141.337503 63.226521 
L 141.969126 63.416621 
L 142.048079 63.288669 
L 142.127032 63.359956 
L 142.205985 63.263079 
L 142.442844 63.489736 
L 142.758656 63.64145 
L 142.916562 63.66704 
L 143.074468 63.604892 
L 143.232374 63.683491 
L 143.390279 63.522638 
L 143.627138 63.911976 
L 143.863997 63.85714 
L 144.100856 63.584786 
L 144.258762 63.281358 
L 144.416668 63.449523 
L 144.653527 63.286841 
L 144.811433 63.253939 
L 144.969339 63.285013 
L 145.206197 62.795141 
L 145.443056 62.743961 
L 145.679915 62.840838 
L 145.758868 62.539238 
L 145.837821 62.645255 
L 145.995727 62.796969 
L 146.07468 62.818904 
L 146.153633 62.714715 
L 146.390492 62.910298 
L 146.785256 62.760412 
L 147.022115 62.881052 
L 147.258974 62.96879 
L 147.890598 63.292325 
L 148.364316 62.707403 
L 148.522221 62.678157 
L 149.390704 62.2614 
L 149.469657 62.244949 
L 149.785469 62.617837 
L 149.943375 62.515476 
L 150.259186 62.890191 
L 150.496045 62.966962 
L 150.574998 63.168029 
L 150.653951 63.107709 
L 150.969763 62.972446 
L 151.048716 62.81342 
L 151.127669 62.879224 
L 151.206622 62.88288 
L 151.443481 63.968641 
L 151.601387 63.568335 
L 151.759293 63.453178 
L 151.838245 63.321571 
L 151.996151 63.535433 
L 152.23301 63.4349 
L 152.311963 63.473285 
L 152.469869 63.294153 
L 152.785681 63.449523 
L 153.180446 62.824387 
L 153.338352 62.952339 
L 153.417305 63.072979 
L 153.57521 62.913954 
L 153.812069 62.623321 
L 153.891022 62.729338 
L 154.36474 62.77869 
L 154.601599 62.824387 
L 154.917411 62.954167 
L 154.996364 62.915781 
L 155.391128 62.283335 
L 155.943799 62.100547 
L 156.101705 61.888513 
L 156.338564 62.617837 
L 156.49647 62.564828 
L 156.575423 62.550205 
L 156.654376 62.742133 
L 156.733329 62.65805 
L 157.128093 62.570312 
L 157.207046 62.425909 
L 157.285999 62.473434 
L 157.443905 62.466123 
L 157.522858 62.648911 
L 157.601811 62.564828 
L 158.391341 62.661706 
L 158.6282 62.870084 
L 158.865058 62.654395 
L 158.944011 62.290646 
L 159.022964 62.557517 
L 159.101917 62.480746 
L 159.18087 62.444188 
L 159.338776 62.734821 
L 159.417729 62.603214 
L 159.575635 62.711059 
L 159.9704 62.497197 
L 160.207259 62.731166 
L 160.365164 62.839011 
L 160.52307 62.723854 
L 161.707365 61.866578 
L 162.023177 62.087752 
L 162.102129 62.085924 
L 162.575847 61.555838 
L 162.970612 61.533904 
L 163.207471 61.83916 
L 163.365377 61.806258 
L 163.523283 61.855611 
L 163.681189 61.98539 
L 163.760141 62.003669 
L 163.839094 61.815397 
L 163.918047 61.989046 
L 164.075953 61.809914 
L 164.154906 62.042055 
L 164.233859 62.012808 
L 164.628624 62.001841 
L 164.707577 61.806258 
L 164.944436 62.043882 
L 166.12873 62.010981 
L 166.207683 61.819053 
L 166.286636 62.027432 
L 166.444542 61.320042 
L 166.839307 61.320042 
L 166.997213 62.010981 
L 167.155119 61.903136 
L 167.786742 61.963456 
L 167.944648 62.071301 
L 168.892083 62.151727 
L 169.523707 62.371073 
L 171.418578 62.339999 
L 171.576484 62.38204 
L 171.813343 62.290646 
L 172.050202 62.22667 
L 172.28706 62.378385 
L 172.681825 62.316237 
L 172.760778 62.230326 
L 172.918684 62.352794 
L 173.550308 62.409459 
L 173.787167 62.478918 
L 174.024025 62.266884 
L 174.181931 62.155383 
L 176.708426 62.195597 
L 176.866332 62.294302 
L 177.103191 62.279679 
L 177.261097 62.208392 
L 178.129579 62.259572 
L 178.287485 62.372901 
L 178.445391 62.215703 
L 178.524344 62.383868 
L 178.68225 62.2614 
L 178.998062 62.2614 
L 179.155967 62.409459 
L 179.313873 62.478918 
L 179.471779 62.584935 
L 179.629685 62.552033 
L 179.787591 62.402147 
L 180.103403 62.378385 
L 180.340262 62.424082 
L 180.735027 62.314409 
L 180.892932 62.252261 
L 181.208744 62.285163 
L 181.682462 62.190113 
L 182.077227 62.193769 
L 219.895692 62.193769 
L 220.053597 61.713036 
L 220.211503 61.639921 
L 220.290456 61.661855 
L 220.369409 61.961628 
L 220.448362 61.914103 
L 220.764174 61.930554 
L 220.843127 61.930554 
L 220.92208 61.802602 
L 221.079986 61.941521 
L 221.790562 62.051194 
L 221.869515 62.135276 
L 221.948468 62.029259 
L 222.185327 62.118826 
L 222.422186 62.118826 
L 222.580092 62.265056 
L 222.895904 62.217531 
L 223.05381 62.272368 
L 223.290669 62.22667 
L 223.448574 62.307097 
L 223.527527 62.307097 
L 223.685433 62.133449 
L 223.922292 62.20108 
L 224.159151 62.347311 
L 224.238104 62.347311 
L 224.474963 62.645255 
L 224.869728 62.645255 
L 225.027634 62.506336 
L 225.106586 62.506336 
L 225.343445 62.685469 
L 225.501351 62.687296 
L 225.659257 62.806109 
L 225.817163 62.723854 
L 226.369834 62.694608 
L 226.448787 62.394836 
L 226.52774 62.50268 
L 228.106799 62.394836 
L 228.343658 62.288818 
L 228.817375 62.288818 
L 228.975281 62.168178 
L 229.291093 62.060333 
L 229.448999 62.036571 
L 229.527952 61.265205 
L 229.764811 56.881948 
L 229.843764 56.883775 
L 230.238528 55.989942 
L 230.317481 56.130689 
L 230.396434 56.520027 
L 230.55434 56.072196 
L 230.633293 56.410354 
L 230.712246 56.366485 
L 230.791199 56.456051 
L 230.949105 56.011876 
L 231.107011 56.108754 
L 231.185964 56.264124 
L 231.422823 55.748662 
L 231.501776 55.867474 
L 231.580729 55.757801 
L 232.054446 56.390248 
L 232.133399 56.317132 
L 232.370258 55.814465 
L 232.528164 55.885753 
L 232.68607 55.547595 
L 232.765023 55.518349 
L 232.922929 55.609743 
L 233.080835 55.624366 
L 233.396647 55.905859 
L 233.554553 55.843711 
L 233.870364 56.154451 
L 234.02827 56.201976 
L 234.107223 55.980802 
L 234.186176 56.253157 
L 234.265129 56.20746 
L 234.423035 56.254985 
L 234.501988 56.339067 
L 234.738847 55.796186 
L 234.896753 55.856507 
L 235.133612 55.640817 
L 235.291518 55.638989 
L 235.528376 55.783391 
L 236.002094 56.074024 
L 236.081047 56.044778 
L 236.16 56.260468 
L 236.238953 55.878441 
L 236.396859 56.159935 
L 236.712671 55.99177 
L 236.870577 55.549423 
L 237.107435 55.470824 
L 237.896965 54.032282 
L 237.975918 54.041421 
L 238.449636 53.568 
L 238.686495 53.895191 
L 238.8444 53.968306 
L 239.160212 60.815547 
L 239.318118 54.332054 
L 239.476024 54.14561 
L 239.554977 61.570461 
L 239.63393 54.163889 
L 239.712883 54.32657 
L 239.791836 54.249799 
L 240.028695 54.547744 
L 240.581365 54.620859 
L 240.739271 54.575162 
L 240.897177 54.587957 
L 241.055083 54.714081 
L 241.212989 54.799992 
L 241.291942 55.081485 
L 241.370895 55.044928 
L 241.686707 54.37044 
L 241.76566 54.220553 
L 241.844613 54.290013 
L 242.002519 54.308292 
L 242.239377 55.032132 
L 242.31833 54.959017 
L 242.476236 55.220404 
L 242.634142 55.026649 
L 242.792048 55.308142 
L 242.871001 55.437922 
L 242.949954 55.37029 
L 243.10786 55.244167 
L 243.265766 55.571357 
L 243.423672 55.441578 
L 243.581578 55.739522 
L 243.660531 55.633505 
L 243.818437 54.944394 
L 243.897389 54.969984 
L 244.055295 55.035788 
L 244.213201 54.651933 
L 244.45006 54.5514 
L 244.45006 54.5514 
" clip-path="url(#p2ab3841321)" style="fill: none; stroke: #0d78ae; stroke-width: 1.5; stroke-linecap: square"/>
   </g>
   <g id="patch_19">
    <path d="M 57.6 307.584 
L 57.6 41.472 
" style="fill: none; stroke: #000000; stroke-width: 0.8; stroke-linejoin: miter; stroke-linecap: square"/>
   </g>
   <g id="patch_20">
    <path d="M 414.72 307.584 
L 414.72 41.472 
" style="fill: none; stroke: #000000; stroke-width: 0.8; stroke-linejoin: miter; stroke-linecap: square"/>
   </g>
   <g id="patch_21">
    <path d="M 57.6 307.584 
L 414.72 307.584 
" style="fill: none; stroke: #000000; stroke-width: 0.8; stroke-linejoin: miter; stroke-linecap: square"/>
   </g>
   <g id="patch_22">
    <path d="M 57.6 41.472 
L 414.72 41.472 
" style="fill: none; stroke: #000000; stroke-width: 0.8; stroke-linejoin: miter; stroke-linecap: square"/>
   </g>
  </g>
 </g>
 <defs>
  <clipPath id="p2ab3841321">
   <rect x="57.6" y="41.472" width="357.12" height="266.112"/>
  </clipPath>
 </defs>
</svg>
