<svg xmlns="http://www.w3.org/2000/svg" width="832" height="944" class="svgbob"><style>.svgbob line, .svgbob path, .svgbob circle, .svgbob rect, .svgbob polygon {
    stroke: black;
    stroke-width: 2;
    stroke-opacity: 1;
    fill-opacity: 1;
    stroke-linecap: round;
    stroke-linejoin: miter;
}
.svgbob text {
    white-space: pre;
    fill: black;
    font-family: Iosevka Fixed, monospace;
    font-size: 14px;
}
.svgbob rect.backdrop {
    stroke: none;
    fill: white;
}
.svgbob .broken {
    stroke-dasharray: 8;
}
.svgbob .filled {
    fill: black;
}
.svgbob .bg_filled {
    fill: white;
    stroke-width: 1;
}
.svgbob .nofill {
    fill: white;
}
.svgbob .end_marked_arrow {
    marker-end: url(#arrow);
}
.svgbob .start_marked_arrow {
    marker-start: url(#arrow);
}
.svgbob .end_marked_diamond {
    marker-end: url(#diamond);
}
.svgbob .start_marked_diamond {
    marker-start: url(#diamond);
}
.svgbob .end_marked_circle {
    marker-end: url(#circle);
}
.svgbob .start_marked_circle {
    marker-start: url(#circle);
}
.svgbob .end_marked_open_circle {
    marker-end: url(#open_circle);
}
.svgbob .start_marked_open_circle {
    marker-start: url(#open_circle);
}
.svgbob .end_marked_big_open_circle {
    marker-end: url(#big_open_circle);
}
.svgbob .start_marked_big_open_circle {
    marker-start: url(#big_open_circle);
}<!--separator--></style><defs><marker id="arrow" viewBox="-2 -2 8 8" refX="4" refY="2" markerWidth="7" markerHeight="7" orient="auto-start-reverse"><polygon points="0,0 0,4 4,2 0,0"></polygon></marker><marker id="diamond" viewBox="-2 -2 8 8" refX="4" refY="2" markerWidth="7" markerHeight="7" orient="auto-start-reverse"><polygon points="0,2 2,0 4,2 2,4 0,2"></polygon></marker><marker id="circle" viewBox="0 0 8 8" refX="4" refY="4" markerWidth="7" markerHeight="7" orient="auto-start-reverse"><circle cx="4" cy="4" r="2" class="filled"></circle></marker><marker id="open_circle" viewBox="0 0 8 8" refX="4" refY="4" markerWidth="7" markerHeight="7" orient="auto-start-reverse"><circle cx="4" cy="4" r="2" class="bg_filled"></circle></marker><marker id="big_open_circle" viewBox="0 0 8 8" refX="4" refY="4" markerWidth="7" markerHeight="7" orient="auto-start-reverse"><circle cx="4" cy="4" r="3" class="bg_filled"></circle></marker></defs><rect class="backdrop" x="0" y="0" width="832" height="944"></rect><rect x="4" y="8" width="816" height="672" class="solid nofill" rx="0"></rect><rect x="20" y="56" width="696" height="112" class="solid nofill" rx="0"></rect><text x="34" y="76" >Allocation</text><text x="122" y="76" >sequence</text><text x="194" y="76" >:</text><text x="58" y="108" >Call</text><text x="98" y="108" >strategies</text><text x="266" y="108" >Dispatch</text><text x="338" y="108" >money</text><text x="458" y="108" >Create</text><text x="514" y="108" >trade</text><text x="562" y="108" >sequences</text><text x="58" y="124" >detectors</text><line x1="136" y1="120" x2="144" y2="120" class="solid"></line><polygon points="144,116 152,120 144,124" class="filled"></polygon><text x="162" y="124" >get</text><polygon points="240,116 248,120 240,124" class="filled"></polygon><text x="266" y="124" >on</text><text x="290" y="124" >strategies</text><polygon points="432,116 440,120 432,124" class="filled"></polygon><text x="458" y="124" >from</text><text x="498" y="124" >trading</text><text x="562" y="124" >parameters</text><text x="58" y="140" >predicted</text><text x="138" y="140" >returns</text><text x="266" y="140" >that</text><text x="306" y="140" >detected.</text><text x="458" y="140" >of</text><text x="482" y="140" >strategies</text><text x="570" y="140" >that</text><text x="610" y="140" >detected.</text><line x1="104" y1="168" x2="112" y2="168" class="solid"></line><line x1="352" y1="168" x2="360" y2="168" class="solid"></line><line x1="456" y1="168" x2="464" y2="168" class="solid"></line><line x1="568" y1="168" x2="576" y2="168" class="solid"></line><rect x="308" y="504" width="248" height="96" class="solid nofill" rx="0"></rect><line x1="352" y1="504" x2="360" y2="504" class="solid"></line><line x1="480" y1="504" x2="488" y2="504" class="solid"></line><text x="378" y="524" >Portfolio</text><polygon points="352,532 360,532 356,544" class="filled"></polygon><polygon points="480,532 488,532 484,544" class="filled"></polygon><text x="346" y="556" >Wallet</text><text x="442" y="556" >Order</text><text x="490" y="556" >list</text><line x1="556" y1="544" x2="556" y2="560" class="solid"></line><rect x="36" y="536" width="112" height="48" class="solid nofill" rx="0"></rect><text x="50" y="556" >simulation</text><text x="58" y="572" >provider</text><rect x="164" y="536" width="112" height="48" class="solid nofill" rx="0"></rect><text x="178" y="556" >file</text><text x="218" y="556" >system</text><text x="194" y="572" >storage</text><rect x="588" y="536" width="112" height="48" class="solid nofill" rx="0"></rect><text x="602" y="556" >simulation</text><text x="618" y="572" >broker</text><rect x="468" y="344" width="32" height="32" class="solid nofill" rx="0"></rect><text x="474" y="364" >BUY</text><rect x="532" y="344" width="32" height="32" class="solid nofill" rx="0"></rect><text x="538" y="364" >MON</text><rect x="596" y="344" width="32" height="32" class="solid nofill" rx="0"></rect><text x="602" y="364" >TRG</text><rect x="660" y="344" width="32" height="32" class="solid nofill" rx="0"></rect><text x="666" y="364" >SEL</text><rect x="724" y="344" width="32" height="32" class="solid nofill" rx="0"></rect><text x="730" y="364" >DON</text><text x="18" y="28" >Bot</text><text x="50" y="28" >core</text><text x="90" y="28" >:</text><text x="106" y="28" >C</text><text x="114" y="204" >Queries</text><polygon points="568,228 576,228 572,240" class="filled"></polygon><text x="34" y="284" >Strategy</text><text x="466" y="284" >Active</text><text x="522" y="284" >trade</text><text x="570" y="284" >sequence</text><text x="642" y="284" >FSM</text><polygon points="104,292 112,292 108,304" class="filled"></polygon><text x="50" y="316" >Detector</text><text x="154" y="316" >Trading</text><polygon points="248,308 240,312 248,316" class="filled"></polygon><text x="154" y="332" >parameters</text><text x="82" y="428" >Reads</text><text x="490" y="476" >Creates</text><polygon points="72,500 80,500 76,512" class="filled"></polygon><text x="34" y="524" >local</text><text x="82" y="524" >provider</text><text x="586" y="524" >local</text><text x="634" y="524" >broker</text><line x1="536" y1="552" x2="568" y2="552" class="solid"></line><polygon points="568,548 576,552 568,556" class="filled"></polygon><text x="50" y="620" >Remote</text><text x="106" y="620" >provider</text><text x="178" y="620" >interface</text><line x1="144" y1="680" x2="152" y2="680" class="solid"></line><line x1="256" y1="680" x2="264" y2="680" class="solid"></line><text x="306" y="188" >Reads</text><text x="474" y="188" >Reads</text><text x="586" y="188" >Creates</text><text x="714" y="668" >language</text><text x="786" y="668" >:</text><text x="802" y="668" >C</text><polygon points="672,324 680,324 676,336" class="filled"></polygon><line x1="504" y1="360" x2="520" y2="360" class="solid"></line><polygon points="520,356 528,360 520,364" class="filled"></polygon><line x1="568" y1="360" x2="584" y2="360" class="solid"></line><polygon points="584,356 592,360 584,364" class="filled"></polygon><line x1="632" y1="360" x2="648" y2="360" class="solid"></line><polygon points="648,356 656,360 648,364" class="filled"></polygon><line x1="696" y1="360" x2="712" y2="360" class="solid"></line><polygon points="712,356 720,360 712,364" class="filled"></polygon><polygon points="736,396 740,384 744,396" class="filled"></polygon><text x="554" y="476" >and</text><text x="586" y="476" >monitors</text><rect x="4" y="712" width="816" height="96" class="solid nofill" rx="0"></rect><line x1="144" y1="712" x2="152" y2="712" class="solid"></line><line x1="256" y1="712" x2="264" y2="712" class="solid"></line><text x="18" y="732" >Bot</text><text x="50" y="732" >connectors</text><polygon points="144,740 152,740 148,752" class="filled"></polygon><polygon points="256,740 264,740 260,752" class="filled"></polygon><text x="50" y="764" >provider</text><text x="122" y="764" >0</text><text x="138" y="764" >connector</text><text x="250" y="764" >provider</text><text x="322" y="764" >1</text><text x="338" y="764" >connector</text><line x1="144" y1="808" x2="152" y2="808" class="solid"></line><line x1="256" y1="808" x2="264" y2="808" class="solid"></line><text x="698" y="796" >language</text><text x="770" y="796" >:</text><text x="786" y="796" >any</text><rect x="4" y="840" width="816" height="80" class="solid nofill" rx="0"></rect><line x1="144" y1="840" x2="152" y2="840" class="solid"></line><line x1="256" y1="840" x2="264" y2="840" class="solid"></line><polygon points="144,852 152,852 148,864" class="filled"></polygon><polygon points="256,852 264,852 260,864" class="filled"></polygon><text x="34" y="876" >provider</text><text x="106" y="876" >0</text><text x="122" y="876" >:</text><text x="138" y="876" >polgyonio</text><text x="250" y="876" >provider</text><text x="322" y="876" >0</text><text x="338" y="876" >:</text><text x="354" y="876" >yahoo</text><text x="18" y="908" >External</text><text x="90" y="908" >entities</text><g><line x1="44" y1="88" x2="204" y2="88" class="solid"></line><line x1="44" y1="88" x2="44" y2="152" class="solid"></line><line x1="204" y1="88" x2="204" y2="152" class="solid"></line><line x1="204" y1="120" x2="240" y2="120" class="solid"></line><line x1="44" y1="152" x2="204" y2="152" class="solid"></line><line x1="108" y1="152" x2="108" y2="292" class="solid"></line></g><g><line x1="252" y1="88" x2="396" y2="88" class="solid"></line><line x1="252" y1="88" x2="252" y2="152" class="solid"></line><line x1="396" y1="88" x2="396" y2="152" class="solid"></line><line x1="396" y1="120" x2="432" y2="120" class="solid"></line><line x1="252" y1="152" x2="396" y2="152" class="solid"></line><line x1="356" y1="152" x2="356" y2="532" class="solid"></line></g><g><line x1="444" y1="88" x2="692" y2="88" class="solid"></line><line x1="444" y1="88" x2="444" y2="152" class="solid"></line><line x1="692" y1="88" x2="692" y2="152" class="solid"></line><line x1="444" y1="152" x2="692" y2="152" class="solid"></line><line x1="460" y1="152" x2="460" y2="216" class="solid"></line><line x1="572" y1="152" x2="572" y2="228" class="solid"></line><line x1="420" y1="216" x2="460" y2="216" class="solid"></line><line x1="420" y1="216" x2="420" y2="312" class="solid"></line><line x1="248" y1="312" x2="420" y2="312" class="solid"></line></g><g><line x1="52" y1="232" x2="300" y2="232" class="solid"></line><line x1="52" y1="232" x2="52" y2="248" class="solid"></line><line x1="300" y1="232" x2="300" y2="328" class="solid"></line><line x1="36" y1="248" x2="284" y2="248" class="solid"></line><line x1="36" y1="248" x2="36" y2="264" class="solid"></line><line x1="284" y1="248" x2="284" y2="344" class="solid"></line><line x1="20" y1="264" x2="268" y2="264" class="solid"></line><line x1="20" y1="264" x2="20" y2="360" class="solid"></line><line x1="268" y1="264" x2="268" y2="360" class="solid"></line><line x1="288" y1="328" x2="300" y2="328" class="solid"></line><line x1="272" y1="344" x2="284" y2="344" class="solid"></line><line x1="20" y1="360" x2="268" y2="360" class="solid"></line></g><g><line x1="476" y1="232" x2="568" y2="232" class="solid"></line><line x1="476" y1="232" x2="476" y2="248" class="solid"></line><line x1="460" y1="248" x2="788" y2="248" class="solid"></line><line x1="460" y1="248" x2="460" y2="264" class="solid"></line><line x1="788" y1="248" x2="788" y2="424" class="solid"></line><line x1="452" y1="264" x2="772" y2="264" class="solid"></line><line x1="452" y1="264" x2="452" y2="440" class="solid"></line><line x1="772" y1="264" x2="772" y2="440" class="solid"></line><line x1="772" y1="424" x2="788" y2="424" class="solid"></line><line x1="452" y1="440" x2="772" y2="440" class="solid"></line><line x1="484" y1="440" x2="484" y2="532" class="solid"></line><line x1="576" y1="232" x2="804" y2="232" class="solid"></line><line x1="804" y1="232" x2="804" y2="408" class="solid"></line><line x1="788" y1="408" x2="804" y2="408" class="solid"></line></g><g><line x1="36" y1="296" x2="104" y2="296" class="solid"></line><line x1="36" y1="296" x2="36" y2="344" class="solid"></line><line x1="112" y1="296" x2="124" y2="296" class="solid"></line><line x1="124" y1="296" x2="124" y2="344" class="solid"></line><line x1="36" y1="344" x2="124" y2="344" class="solid"></line><line x1="76" y1="344" x2="76" y2="500" class="solid"></line><line x1="76" y1="392" x2="456" y2="392" class="solid"></line></g><g><line x1="140" y1="296" x2="244" y2="296" class="solid"></line><line x1="140" y1="296" x2="140" y2="344" class="solid"></line><line x1="244" y1="296" x2="244" y2="304" class="solid"></line><line x1="244" y1="320" x2="244" y2="344" class="solid"></line><line x1="140" y1="344" x2="244" y2="344" class="solid"></line></g><g><line x1="20" y1="504" x2="72" y2="504" class="solid"></line><line x1="20" y1="504" x2="20" y2="648" class="solid"></line><line x1="80" y1="504" x2="292" y2="504" class="solid"></line><line x1="292" y1="504" x2="292" y2="648" class="solid"></line><line x1="20" y1="648" x2="292" y2="648" class="solid"></line></g><g><line x1="572" y1="504" x2="716" y2="504" class="solid"></line><line x1="572" y1="504" x2="572" y2="544" class="solid"></line><line x1="716" y1="504" x2="716" y2="600" class="solid"></line><line x1="572" y1="560" x2="572" y2="600" class="solid"></line><line x1="572" y1="600" x2="716" y2="600" class="solid"></line></g><g><line x1="324" y1="536" x2="352" y2="536" class="solid"></line><line x1="324" y1="536" x2="324" y2="568" class="solid"></line><line x1="360" y1="536" x2="412" y2="536" class="solid"></line><line x1="412" y1="536" x2="412" y2="568" class="solid"></line><line x1="324" y1="568" x2="412" y2="568" class="solid"></line></g><g><line x1="428" y1="536" x2="480" y2="536" class="solid"></line><line x1="428" y1="536" x2="428" y2="568" class="solid"></line><line x1="488" y1="536" x2="540" y2="536" class="solid"></line><line x1="540" y1="536" x2="540" y2="568" class="solid"></line><line x1="428" y1="568" x2="540" y2="568" class="solid"></line></g><g><line x1="36" y1="600" x2="276" y2="600" class="solid"></line><line x1="36" y1="600" x2="36" y2="632" class="solid"></line><line x1="276" y1="600" x2="276" y2="632" class="solid"></line><line x1="36" y1="632" x2="276" y2="632" class="solid"></line><line x1="148" y1="632" x2="148" y2="740" class="solid"></line><line x1="260" y1="632" x2="260" y2="740" class="solid"></line></g><g><line x1="36" y1="744" x2="144" y2="744" class="solid"></line><line x1="36" y1="744" x2="36" y2="776" class="solid"></line><line x1="152" y1="744" x2="220" y2="744" class="solid"></line><line x1="220" y1="744" x2="220" y2="776" class="solid"></line><line x1="36" y1="776" x2="220" y2="776" class="solid"></line><line x1="148" y1="776" x2="148" y2="852" class="solid"></line></g><g><line x1="236" y1="744" x2="256" y2="744" class="solid"></line><line x1="236" y1="744" x2="236" y2="776" class="solid"></line><line x1="264" y1="744" x2="420" y2="744" class="solid"></line><line x1="420" y1="744" x2="420" y2="776" class="solid"></line><line x1="236" y1="776" x2="420" y2="776" class="solid"></line><line x1="260" y1="776" x2="260" y2="852" class="solid"></line></g><g><line x1="20" y1="856" x2="144" y2="856" class="solid"></line><line x1="20" y1="856" x2="20" y2="888" class="solid"></line><line x1="152" y1="856" x2="220" y2="856" class="solid"></line><line x1="220" y1="856" x2="220" y2="888" class="solid"></line><line x1="20" y1="888" x2="220" y2="888" class="solid"></line></g><g><line x1="236" y1="856" x2="256" y2="856" class="solid"></line><line x1="236" y1="856" x2="236" y2="888" class="solid"></line><line x1="264" y1="856" x2="404" y2="856" class="solid"></line><line x1="404" y1="856" x2="404" y2="888" class="solid"></line><line x1="236" y1="888" x2="404" y2="888" class="solid"></line></g><g><line x1="548" y1="312" x2="676" y2="312" class="solid"></line><line x1="548" y1="312" x2="548" y2="336" class="solid"></line><line x1="676" y1="312" x2="676" y2="324" class="solid"></line></g><g><line x1="484" y1="384" x2="484" y2="408" class="solid"></line><line x1="740" y1="396" x2="740" y2="408" class="solid"></line><line x1="484" y1="408" x2="740" y2="408" class="solid"></line></g></svg>