<svg xmlns="http://www.w3.org/2000/svg" width="896" height="784" class="svgbob"><style>.svgbob line, .svgbob path, .svgbob circle, .svgbob rect, .svgbob polygon {
    stroke: black;
    stroke-width: 2;
    stroke-opacity: 1;
    fill-opacity: 1;
    stroke-linecap: round;
    stroke-linejoin: miter;
}
.svgbob text {
    white-space: pre;
    fill: black;
    font-family: Iosevka Fixed, monospace;
    font-size: 14px;
}
.svgbob rect.backdrop {
    stroke: none;
    fill: white;
}
.svgbob .broken {
    stroke-dasharray: 8;
}
.svgbob .filled {
    fill: black;
}
.svgbob .bg_filled {
    fill: white;
    stroke-width: 1;
}
.svgbob .nofill {
    fill: white;
}
.svgbob .end_marked_arrow {
    marker-end: url(#arrow);
}
.svgbob .start_marked_arrow {
    marker-start: url(#arrow);
}
.svgbob .end_marked_diamond {
    marker-end: url(#diamond);
}
.svgbob .start_marked_diamond {
    marker-start: url(#diamond);
}
.svgbob .end_marked_circle {
    marker-end: url(#circle);
}
.svgbob .start_marked_circle {
    marker-start: url(#circle);
}
.svgbob .end_marked_open_circle {
    marker-end: url(#open_circle);
}
.svgbob .start_marked_open_circle {
    marker-start: url(#open_circle);
}
.svgbob .end_marked_big_open_circle {
    marker-end: url(#big_open_circle);
}
.svgbob .start_marked_big_open_circle {
    marker-start: url(#big_open_circle);
}<!--separator--></style><defs><marker id="arrow" viewBox="-2 -2 8 8" refX="4" refY="2" markerWidth="7" markerHeight="7" orient="auto-start-reverse"><polygon points="0,0 0,4 4,2 0,0"></polygon></marker><marker id="diamond" viewBox="-2 -2 8 8" refX="4" refY="2" markerWidth="7" markerHeight="7" orient="auto-start-reverse"><polygon points="0,2 2,0 4,2 2,4 0,2"></polygon></marker><marker id="circle" viewBox="0 0 8 8" refX="4" refY="4" markerWidth="7" markerHeight="7" orient="auto-start-reverse"><circle cx="4" cy="4" r="2" class="filled"></circle></marker><marker id="open_circle" viewBox="0 0 8 8" refX="4" refY="4" markerWidth="7" markerHeight="7" orient="auto-start-reverse"><circle cx="4" cy="4" r="2" class="bg_filled"></circle></marker><marker id="big_open_circle" viewBox="0 0 8 8" refX="4" refY="4" markerWidth="7" markerHeight="7" orient="auto-start-reverse"><circle cx="4" cy="4" r="3" class="bg_filled"></circle></marker></defs><rect class="backdrop" x="0" y="0" width="896" height="784"></rect><rect x="76" y="8" width="784" height="48" class="solid nofill" rx="0"></rect><text x="418" y="28" >Remote</text><text x="474" y="28" >Provider</text><line x1="860" y1="32" x2="860" y2="48" class="solid"></line><rect x="460" y="120" width="400" height="320" class="solid nofill" rx="0"></rect><rect x="476" y="216" width="360" height="208" class="solid nofill" rx="0"></rect><line x1="624" y1="216" x2="632" y2="216" class="solid"></line><line x1="712" y1="216" x2="720" y2="216" class="solid"></line><text x="634" y="252" >write</text><text x="714" y="252" >x</text><text x="506" y="284" >Storage</text><text x="570" y="284" >2020</text><text x="514" y="300" >mmap</text><text x="554" y="300" >prv</text><line x1="584" y1="288" x2="576" y2="304" class="solid"></line><text x="586" y="300" >nvda.2020.stg</text><text x="514" y="316" >NO</text><text x="538" y="316" >WRITE</text><text x="506" y="364" >Storage</text><text x="570" y="364" >2021</text><text x="514" y="380" >mmap</text><text x="554" y="380" >prv</text><line x1="584" y1="368" x2="576" y2="384" class="solid"></line><text x="586" y="380" >nvda.2021.stg</text><text x="738" y="380" >Downloading</text><text x="514" y="396" >WRITE</text><text x="562" y="396" >ALLOWED</text><polygon points="704,388 696,392 704,396" class="filled"></polygon><line x1="836" y1="384" x2="836" y2="400" class="solid"></line><text x="738" y="412" >Writing</text><text x="490" y="236" >Local</text><text x="538" y="236" >provider</text><text x="738" y="252" >write</text><text x="738" y="268" >pending</text><path d="M 744,272 A 16,16 0,0,0 744,288" class="nofill"></path><text x="746" y="284" >download</text><path d="M 808,272 A 16,16 0,0,1 808,288" class="nofill"></path><text x="474" y="140" >Bot</text><text x="506" y="140" >1,</text><text x="530" y="140" >process</text><text x="594" y="140" >B</text><text x="482" y="172" >Buffer</text><text x="538" y="172" >:</text><text x="554" y="172" >NVDA</text><text x="594" y="172" >[2020,</text><text x="650" y="172" >2021]</text><text x="490" y="188" >xxxxxxxxxxxxxxxxxxxxx....................</text><polygon points="624,204 628,192 632,204" class="filled"></polygon><line x1="632" y1="200" x2="712" y2="200" class="solid"></line><polygon points="712,204 716,192 720,204" class="filled"></polygon><line x1="716" y1="204" x2="716" y2="240" class="solid"></line><line x1="720" y1="200" x2="728" y2="200" class="solid"></line><line x1="860" y1="384" x2="860" y2="400" class="solid"></line><rect x="76" y="120" width="360" height="320" class="solid nofill" rx="0"></rect><rect x="92" y="216" width="328" height="208" class="solid nofill" rx="0"></rect><line x1="232" y1="216" x2="240" y2="216" class="solid"></line><line x1="328" y1="216" x2="336" y2="216" class="solid"></line><text x="242" y="252" >write</text><text x="330" y="252" >x</text><text x="122" y="284" >Storage</text><text x="186" y="284" >2020</text><text x="130" y="300" >mmap</text><text x="170" y="300" >prv</text><line x1="200" y1="288" x2="192" y2="304" class="solid"></line><text x="202" y="300" >nvda.2020.stg</text><text x="130" y="316" >NO</text><text x="154" y="316" >WRITE</text><text x="122" y="364" >Storage</text><text x="186" y="364" >2021</text><text x="130" y="380" >mmap</text><text x="170" y="380" >prv</text><line x1="200" y1="368" x2="192" y2="384" class="solid"></line><text x="202" y="380" >nvda.2021.stg</text><text x="130" y="396" >NO</text><text x="154" y="396" >WRITE</text><text x="106" y="236" >Local</text><text x="154" y="236" >provider</text><text x="354" y="252" >write</text><text x="354" y="268" >pending</text><path d="M 360,272 A 16,16 0,0,0 360,288" class="nofill"></path><text x="362" y="284" >sleep</text><path d="M 400,272 A 16,16 0,0,1 400,288" class="nofill"></path><text x="90" y="140" >Bot</text><text x="122" y="140" >0,</text><text x="146" y="140" >process</text><text x="210" y="140" >A</text><text x="98" y="172" >Buffer</text><text x="154" y="172" >:</text><text x="170" y="172" >NVDA</text><text x="210" y="172" >[2020,</text><text x="266" y="172" >2021]</text><text x="106" y="188" >xxxxxxxxxxxxxxxxxxx..................</text><polygon points="232,204 236,192 240,204" class="filled"></polygon><line x1="240" y1="200" x2="328" y2="200" class="solid"></line><polygon points="328,204 332,192 336,204" class="filled"></polygon><line x1="332" y1="204" x2="332" y2="240" class="solid"></line><rect x="92" y="568" width="160" height="80" class="solid nofill" rx="0"></rect><text x="106" y="588" >Page</text><text x="146" y="588" >0</text><text x="162" y="588" >:</text><text x="178" y="588" >PRIVATE</text><text x="106" y="604" >Descriptor</text><text x="106" y="620" >NVDA,</text><text x="154" y="620" >2021</text><rect x="276" y="568" width="544" height="176" class="solid nofill" rx="0"></rect><rect x="484" y="584" width="320" height="64" class="solid nofill" rx="0"></rect><text x="498" y="604" >Volumes</text><text x="562" y="604" >pages</text><text x="506" y="620" >xxxxxxxxxxxxxxxxxx..................</text><text x="506" y="636" >xxxxxxxxxxxxxxxxxx..................</text><rect x="484" y="664" width="320" height="64" class="solid nofill" rx="0"></rect><text x="498" y="684" >Values</text><text x="554" y="684" >pages</text><text x="506" y="700" >xxxxxxxxxxxxxxxxxx..................</text><text x="506" y="716" >xxxxxxxxxxxxxxxxxx..................</text><text x="290" y="588" >Data</text><text x="330" y="588" >pages</text><text x="378" y="588" >:</text><text x="394" y="588" >SHARED</text><text x="290" y="620" >Data</text><text x="330" y="620" >appended,</text><text x="306" y="636" >one</text><text x="338" y="636" >bot</text><text x="370" y="636" >at</text><text x="394" y="636" >a</text><text x="410" y="620" >by</text><text x="434" y="620" >only</text><text x="410" y="636" >time.</text><text x="290" y="668" >Bots</text><text x="330" y="668" >use</text><text x="362" y="668" >atomic</text><text x="418" y="668" >ops</text><text x="306" y="684" >on</text><text x="330" y="684" >sync</text><text x="370" y="684" >page</text><text x="410" y="684" >to</text><text x="306" y="700" >decide</text><text x="362" y="700" >who</text><text x="394" y="700" >writes.</text><rect x="92" y="664" width="160" height="80" class="solid nofill" rx="0"></rect><text x="106" y="684" >Page</text><text x="146" y="684" >1</text><text x="162" y="684" >:</text><text x="178" y="684" >SHARED</text><text x="106" y="700" >Sync</text><text x="146" y="700" >data</text><line x1="104" y1="712" x2="112" y2="712" class="solid"></line><text x="122" y="716" >wrt</text><text x="154" y="716" >flag</text><text x="194" y="716" >:</text><text x="210" y="716" >1</text><line x1="104" y1="728" x2="112" y2="728" class="solid"></line><text x="122" y="732" >fill</text><text x="162" y="732" >:</text><text x="178" y="732" >half</text><text x="18" y="28" >Far</text><text x="18" y="44" >Away</text><line x1="8" y1="88" x2="872" y2="88" class="solid"></line><text x="18" y="252" >User</text><text x="18" y="268" >space</text><line x1="0" y1="472" x2="880" y2="472" class="solid"></line><text x="122" y="524" >prv</text><line x1="152" y1="512" x2="144" y2="528" class="solid"></line><text x="154" y="524" >nvda.2020.stg</text><text x="266" y="524" >:</text><text x="282" y="524" >FULL</text><text x="98" y="556" >prv</text><line x1="128" y1="544" x2="120" y2="560" class="solid"></line><text x="130" y="556" >nvda.2021.stg</text><text x="242" y="556" >:</text><text x="258" y="556" >INCOMPLETE</text><text x="18" y="572" >File</text><text x="18" y="588" >System</text><g><line x1="856" y1="40" x2="884" y2="40" class="solid"></line><line x1="884" y1="40" x2="884" y2="392" class="solid"></line><line x1="704" y1="392" x2="884" y2="392" class="solid"></line></g><g><line x1="476" y1="152" x2="836" y2="152" class="solid"></line><line x1="476" y1="152" x2="476" y2="200" class="solid"></line><line x1="836" y1="152" x2="836" y2="200" class="solid"></line><line x1="476" y1="200" x2="624" y2="200" class="solid"></line><line x1="736" y1="200" x2="836" y2="200" class="solid"></line></g><g><line x1="628" y1="204" x2="628" y2="264" class="solid"></line><line x1="492" y1="264" x2="700" y2="264" class="solid"></line><line x1="492" y1="264" x2="492" y2="328" class="solid"></line><line x1="700" y1="264" x2="700" y2="328" class="solid"></line><line x1="492" y1="328" x2="700" y2="328" class="solid"></line></g><g><line x1="716" y1="256" x2="716" y2="360" class="solid"></line><line x1="696" y1="360" x2="716" y2="360" class="solid"></line></g><g><line x1="492" y1="344" x2="700" y2="344" class="solid"></line><line x1="492" y1="344" x2="492" y2="408" class="solid"></line><line x1="700" y1="344" x2="700" y2="384" class="solid"></line><line x1="492" y1="408" x2="700" y2="408" class="solid"></line><line x1="700" y1="400" x2="700" y2="408" class="solid"></line></g><g><line x1="92" y1="152" x2="420" y2="152" class="solid"></line><line x1="92" y1="152" x2="92" y2="200" class="solid"></line><line x1="420" y1="152" x2="420" y2="200" class="solid"></line><line x1="92" y1="200" x2="232" y2="200" class="solid"></line><line x1="336" y1="200" x2="420" y2="200" class="solid"></line></g><g><line x1="236" y1="204" x2="236" y2="264" class="solid"></line><line x1="108" y1="264" x2="316" y2="264" class="solid"></line><line x1="108" y1="264" x2="108" y2="328" class="solid"></line><line x1="316" y1="264" x2="316" y2="328" class="solid"></line><line x1="108" y1="328" x2="316" y2="328" class="solid"></line></g><g><line x1="332" y1="256" x2="332" y2="392" class="solid"></line><line x1="108" y1="344" x2="316" y2="344" class="solid"></line><line x1="108" y1="344" x2="108" y2="408" class="solid"></line><line x1="316" y1="344" x2="316" y2="408" class="solid"></line><line x1="316" y1="392" x2="332" y2="392" class="solid"></line><line x1="108" y1="408" x2="316" y2="408" class="solid"></line></g><g><line x1="100" y1="504" x2="860" y2="504" class="solid"></line><line x1="100" y1="504" x2="100" y2="536" class="solid"></line><line x1="860" y1="504" x2="860" y2="728" class="solid"></line><line x1="76" y1="536" x2="836" y2="536" class="solid"></line><line x1="76" y1="536" x2="76" y2="760" class="solid"></line><line x1="836" y1="536" x2="836" y2="760" class="solid"></line><line x1="848" y1="728" x2="860" y2="728" class="solid"></line><line x1="76" y1="760" x2="836" y2="760" class="solid"></line></g></svg>