<svg xmlns="http://www.w3.org/2000/svg" width="848" height="960" class="svgbob"><style>.svgbob line, .svgbob path, .svgbob circle, .svgbob rect, .svgbob polygon {
    stroke: black;
    stroke-width: 2;
    stroke-opacity: 1;
    fill-opacity: 1;
    stroke-linecap: round;
    stroke-linejoin: miter;
}
.svgbob text {
    white-space: pre;
    fill: black;
    font-family: Iosevka Fixed, monospace;
    font-size: 14px;
}
.svgbob rect.backdrop {
    stroke: none;
    fill: white;
}
.svgbob .broken {
    stroke-dasharray: 8;
}
.svgbob .filled {
    fill: black;
}
.svgbob .bg_filled {
    fill: white;
    stroke-width: 1;
}
.svgbob .nofill {
    fill: white;
}
.svgbob .end_marked_arrow {
    marker-end: url(#arrow);
}
.svgbob .start_marked_arrow {
    marker-start: url(#arrow);
}
.svgbob .end_marked_diamond {
    marker-end: url(#diamond);
}
.svgbob .start_marked_diamond {
    marker-start: url(#diamond);
}
.svgbob .end_marked_circle {
    marker-end: url(#circle);
}
.svgbob .start_marked_circle {
    marker-start: url(#circle);
}
.svgbob .end_marked_open_circle {
    marker-end: url(#open_circle);
}
.svgbob .start_marked_open_circle {
    marker-start: url(#open_circle);
}
.svgbob .end_marked_big_open_circle {
    marker-end: url(#big_open_circle);
}
.svgbob .start_marked_big_open_circle {
    marker-start: url(#big_open_circle);
}<!--separator--></style><defs><marker id="arrow" viewBox="-2 -2 8 8" refX="4" refY="2" markerWidth="7" markerHeight="7" orient="auto-start-reverse"><polygon points="0,0 0,4 4,2 0,0"></polygon></marker><marker id="diamond" viewBox="-2 -2 8 8" refX="4" refY="2" markerWidth="7" markerHeight="7" orient="auto-start-reverse"><polygon points="0,2 2,0 4,2 2,4 0,2"></polygon></marker><marker id="circle" viewBox="0 0 8 8" refX="4" refY="4" markerWidth="7" markerHeight="7" orient="auto-start-reverse"><circle cx="4" cy="4" r="2" class="filled"></circle></marker><marker id="open_circle" viewBox="0 0 8 8" refX="4" refY="4" markerWidth="7" markerHeight="7" orient="auto-start-reverse"><circle cx="4" cy="4" r="2" class="bg_filled"></circle></marker><marker id="big_open_circle" viewBox="0 0 8 8" refX="4" refY="4" markerWidth="7" markerHeight="7" orient="auto-start-reverse"><circle cx="4" cy="4" r="3" class="bg_filled"></circle></marker></defs><rect class="backdrop" x="0" y="0" width="848" height="960"></rect><rect x="4" y="8" width="832" height="688" class="solid nofill" rx="0"></rect><rect x="20" y="72" width="696" height="112" class="solid nofill" rx="0"></rect><text x="34" y="92" >Allocation</text><text x="122" y="92" >sequence</text><text x="194" y="92" >:</text><text x="58" y="124" >Call</text><text x="98" y="124" >strategies</text><text x="266" y="124" >Dispatch</text><text x="338" y="124" >money</text><text x="458" y="124" >Create</text><text x="514" y="124" >trade</text><text x="562" y="124" >sequences</text><text x="58" y="140" >detectors</text><line x1="136" y1="136" x2="144" y2="136" class="solid"></line><polygon points="144,132 152,136 144,140" class="filled"></polygon><text x="162" y="140" >get</text><polygon points="240,132 248,136 240,140" class="filled"></polygon><text x="266" y="140" >on</text><text x="290" y="140" >strategies</text><polygon points="432,132 440,136 432,140" class="filled"></polygon><text x="458" y="140" >from</text><text x="498" y="140" >trading</text><text x="562" y="140" >parameters</text><text x="58" y="156" >predicted</text><text x="138" y="156" >returns</text><text x="266" y="156" >that</text><text x="306" y="156" >detected.</text><text x="458" y="156" >of</text><text x="482" y="156" >strategies</text><text x="570" y="156" >that</text><text x="610" y="156" >detected.</text><line x1="104" y1="184" x2="112" y2="184" class="solid"></line><line x1="352" y1="184" x2="360" y2="184" class="solid"></line><line x1="456" y1="184" x2="464" y2="184" class="solid"></line><line x1="568" y1="184" x2="576" y2="184" class="solid"></line><rect x="308" y="520" width="248" height="144" class="solid nofill" rx="0"></rect><rect x="324" y="600" width="128" height="48" class="solid nofill" rx="0"></rect><text x="346" y="620" >file</text><text x="386" y="620" >system</text><text x="354" y="636" >storage</text><line x1="352" y1="520" x2="360" y2="520" class="solid"></line><line x1="480" y1="520" x2="488" y2="520" class="solid"></line><text x="378" y="540" >Portfolio</text><polygon points="352,548 360,548 356,560" class="filled"></polygon><polygon points="480,548 488,548 484,560" class="filled"></polygon><text x="346" y="572" >Wallet</text><text x="442" y="572" >Order</text><text x="490" y="572" >list</text><line x1="556" y1="560" x2="556" y2="576" class="solid"></line><rect x="36" y="552" width="112" height="48" class="solid nofill" rx="0"></rect><text x="50" y="572" >simulation</text><text x="58" y="588" >provider</text><rect x="164" y="552" width="112" height="48" class="solid nofill" rx="0"></rect><text x="178" y="572" >file</text><text x="218" y="572" >system</text><text x="194" y="588" >storage</text><rect x="588" y="552" width="112" height="48" class="solid nofill" rx="0"></rect><text x="602" y="572" >simulation</text><text x="618" y="588" >broker</text><rect x="468" y="360" width="32" height="32" class="solid nofill" rx="0"></rect><text x="474" y="380" >BUY</text><rect x="532" y="360" width="32" height="32" class="solid nofill" rx="0"></rect><text x="538" y="380" >MON</text><rect x="596" y="360" width="32" height="32" class="solid nofill" rx="0"></rect><text x="602" y="380" >TRG</text><rect x="660" y="360" width="32" height="32" class="solid nofill" rx="0"></rect><text x="666" y="380" >SEL</text><rect x="724" y="360" width="32" height="32" class="solid nofill" rx="0"></rect><text x="730" y="380" >DON</text><text x="18" y="28" >Bot</text><text x="50" y="28" >core</text><text x="90" y="28" >:</text><text x="106" y="28" >C</text><text x="114" y="220" >Queries</text><polygon points="568,244 576,244 572,256" class="filled"></polygon><text x="34" y="300" >Strategy</text><text x="466" y="300" >Active</text><text x="522" y="300" >trade</text><text x="570" y="300" >sequence</text><text x="642" y="300" >FSM</text><polygon points="104,308 112,308 108,320" class="filled"></polygon><text x="50" y="332" >Detector</text><text x="154" y="332" >Trading</text><polygon points="248,324 240,328 248,332" class="filled"></polygon><text x="154" y="348" >parameters</text><text x="82" y="444" >Reads</text><text x="490" y="492" >Creates</text><polygon points="72,516 80,516 76,528" class="filled"></polygon><text x="34" y="540" >local</text><text x="82" y="540" >provider</text><text x="586" y="540" >local</text><text x="634" y="540" >broker</text><line x1="536" y1="568" x2="568" y2="568" class="solid"></line><polygon points="568,564 576,568 568,572" class="filled"></polygon><text x="50" y="636" >Remote</text><text x="106" y="636" >provider</text><text x="178" y="636" >interface</text><text x="602" y="636" >Remote</text><text x="658" y="636" >broker</text><text x="714" y="636" >interface</text><text x="722" y="684" >language</text><text x="794" y="684" >:</text><text x="810" y="684" >C</text><line x1="144" y1="696" x2="152" y2="696" class="solid"></line><line x1="256" y1="696" x2="264" y2="696" class="solid"></line><line x1="672" y1="696" x2="680" y2="696" class="solid"></line><text x="306" y="204" >Reads</text><text x="474" y="204" >Reads</text><text x="586" y="204" >Creates</text><polygon points="672,340 680,340 676,352" class="filled"></polygon><line x1="504" y1="376" x2="520" y2="376" class="solid"></line><polygon points="520,372 528,376 520,380" class="filled"></polygon><line x1="568" y1="376" x2="584" y2="376" class="solid"></line><polygon points="584,372 592,376 584,380" class="filled"></polygon><line x1="632" y1="376" x2="648" y2="376" class="solid"></line><polygon points="648,372 656,376 648,380" class="filled"></polygon><line x1="696" y1="376" x2="712" y2="376" class="solid"></line><polygon points="712,372 720,376 712,380" class="filled"></polygon><polygon points="736,412 740,400 744,412" class="filled"></polygon><text x="554" y="492" >and</text><text x="586" y="492" >monitors</text><rect x="4" y="728" width="832" height="96" class="solid nofill" rx="0"></rect><line x1="144" y1="728" x2="152" y2="728" class="solid"></line><line x1="256" y1="728" x2="264" y2="728" class="solid"></line><line x1="672" y1="728" x2="680" y2="728" class="solid"></line><text x="18" y="748" >Bot</text><text x="50" y="748" >connectors</text><polygon points="144,756 152,756 148,768" class="filled"></polygon><polygon points="256,756 264,756 260,768" class="filled"></polygon><polygon points="672,756 680,756 676,768" class="filled"></polygon><text x="50" y="780" >provider</text><text x="122" y="780" >0</text><text x="138" y="780" >connector</text><text x="250" y="780" >provider</text><text x="322" y="780" >1</text><text x="338" y="780" >connector</text><text x="618" y="780" >broker</text><text x="674" y="780" >connector</text><text x="706" y="812" >language</text><line x1="144" y1="824" x2="152" y2="824" class="solid"></line><line x1="256" y1="824" x2="264" y2="824" class="solid"></line><line x1="672" y1="824" x2="680" y2="824" class="solid"></line><text x="778" y="812" >:</text><text x="794" y="812" >any</text><rect x="4" y="856" width="832" height="80" class="solid nofill" rx="0"></rect><line x1="144" y1="856" x2="152" y2="856" class="solid"></line><line x1="256" y1="856" x2="264" y2="856" class="solid"></line><line x1="672" y1="856" x2="680" y2="856" class="solid"></line><polygon points="144,868 152,868 148,880" class="filled"></polygon><polygon points="256,868 264,868 260,880" class="filled"></polygon><polygon points="672,868 680,868 676,880" class="filled"></polygon><text x="34" y="892" >provider</text><text x="106" y="892" >0</text><text x="122" y="892" >:</text><text x="138" y="892" >polgyonio</text><text x="250" y="892" >provider</text><text x="322" y="892" >0</text><text x="338" y="892" >:</text><text x="354" y="892" >yahoo</text><text x="586" y="892" >broker</text><text x="642" y="892" >:</text><text x="658" y="892" >interactive</text><text x="754" y="892" >brokers</text><text x="18" y="924" >External</text><text x="90" y="924" >entities</text><g><line x1="44" y1="104" x2="204" y2="104" class="solid"></line><line x1="44" y1="104" x2="44" y2="168" class="solid"></line><line x1="204" y1="104" x2="204" y2="168" class="solid"></line><line x1="204" y1="136" x2="240" y2="136" class="solid"></line><line x1="44" y1="168" x2="204" y2="168" class="solid"></line><line x1="108" y1="168" x2="108" y2="308" class="solid"></line></g><g><line x1="252" y1="104" x2="396" y2="104" class="solid"></line><line x1="252" y1="104" x2="252" y2="168" class="solid"></line><line x1="396" y1="104" x2="396" y2="168" class="solid"></line><line x1="396" y1="136" x2="432" y2="136" class="solid"></line><line x1="252" y1="168" x2="396" y2="168" class="solid"></line><line x1="356" y1="168" x2="356" y2="548" class="solid"></line></g><g><line x1="444" y1="104" x2="692" y2="104" class="solid"></line><line x1="444" y1="104" x2="444" y2="168" class="solid"></line><line x1="692" y1="104" x2="692" y2="168" class="solid"></line><line x1="444" y1="168" x2="692" y2="168" class="solid"></line><line x1="460" y1="168" x2="460" y2="232" class="solid"></line><line x1="572" y1="168" x2="572" y2="244" class="solid"></line><line x1="420" y1="232" x2="460" y2="232" class="solid"></line><line x1="420" y1="232" x2="420" y2="328" class="solid"></line><line x1="248" y1="328" x2="420" y2="328" class="solid"></line></g><g><line x1="52" y1="248" x2="300" y2="248" class="solid"></line><line x1="52" y1="248" x2="52" y2="264" class="solid"></line><line x1="300" y1="248" x2="300" y2="344" class="solid"></line><line x1="36" y1="264" x2="284" y2="264" class="solid"></line><line x1="36" y1="264" x2="36" y2="280" class="solid"></line><line x1="284" y1="264" x2="284" y2="360" class="solid"></line><line x1="20" y1="280" x2="268" y2="280" class="solid"></line><line x1="20" y1="280" x2="20" y2="376" class="solid"></line><line x1="268" y1="280" x2="268" y2="376" class="solid"></line><line x1="288" y1="344" x2="300" y2="344" class="solid"></line><line x1="272" y1="360" x2="284" y2="360" class="solid"></line><line x1="20" y1="376" x2="268" y2="376" class="solid"></line></g><g><line x1="476" y1="248" x2="568" y2="248" class="solid"></line><line x1="476" y1="248" x2="476" y2="264" class="solid"></line><line x1="460" y1="264" x2="788" y2="264" class="solid"></line><line x1="460" y1="264" x2="460" y2="280" class="solid"></line><line x1="788" y1="264" x2="788" y2="440" class="solid"></line><line x1="452" y1="280" x2="772" y2="280" class="solid"></line><line x1="452" y1="280" x2="452" y2="456" class="solid"></line><line x1="772" y1="280" x2="772" y2="456" class="solid"></line><line x1="772" y1="440" x2="788" y2="440" class="solid"></line><line x1="452" y1="456" x2="772" y2="456" class="solid"></line><line x1="484" y1="456" x2="484" y2="548" class="solid"></line><line x1="576" y1="248" x2="804" y2="248" class="solid"></line><line x1="804" y1="248" x2="804" y2="424" class="solid"></line><line x1="788" y1="424" x2="804" y2="424" class="solid"></line></g><g><line x1="36" y1="312" x2="104" y2="312" class="solid"></line><line x1="36" y1="312" x2="36" y2="360" class="solid"></line><line x1="112" y1="312" x2="124" y2="312" class="solid"></line><line x1="124" y1="312" x2="124" y2="360" class="solid"></line><line x1="36" y1="360" x2="124" y2="360" class="solid"></line><line x1="76" y1="360" x2="76" y2="516" class="solid"></line><line x1="76" y1="408" x2="456" y2="408" class="solid"></line></g><g><line x1="140" y1="312" x2="244" y2="312" class="solid"></line><line x1="140" y1="312" x2="140" y2="360" class="solid"></line><line x1="244" y1="312" x2="244" y2="320" class="solid"></line><line x1="244" y1="336" x2="244" y2="360" class="solid"></line><line x1="140" y1="360" x2="244" y2="360" class="solid"></line></g><g><line x1="20" y1="520" x2="72" y2="520" class="solid"></line><line x1="20" y1="520" x2="20" y2="664" class="solid"></line><line x1="80" y1="520" x2="292" y2="520" class="solid"></line><line x1="292" y1="520" x2="292" y2="664" class="solid"></line><line x1="20" y1="664" x2="292" y2="664" class="solid"></line></g><g><line x1="572" y1="520" x2="820" y2="520" class="solid"></line><line x1="572" y1="520" x2="572" y2="560" class="solid"></line><line x1="820" y1="520" x2="820" y2="664" class="solid"></line><line x1="572" y1="576" x2="572" y2="664" class="solid"></line><line x1="572" y1="664" x2="820" y2="664" class="solid"></line></g><g><line x1="324" y1="552" x2="352" y2="552" class="solid"></line><line x1="324" y1="552" x2="324" y2="584" class="solid"></line><line x1="360" y1="552" x2="412" y2="552" class="solid"></line><line x1="412" y1="552" x2="412" y2="584" class="solid"></line><line x1="324" y1="584" x2="412" y2="584" class="solid"></line></g><g><line x1="428" y1="552" x2="480" y2="552" class="solid"></line><line x1="428" y1="552" x2="428" y2="584" class="solid"></line><line x1="488" y1="552" x2="540" y2="552" class="solid"></line><line x1="540" y1="552" x2="540" y2="584" class="solid"></line><line x1="428" y1="584" x2="540" y2="584" class="solid"></line></g><g><line x1="36" y1="616" x2="276" y2="616" class="solid"></line><line x1="36" y1="616" x2="36" y2="648" class="solid"></line><line x1="276" y1="616" x2="276" y2="648" class="solid"></line><line x1="36" y1="648" x2="276" y2="648" class="solid"></line><line x1="148" y1="648" x2="148" y2="756" class="solid"></line><line x1="260" y1="648" x2="260" y2="756" class="solid"></line></g><g><line x1="588" y1="616" x2="804" y2="616" class="solid"></line><line x1="588" y1="616" x2="588" y2="648" class="solid"></line><line x1="804" y1="616" x2="804" y2="648" class="solid"></line><line x1="588" y1="648" x2="804" y2="648" class="solid"></line><line x1="676" y1="648" x2="676" y2="756" class="solid"></line></g><g><line x1="36" y1="760" x2="144" y2="760" class="solid"></line><line x1="36" y1="760" x2="36" y2="792" class="solid"></line><line x1="152" y1="760" x2="220" y2="760" class="solid"></line><line x1="220" y1="760" x2="220" y2="792" class="solid"></line><line x1="36" y1="792" x2="220" y2="792" class="solid"></line><line x1="148" y1="792" x2="148" y2="868" class="solid"></line></g><g><line x1="236" y1="760" x2="256" y2="760" class="solid"></line><line x1="236" y1="760" x2="236" y2="792" class="solid"></line><line x1="264" y1="760" x2="420" y2="760" class="solid"></line><line x1="420" y1="760" x2="420" y2="792" class="solid"></line><line x1="236" y1="792" x2="420" y2="792" class="solid"></line><line x1="260" y1="792" x2="260" y2="868" class="solid"></line></g><g><line x1="604" y1="760" x2="672" y2="760" class="solid"></line><line x1="604" y1="760" x2="604" y2="792" class="solid"></line><line x1="680" y1="760" x2="756" y2="760" class="solid"></line><line x1="756" y1="760" x2="756" y2="792" class="solid"></line><line x1="604" y1="792" x2="756" y2="792" class="solid"></line><line x1="676" y1="792" x2="676" y2="868" class="solid"></line></g><g><line x1="20" y1="872" x2="144" y2="872" class="solid"></line><line x1="20" y1="872" x2="20" y2="904" class="solid"></line><line x1="152" y1="872" x2="220" y2="872" class="solid"></line><line x1="220" y1="872" x2="220" y2="904" class="solid"></line><line x1="20" y1="904" x2="220" y2="904" class="solid"></line></g><g><line x1="236" y1="872" x2="256" y2="872" class="solid"></line><line x1="236" y1="872" x2="236" y2="904" class="solid"></line><line x1="264" y1="872" x2="404" y2="872" class="solid"></line><line x1="404" y1="872" x2="404" y2="904" class="solid"></line><line x1="236" y1="904" x2="404" y2="904" class="solid"></line></g><g><line x1="572" y1="872" x2="672" y2="872" class="solid"></line><line x1="572" y1="872" x2="572" y2="904" class="solid"></line><line x1="680" y1="872" x2="820" y2="872" class="solid"></line><line x1="820" y1="872" x2="820" y2="904" class="solid"></line><line x1="572" y1="904" x2="820" y2="904" class="solid"></line></g><g><line x1="548" y1="328" x2="676" y2="328" class="solid"></line><line x1="548" y1="328" x2="548" y2="352" class="solid"></line><line x1="676" y1="328" x2="676" y2="340" class="solid"></line></g><g><line x1="484" y1="400" x2="484" y2="424" class="solid"></line><line x1="740" y1="412" x2="740" y2="424" class="solid"></line><line x1="484" y1="424" x2="740" y2="424" class="solid"></line></g></svg>