<svg xmlns="http://www.w3.org/2000/svg" width="456" height="352" class="svgbob"><style>.svgbob line, .svgbob path, .svgbob circle, .svgbob rect, .svgbob polygon {
    stroke: black;
    stroke-width: 2;
    stroke-opacity: 1;
    fill-opacity: 1;
    stroke-linecap: round;
    stroke-linejoin: miter;
}
.svgbob text {
    white-space: pre;
    fill: black;
    font-family: Iosevka Fixed, monospace;
    font-size: 14px;
}
.svgbob rect.backdrop {
    stroke: none;
    fill: white;
}
.svgbob .broken {
    stroke-dasharray: 8;
}
.svgbob .filled {
    fill: black;
}
.svgbob .bg_filled {
    fill: white;
    stroke-width: 1;
}
.svgbob .nofill {
    fill: white;
}
.svgbob .end_marked_arrow {
    marker-end: url(#arrow);
}
.svgbob .start_marked_arrow {
    marker-start: url(#arrow);
}
.svgbob .end_marked_diamond {
    marker-end: url(#diamond);
}
.svgbob .start_marked_diamond {
    marker-start: url(#diamond);
}
.svgbob .end_marked_circle {
    marker-end: url(#circle);
}
.svgbob .start_marked_circle {
    marker-start: url(#circle);
}
.svgbob .end_marked_open_circle {
    marker-end: url(#open_circle);
}
.svgbob .start_marked_open_circle {
    marker-start: url(#open_circle);
}
.svgbob .end_marked_big_open_circle {
    marker-end: url(#big_open_circle);
}
.svgbob .start_marked_big_open_circle {
    marker-start: url(#big_open_circle);
}<!--separator--></style><defs><marker id="arrow" viewBox="-2 -2 8 8" refX="4" refY="2" markerWidth="7" markerHeight="7" orient="auto-start-reverse"><polygon points="0,0 0,4 4,2 0,0"></polygon></marker><marker id="diamond" viewBox="-2 -2 8 8" refX="4" refY="2" markerWidth="7" markerHeight="7" orient="auto-start-reverse"><polygon points="0,2 2,0 4,2 2,4 0,2"></polygon></marker><marker id="circle" viewBox="0 0 8 8" refX="4" refY="4" markerWidth="7" markerHeight="7" orient="auto-start-reverse"><circle cx="4" cy="4" r="2" class="filled"></circle></marker><marker id="open_circle" viewBox="0 0 8 8" refX="4" refY="4" markerWidth="7" markerHeight="7" orient="auto-start-reverse"><circle cx="4" cy="4" r="2" class="bg_filled"></circle></marker><marker id="big_open_circle" viewBox="0 0 8 8" refX="4" refY="4" markerWidth="7" markerHeight="7" orient="auto-start-reverse"><circle cx="4" cy="4" r="3" class="bg_filled"></circle></marker></defs><rect class="backdrop" x="0" y="0" width="456" height="352"></rect><text x="26" y="12" >VA</text><line x1="0" y1="22" x2="8" y2="22" class="solid"></line><line x1="0" y1="26" x2="8" y2="26" class="solid"></line><line x1="104" y1="22" x2="112" y2="22" class="solid"></line><line x1="104" y1="26" x2="112" y2="26" class="solid"></line><text x="26" y="60" >0xff3000</text><text x="202" y="60" >PA</text><text x="290" y="60" >Bus</text><text x="322" y="60" >client</text><text x="26" y="92" >0xff2000</text><text x="202" y="92" >0x6000</text><text x="290" y="92" >UART</text><text x="26" y="124" >0xff1000</text><text x="202" y="124" >0x5000</text><text x="26" y="156" >0xff0000</text><polygon points="176,148 184,152 176,156" class="filled"></polygon><text x="202" y="156" >0x4000</text><line x1="0" y1="182" x2="8" y2="182" class="solid"></line><line x1="0" y1="186" x2="8" y2="186" class="solid"></line><line x1="104" y1="182" x2="112" y2="182" class="solid"></line><line x1="104" y1="186" x2="112" y2="186" class="solid"></line><text x="202" y="188" >0x3000</text><text x="26" y="220" >0x003000</text><text x="202" y="220" >0x2000</text><text x="26" y="252" >0x002000</text><polygon points="176,244 184,248 176,252" class="filled"></polygon><text x="202" y="252" >0x1000</text><text x="26" y="284" >0x001000</text><polygon points="176,276 184,280 176,284" class="filled"></polygon><text x="202" y="284" >0x0000</text><text x="290" y="284" >Storage</text><text x="354" y="284" >interface</text><text x="26" y="316" >0x000000</text><text x="290" y="188" >DRAM</text><g><line x1="4" y1="32" x2="4" y2="176" class="solid"></line><line x1="4" y1="40" x2="108" y2="40" class="solid"></line><line x1="108" y1="32" x2="108" y2="176" class="solid"></line><line x1="4" y1="72" x2="108" y2="72" class="solid"></line><line x1="108" y1="88" x2="148" y2="88" class="solid"></line><line x1="148" y1="88" x2="148" y2="248" class="solid"></line><line x1="4" y1="104" x2="108" y2="104" class="solid"></line><line x1="4" y1="136" x2="108" y2="136" class="solid"></line><line x1="108" y1="152" x2="176" y2="152" class="solid"></line><line x1="4" y1="168" x2="108" y2="168" class="solid"></line><line x1="148" y1="248" x2="176" y2="248" class="solid"></line><line x1="4" y1="192" x2="4" y2="328" class="solid"></line><line x1="4" y1="200" x2="108" y2="200" class="solid"></line><line x1="108" y1="192" x2="108" y2="328" class="solid"></line><line x1="108" y1="216" x2="148" y2="216" class="solid"></line><line x1="4" y1="232" x2="108" y2="232" class="solid"></line><line x1="4" y1="264" x2="108" y2="264" class="solid"></line><line x1="108" y1="280" x2="176" y2="280" class="solid"></line><line x1="4" y1="296" x2="108" y2="296" class="solid"></line><line x1="4" y1="328" x2="108" y2="328" class="solid"></line></g><g><line x1="180" y1="72" x2="444" y2="72" class="solid"></line><line x1="180" y1="72" x2="180" y2="144" class="solid"></line><line x1="268" y1="72" x2="268" y2="296" class="solid"></line><line x1="444" y1="72" x2="444" y2="296" class="solid"></line><line x1="180" y1="104" x2="444" y2="104" class="solid"></line><line x1="180" y1="136" x2="268" y2="136" class="solid"></line><line x1="180" y1="160" x2="180" y2="240" class="solid"></line><line x1="180" y1="168" x2="268" y2="168" class="solid"></line><line x1="180" y1="200" x2="268" y2="200" class="solid"></line><line x1="180" y1="232" x2="268" y2="232" class="solid"></line><line x1="180" y1="256" x2="180" y2="272" class="solid"></line><line x1="180" y1="264" x2="444" y2="264" class="solid"></line><line x1="180" y1="288" x2="180" y2="296" class="solid"></line><line x1="180" y1="296" x2="444" y2="296" class="solid"></line></g></svg>