<svg xmlns="http://www.w3.org/2000/svg" width="464" height="320" class="svgbob"><style>.svgbob line, .svgbob path, .svgbob circle, .svgbob rect, .svgbob polygon {
    stroke: black;
    stroke-width: 2;
    stroke-opacity: 1;
    fill-opacity: 1;
    stroke-linecap: round;
    stroke-linejoin: miter;
}
.svgbob text {
    white-space: pre;
    fill: black;
    font-family: Iosevka Fixed, monospace;
    font-size: 14px;
}
.svgbob rect.backdrop {
    stroke: none;
    fill: white;
}
.svgbob .broken {
    stroke-dasharray: 8;
}
.svgbob .filled {
    fill: black;
}
.svgbob .bg_filled {
    fill: white;
    stroke-width: 1;
}
.svgbob .nofill {
    fill: white;
}
.svgbob .end_marked_arrow {
    marker-end: url(#arrow);
}
.svgbob .start_marked_arrow {
    marker-start: url(#arrow);
}
.svgbob .end_marked_diamond {
    marker-end: url(#diamond);
}
.svgbob .start_marked_diamond {
    marker-start: url(#diamond);
}
.svgbob .end_marked_circle {
    marker-end: url(#circle);
}
.svgbob .start_marked_circle {
    marker-start: url(#circle);
}
.svgbob .end_marked_open_circle {
    marker-end: url(#open_circle);
}
.svgbob .start_marked_open_circle {
    marker-start: url(#open_circle);
}
.svgbob .end_marked_big_open_circle {
    marker-end: url(#big_open_circle);
}
.svgbob .start_marked_big_open_circle {
    marker-start: url(#big_open_circle);
}<!--separator--></style><defs><marker id="arrow" viewBox="-2 -2 8 8" refX="4" refY="2" markerWidth="7" markerHeight="7" orient="auto-start-reverse"><polygon points="0,0 0,4 4,2 0,0"></polygon></marker><marker id="diamond" viewBox="-2 -2 8 8" refX="4" refY="2" markerWidth="7" markerHeight="7" orient="auto-start-reverse"><polygon points="0,2 2,0 4,2 2,4 0,2"></polygon></marker><marker id="circle" viewBox="0 0 8 8" refX="4" refY="4" markerWidth="7" markerHeight="7" orient="auto-start-reverse"><circle cx="4" cy="4" r="2" class="filled"></circle></marker><marker id="open_circle" viewBox="0 0 8 8" refX="4" refY="4" markerWidth="7" markerHeight="7" orient="auto-start-reverse"><circle cx="4" cy="4" r="2" class="bg_filled"></circle></marker><marker id="big_open_circle" viewBox="0 0 8 8" refX="4" refY="4" markerWidth="7" markerHeight="7" orient="auto-start-reverse"><circle cx="4" cy="4" r="3" class="bg_filled"></circle></marker></defs><rect class="backdrop" x="0" y="0" width="464" height="320"></rect><rect x="100" y="8" width="72" height="288" class="solid nofill" rx="0"></rect><text x="114" y="28" >IC</text><text x="138" y="60" >A</text><line x1="100" y1="64" x2="100" y2="80" class="solid"></line><line x1="172" y1="64" x2="172" y2="80" class="solid"></line><line x1="172" y1="96" x2="172" y2="112" class="solid"></line><line x1="100" y1="112" x2="100" y2="128" class="solid"></line><text x="146" y="140" >B</text><line x1="100" y1="160" x2="100" y2="176" class="solid"></line><line x1="172" y1="176" x2="172" y2="192" class="solid"></line><text x="122" y="220" >C</text><line x1="172" y1="240" x2="172" y2="272" class="solid"></line><rect x="4" y="56" width="64" height="32" class="solid nofill" rx="0"></rect><line x1="68" y1="64" x2="68" y2="80" class="solid"></line><text x="18" y="76" >CPU</text><text x="50" y="76" >0</text><rect x="380" y="56" width="72" height="64" class="solid nofill" rx="0"></rect><text x="394" y="76" >Disk</text><line x1="380" y1="80" x2="380" y2="112" class="solid"></line><text x="434" y="76" >0</text><rect x="204" y="136" width="120" height="160" class="solid nofill" rx="0"></rect><text x="218" y="156" >DRAM</text><line x1="204" y1="176" x2="204" y2="192" class="solid"></line><polygon points="216,180 224,184 216,188" class="filled"></polygon><text x="234" y="188" >Buffer</text><text x="290" y="188" >A</text><line x1="204" y1="240" x2="204" y2="272" class="solid"></line><polygon points="216,244 224,248 216,252" class="filled"></polygon><text x="234" y="252" >Buffer</text><text x="290" y="252" >B</text><rect x="4" y="200" width="64" height="32" class="solid nofill" rx="0"></rect><text x="18" y="220" >CPU</text><text x="50" y="220" >3</text><line x1="64" y1="72" x2="200" y2="72" class="solid"></line><polygon points="200,68 208,72 200,76" class="filled"></polygon><text x="218" y="76" >Storage</text><text x="282" y="76" >interface</text><text x="18" y="124" >CPU</text><text x="50" y="124" >1</text><polygon points="72,116 64,120 72,124" class="filled"></polygon><text x="18" y="172" >CPU</text><text x="50" y="172" >2</text><polygon points="72,164 64,168 72,172" class="filled"></polygon><g><line x1="204" y1="56" x2="364" y2="56" class="solid"></line><line x1="204" y1="56" x2="204" y2="64" class="solid"></line><line x1="364" y1="56" x2="364" y2="120" class="solid"></line><line x1="204" y1="80" x2="204" y2="120" class="solid"></line><line x1="204" y1="120" x2="364" y2="120" class="solid"></line></g><g><line x1="360" y1="88" x2="412" y2="88" class="solid"></line><line x1="412" y1="88" x2="412" y2="104" class="solid"></line><line x1="156" y1="104" x2="412" y2="104" class="solid"></line><line x1="156" y1="104" x2="156" y2="248" class="solid"></line><line x1="156" y1="184" x2="216" y2="184" class="solid"></line><line x1="156" y1="248" x2="216" y2="248" class="solid"></line></g><g><line x1="4" y1="104" x2="68" y2="104" class="solid"></line><line x1="4" y1="104" x2="4" y2="136" class="solid"></line><line x1="68" y1="104" x2="68" y2="112" class="solid"></line><line x1="4" y1="136" x2="68" y2="136" class="solid"></line><line x1="68" y1="128" x2="68" y2="136" class="solid"></line></g><g><line x1="72" y1="120" x2="116" y2="120" class="solid"></line><line x1="116" y1="120" x2="116" y2="264" class="solid"></line><line x1="72" y1="168" x2="116" y2="168" class="solid"></line><line x1="116" y1="264" x2="224" y2="264" class="solid"></line></g><g><line x1="4" y1="152" x2="68" y2="152" class="solid"></line><line x1="4" y1="152" x2="4" y2="184" class="solid"></line><line x1="68" y1="152" x2="68" y2="160" class="solid"></line><line x1="4" y1="184" x2="68" y2="184" class="solid"></line><line x1="68" y1="176" x2="68" y2="184" class="solid"></line></g><g><line x1="220" y1="168" x2="308" y2="168" class="solid"></line><line x1="220" y1="168" x2="220" y2="176" class="solid"></line><line x1="308" y1="168" x2="308" y2="216" class="solid"></line><line x1="220" y1="192" x2="220" y2="216" class="solid"></line><line x1="220" y1="216" x2="308" y2="216" class="solid"></line></g><g><line x1="220" y1="232" x2="308" y2="232" class="solid"></line><line x1="220" y1="232" x2="220" y2="240" class="solid"></line><line x1="308" y1="232" x2="308" y2="280" class="solid"></line><line x1="220" y1="256" x2="220" y2="280" class="solid"></line><line x1="220" y1="280" x2="308" y2="280" class="solid"></line></g></svg>