<?xml version="1.0" encoding="utf-8" standalone="no"?>
<!DOCTYPE svg PUBLIC "-//W3C//DTD SVG 1.1//EN"
  "http://www.w3.org/Graphics/SVG/1.1/DTD/svg11.dtd">
<svg xmlns:xlink="http://www.w3.org/1999/xlink" width="460.8pt" height="345.6pt" viewBox="0 0 460.8 345.6" xmlns="http://www.w3.org/2000/svg" version="1.1">
 <metadata>
  <rdf:RDF xmlns:dc="http://purl.org/dc/elements/1.1/" xmlns:cc="http://creativecommons.org/ns#" xmlns:rdf="http://www.w3.org/1999/02/22-rdf-syntax-ns#">
   <cc:Work>
    <dc:type rdf:resource="http://purl.org/dc/dcmitype/StillImage"/>
    <dc:date>2025-07-19T12:53:20.833698</dc:date>
    <dc:format>image/svg+xml</dc:format>
    <dc:creator>
     <cc:Agent>
      <dc:title>Matplotlib v3.10.0, https://matplotlib.org/</dc:title>
     </cc:Agent>
    </dc:creator>
   </cc:Work>
  </rdf:RDF>
 </metadata>
 <defs>
  <style type="text/css">*{stroke-linejoin: round; stroke-linecap: butt}</style>
 </defs>
 <g id="figure_1">
  <g id="patch_1">
   <path d="M 0 345.6 
L 460.8 345.6 
L 460.8 0 
L 0 0 
z
" style="fill: #ffffff"/>
  </g>
  <g id="axes_1">
   <g id="patch_2">
    <path d="M 57.6 307.584 
L 414.72 307.584 
L 414.72 41.472 
L 57.6 41.472 
z
" style="fill: #ffffff"/>
   </g>
   <g id="patch_3">
    <path d="M 57.6 242.26155 
L 414.72 242.26155 
L 414.72 242.26155 
L 57.6 242.26155 
z
" clip-path="url(#pc2d3262810)" style="stroke: #000000; stroke-linejoin: miter"/>
   </g>
   <g id="patch_4">
    <path d="M 57.6 236.967833 
L 414.72 236.967833 
L 414.72 236.967833 
L 57.6 236.967833 
z
" clip-path="url(#pc2d3262810)" style="fill: #0000ff; stroke: #0000ff; stroke-linejoin: miter"/>
   </g>
   <g id="patch_5">
    <path d="M 57.6 505.819259 
L 414.72 505.819259 
L 414.72 505.819259 
L 57.6 505.819259 
z
" clip-path="url(#pc2d3262810)" style="fill: #ff0000; stroke: #ff0000; stroke-linejoin: miter"/>
   </g>
   <g id="patch_6">
    <path d="M 57.6 136.792183 
L 414.72 136.792183 
L 414.72 136.792183 
L 57.6 136.792183 
z
" clip-path="url(#pc2d3262810)" style="fill: #008000; stroke: #008000; stroke-linejoin: miter"/>
   </g>
   <g id="patch_7">
    <path d="M 57.6 307.584 
L 254.639584 307.584 
L 254.639584 294.2784 
L 57.6 294.2784 
z
" clip-path="url(#pc2d3262810)" style="fill: #808080; stroke: #808080; stroke-linejoin: miter"/>
   </g>
   <g id="patch_8">
    <path d="M 249.755113 307.584 
L 254.639584 307.584 
L 254.639584 294.2784 
L 249.755113 294.2784 
z
" clip-path="url(#pc2d3262810)" style="fill: #008000; stroke: #008000; stroke-linejoin: miter"/>
   </g>
   <g id="patch_9">
    <path d="M 254.639584 307.584 
L 371.866903 307.584 
L 371.866903 294.2784 
L 254.639584 294.2784 
z
" clip-path="url(#pc2d3262810)" style="fill: #0000ff; stroke: #0000ff; stroke-linejoin: miter"/>
   </g>
   <g id="patch_10">
    <path d="M 371.866903 307.584 
L 414.72 307.584 
L 414.72 294.2784 
L 371.866903 294.2784 
z
" clip-path="url(#pc2d3262810)" style="fill: #ff0000; stroke: #ff0000; stroke-linejoin: miter"/>
   </g>
   <g id="patch_11">
    <path d="M 132.446386 251.286398 
C 134.81412 251.286398 137.085196 250.585417 138.759436 249.337838 
C 140.433676 248.090259 141.374386 246.397942 141.374386 244.633598 
C 141.374386 242.869255 140.433676 241.176938 138.759436 239.929358 
C 137.085196 238.681779 134.81412 237.980798 132.446386 237.980798 
C 130.078653 237.980798 127.807577 238.681779 126.133337 239.929358 
C 124.459097 241.176938 123.518386 242.869255 123.518386 244.633598 
C 123.518386 246.397942 124.459097 248.090259 126.133337 249.337838 
C 127.807577 250.585417 130.078653 251.286398 132.446386 251.286398 
z
" clip-path="url(#pc2d3262810)" style="fill: #ff0000; stroke: #ff0000; stroke-linejoin: miter"/>
   </g>
   <g id="patch_12">
    <path d="M 249.673705 143.936749 
C 252.041438 143.936749 254.312514 143.235768 255.986754 141.988189 
C 257.660994 140.74061 258.601705 139.048292 258.601705 137.283949 
C 258.601705 135.519606 257.660994 133.827288 255.986754 132.579709 
C 254.312514 131.33213 252.041438 130.631149 249.673705 130.631149 
C 247.305971 130.631149 245.034896 131.33213 243.360655 132.579709 
C 241.686415 133.827288 240.745705 135.519606 240.745705 137.283949 
C 240.745705 139.048292 241.686415 140.74061 243.360655 141.988189 
C 245.034896 143.235768 247.305971 143.936749 249.673705 143.936749 
z
" clip-path="url(#pc2d3262810)" style="fill: #ff0000; stroke: #ff0000; stroke-linejoin: miter"/>
   </g>
   <g id="patch_13">
    <path d="M 132.446386 244.633598 
L 249.673705 137.283949 
z
" clip-path="url(#pc2d3262810)" style="fill: #ff0000; stroke: #ff0000; stroke-linejoin: miter"/>
   </g>
   <g id="patch_14">
    <path d="M 249.83652 307.584 
L 249.83652 307.584 
L 249.83652 41.472 
L 249.83652 41.472 
z
" clip-path="url(#pc2d3262810)" style="fill: #008000; stroke: #008000; stroke-linejoin: miter"/>
   </g>
   <g id="patch_15">
    <path d="M 364.133156 307.584 
L 364.133156 307.584 
L 364.133156 41.472 
L 364.133156 41.472 
z
" clip-path="url(#pc2d3262810)" style="fill: #0000ff; stroke: #0000ff; stroke-linejoin: miter"/>
   </g>
   <g id="patch_16">
    <path d="M 249.83652 248.885423 
C 252.204254 248.885423 254.47533 248.184442 256.14957 246.936863 
C 257.82381 245.689284 258.76452 243.996966 258.76452 242.232623 
C 258.76452 240.46828 257.82381 238.775962 256.14957 237.528383 
C 254.47533 236.280804 252.204254 235.579823 249.83652 235.579823 
C 247.468787 235.579823 245.197711 236.280804 243.523471 237.528383 
C 241.849231 238.775962 240.90852 240.46828 240.90852 242.232623 
C 240.90852 243.996966 241.849231 245.689284 243.523471 246.936863 
C 245.197711 248.184442 247.468787 248.885423 249.83652 248.885423 
z
" clip-path="url(#pc2d3262810)" style="fill: #0000ff; stroke: #0000ff; stroke-linejoin: miter"/>
   </g>
   <g id="patch_17">
    <path d="M 364.214564 140.234039 
C 366.582297 140.234039 368.853373 139.533058 370.527613 138.285479 
C 372.201853 137.0379 373.142564 135.345582 373.142564 133.581239 
C 373.142564 131.816896 372.201853 130.124578 370.527613 128.876999 
C 368.853373 127.62942 366.582297 126.928439 364.214564 126.928439 
C 361.84683 126.928439 359.575755 127.62942 357.901514 128.876999 
C 356.227274 130.124578 355.286564 131.816896 355.286564 133.581239 
C 355.286564 135.345582 356.227274 137.0379 357.901514 138.285479 
C 359.575755 139.533058 361.84683 140.234039 364.214564 140.234039 
z
" clip-path="url(#pc2d3262810)" style="fill: #0000ff; stroke: #0000ff; stroke-linejoin: miter"/>
   </g>
   <g id="patch_18">
    <path d="M 249.83652 242.232623 
L 364.214564 133.581239 
z
" clip-path="url(#pc2d3262810)" style="fill: #0000ff; stroke: #0000ff; stroke-linejoin: miter"/>
   </g>
   <g id="matplotlib.axis_1">
    <g id="xtick_1">
     <g id="line2d_1">
      <defs>
       <path id="mfd3f8230cc" d="M 0 0 
L 0 3.5 
" style="stroke: #000000; stroke-width: 0.8"/>
      </defs>
      <g>
       <use xlink:href="#mfd3f8230cc" x="96.708336" y="307.584" style="stroke: #000000; stroke-width: 0.8"/>
      </g>
     </g>
     <g id="text_1">
      <!-- 28423000 -->
      <g transform="translate(71.258336 322.182437) scale(0.1 -0.1)">
       <defs>
        <path id="DejaVuSans-32" d="M 1228 531 
L 3431 531 
L 3431 0 
L 469 0 
L 469 531 
Q 828 903 1448 1529 
Q 2069 2156 2228 2338 
Q 2531 2678 2651 2914 
Q 2772 3150 2772 3378 
Q 2772 3750 2511 3984 
Q 2250 4219 1831 4219 
Q 1534 4219 1204 4116 
Q 875 4013 500 3803 
L 500 4441 
Q 881 4594 1212 4672 
Q 1544 4750 1819 4750 
Q 2544 4750 2975 4387 
Q 3406 4025 3406 3419 
Q 3406 3131 3298 2873 
Q 3191 2616 2906 2266 
Q 2828 2175 2409 1742 
Q 1991 1309 1228 531 
z
" transform="scale(0.015625)"/>
        <path id="DejaVuSans-38" d="M 2034 2216 
Q 1584 2216 1326 1975 
Q 1069 1734 1069 1313 
Q 1069 891 1326 650 
Q 1584 409 2034 409 
Q 2484 409 2743 651 
Q 3003 894 3003 1313 
Q 3003 1734 2745 1975 
Q 2488 2216 2034 2216 
z
M 1403 2484 
Q 997 2584 770 2862 
Q 544 3141 544 3541 
Q 544 4100 942 4425 
Q 1341 4750 2034 4750 
Q 2731 4750 3128 4425 
Q 3525 4100 3525 3541 
Q 3525 3141 3298 2862 
Q 3072 2584 2669 2484 
Q 3125 2378 3379 2068 
Q 3634 1759 3634 1313 
Q 3634 634 3220 271 
Q 2806 -91 2034 -91 
Q 1263 -91 848 271 
Q 434 634 434 1313 
Q 434 1759 690 2068 
Q 947 2378 1403 2484 
z
M 1172 3481 
Q 1172 3119 1398 2916 
Q 1625 2713 2034 2713 
Q 2441 2713 2670 2916 
Q 2900 3119 2900 3481 
Q 2900 3844 2670 4047 
Q 2441 4250 2034 4250 
Q 1625 4250 1398 4047 
Q 1172 3844 1172 3481 
z
" transform="scale(0.015625)"/>
        <path id="DejaVuSans-34" d="M 2419 4116 
L 825 1625 
L 2419 1625 
L 2419 4116 
z
M 2253 4666 
L 3047 4666 
L 3047 1625 
L 3713 1625 
L 3713 1100 
L 3047 1100 
L 3047 0 
L 2419 0 
L 2419 1100 
L 313 1100 
L 313 1709 
L 2253 4666 
z
" transform="scale(0.015625)"/>
        <path id="DejaVuSans-33" d="M 2597 2516 
Q 3050 2419 3304 2112 
Q 3559 1806 3559 1356 
Q 3559 666 3084 287 
Q 2609 -91 1734 -91 
Q 1441 -91 1130 -33 
Q 819 25 488 141 
L 488 750 
Q 750 597 1062 519 
Q 1375 441 1716 441 
Q 2309 441 2620 675 
Q 2931 909 2931 1356 
Q 2931 1769 2642 2001 
Q 2353 2234 1838 2234 
L 1294 2234 
L 1294 2753 
L 1863 2753 
Q 2328 2753 2575 2939 
Q 2822 3125 2822 3475 
Q 2822 3834 2567 4026 
Q 2313 4219 1838 4219 
Q 1578 4219 1281 4162 
Q 984 4106 628 3988 
L 628 4550 
Q 988 4650 1302 4700 
Q 1616 4750 1894 4750 
Q 2613 4750 3031 4423 
Q 3450 4097 3450 3541 
Q 3450 3153 3228 2886 
Q 3006 2619 2597 2516 
z
" transform="scale(0.015625)"/>
        <path id="DejaVuSans-30" d="M 2034 4250 
Q 1547 4250 1301 3770 
Q 1056 3291 1056 2328 
Q 1056 1369 1301 889 
Q 1547 409 2034 409 
Q 2525 409 2770 889 
Q 3016 1369 3016 2328 
Q 3016 3291 2770 3770 
Q 2525 4250 2034 4250 
z
M 2034 4750 
Q 2819 4750 3233 4129 
Q 3647 3509 3647 2328 
Q 3647 1150 3233 529 
Q 2819 -91 2034 -91 
Q 1250 -91 836 529 
Q 422 1150 422 2328 
Q 422 3509 836 4129 
Q 1250 4750 2034 4750 
z
" transform="scale(0.015625)"/>
       </defs>
       <use xlink:href="#DejaVuSans-32"/>
       <use xlink:href="#DejaVuSans-38" transform="translate(63.623047 0)"/>
       <use xlink:href="#DejaVuSans-34" transform="translate(127.246094 0)"/>
       <use xlink:href="#DejaVuSans-32" transform="translate(190.869141 0)"/>
       <use xlink:href="#DejaVuSans-33" transform="translate(254.492188 0)"/>
       <use xlink:href="#DejaVuSans-30" transform="translate(318.115234 0)"/>
       <use xlink:href="#DejaVuSans-30" transform="translate(381.738281 0)"/>
       <use xlink:href="#DejaVuSans-30" transform="translate(445.361328 0)"/>
      </g>
     </g>
    </g>
    <g id="xtick_2">
     <g id="line2d_2">
      <g>
       <use xlink:href="#mfd3f8230cc" x="137.412266" y="307.584" style="stroke: #000000; stroke-width: 0.8"/>
      </g>
     </g>
     <g id="text_2">
      <!-- 28423500 -->
      <g transform="translate(111.962266 322.182437) scale(0.1 -0.1)">
       <defs>
        <path id="DejaVuSans-35" d="M 691 4666 
L 3169 4666 
L 3169 4134 
L 1269 4134 
L 1269 2991 
Q 1406 3038 1543 3061 
Q 1681 3084 1819 3084 
Q 2600 3084 3056 2656 
Q 3513 2228 3513 1497 
Q 3513 744 3044 326 
Q 2575 -91 1722 -91 
Q 1428 -91 1123 -41 
Q 819 9 494 109 
L 494 744 
Q 775 591 1075 516 
Q 1375 441 1709 441 
Q 2250 441 2565 725 
Q 2881 1009 2881 1497 
Q 2881 1984 2565 2268 
Q 2250 2553 1709 2553 
Q 1456 2553 1204 2497 
Q 953 2441 691 2322 
L 691 4666 
z
" transform="scale(0.015625)"/>
       </defs>
       <use xlink:href="#DejaVuSans-32"/>
       <use xlink:href="#DejaVuSans-38" transform="translate(63.623047 0)"/>
       <use xlink:href="#DejaVuSans-34" transform="translate(127.246094 0)"/>
       <use xlink:href="#DejaVuSans-32" transform="translate(190.869141 0)"/>
       <use xlink:href="#DejaVuSans-33" transform="translate(254.492188 0)"/>
       <use xlink:href="#DejaVuSans-35" transform="translate(318.115234 0)"/>
       <use xlink:href="#DejaVuSans-30" transform="translate(381.738281 0)"/>
       <use xlink:href="#DejaVuSans-30" transform="translate(445.361328 0)"/>
      </g>
     </g>
    </g>
    <g id="xtick_3">
     <g id="line2d_3">
      <g>
       <use xlink:href="#mfd3f8230cc" x="178.116196" y="307.584" style="stroke: #000000; stroke-width: 0.8"/>
      </g>
     </g>
     <g id="text_3">
      <!-- 28424000 -->
      <g transform="translate(152.666196 322.182437) scale(0.1 -0.1)">
       <use xlink:href="#DejaVuSans-32"/>
       <use xlink:href="#DejaVuSans-38" transform="translate(63.623047 0)"/>
       <use xlink:href="#DejaVuSans-34" transform="translate(127.246094 0)"/>
       <use xlink:href="#DejaVuSans-32" transform="translate(190.869141 0)"/>
       <use xlink:href="#DejaVuSans-34" transform="translate(254.492188 0)"/>
       <use xlink:href="#DejaVuSans-30" transform="translate(318.115234 0)"/>
       <use xlink:href="#DejaVuSans-30" transform="translate(381.738281 0)"/>
       <use xlink:href="#DejaVuSans-30" transform="translate(445.361328 0)"/>
      </g>
     </g>
    </g>
    <g id="xtick_4">
     <g id="line2d_4">
      <g>
       <use xlink:href="#mfd3f8230cc" x="218.820126" y="307.584" style="stroke: #000000; stroke-width: 0.8"/>
      </g>
     </g>
     <g id="text_4">
      <!-- 28424500 -->
      <g transform="translate(193.370126 322.182437) scale(0.1 -0.1)">
       <use xlink:href="#DejaVuSans-32"/>
       <use xlink:href="#DejaVuSans-38" transform="translate(63.623047 0)"/>
       <use xlink:href="#DejaVuSans-34" transform="translate(127.246094 0)"/>
       <use xlink:href="#DejaVuSans-32" transform="translate(190.869141 0)"/>
       <use xlink:href="#DejaVuSans-34" transform="translate(254.492188 0)"/>
       <use xlink:href="#DejaVuSans-35" transform="translate(318.115234 0)"/>
       <use xlink:href="#DejaVuSans-30" transform="translate(381.738281 0)"/>
       <use xlink:href="#DejaVuSans-30" transform="translate(445.361328 0)"/>
      </g>
     </g>
    </g>
    <g id="xtick_5">
     <g id="line2d_5">
      <g>
       <use xlink:href="#mfd3f8230cc" x="259.524056" y="307.584" style="stroke: #000000; stroke-width: 0.8"/>
      </g>
     </g>
     <g id="text_5">
      <!-- 28425000 -->
      <g transform="translate(234.074056 322.182437) scale(0.1 -0.1)">
       <use xlink:href="#DejaVuSans-32"/>
       <use xlink:href="#DejaVuSans-38" transform="translate(63.623047 0)"/>
       <use xlink:href="#DejaVuSans-34" transform="translate(127.246094 0)"/>
       <use xlink:href="#DejaVuSans-32" transform="translate(190.869141 0)"/>
       <use xlink:href="#DejaVuSans-35" transform="translate(254.492188 0)"/>
       <use xlink:href="#DejaVuSans-30" transform="translate(318.115234 0)"/>
       <use xlink:href="#DejaVuSans-30" transform="translate(381.738281 0)"/>
       <use xlink:href="#DejaVuSans-30" transform="translate(445.361328 0)"/>
      </g>
     </g>
    </g>
    <g id="xtick_6">
     <g id="line2d_6">
      <g>
       <use xlink:href="#mfd3f8230cc" x="300.227986" y="307.584" style="stroke: #000000; stroke-width: 0.8"/>
      </g>
     </g>
     <g id="text_6">
      <!-- 28425500 -->
      <g transform="translate(274.777986 322.182437) scale(0.1 -0.1)">
       <use xlink:href="#DejaVuSans-32"/>
       <use xlink:href="#DejaVuSans-38" transform="translate(63.623047 0)"/>
       <use xlink:href="#DejaVuSans-34" transform="translate(127.246094 0)"/>
       <use xlink:href="#DejaVuSans-32" transform="translate(190.869141 0)"/>
       <use xlink:href="#DejaVuSans-35" transform="translate(254.492188 0)"/>
       <use xlink:href="#DejaVuSans-35" transform="translate(318.115234 0)"/>
       <use xlink:href="#DejaVuSans-30" transform="translate(381.738281 0)"/>
       <use xlink:href="#DejaVuSans-30" transform="translate(445.361328 0)"/>
      </g>
     </g>
    </g>
    <g id="xtick_7">
     <g id="line2d_7">
      <g>
       <use xlink:href="#mfd3f8230cc" x="340.931916" y="307.584" style="stroke: #000000; stroke-width: 0.8"/>
      </g>
     </g>
     <g id="text_7">
      <!-- 28426000 -->
      <g transform="translate(315.481916 322.182437) scale(0.1 -0.1)">
       <defs>
        <path id="DejaVuSans-36" d="M 2113 2584 
Q 1688 2584 1439 2293 
Q 1191 2003 1191 1497 
Q 1191 994 1439 701 
Q 1688 409 2113 409 
Q 2538 409 2786 701 
Q 3034 994 3034 1497 
Q 3034 2003 2786 2293 
Q 2538 2584 2113 2584 
z
M 3366 4563 
L 3366 3988 
Q 3128 4100 2886 4159 
Q 2644 4219 2406 4219 
Q 1781 4219 1451 3797 
Q 1122 3375 1075 2522 
Q 1259 2794 1537 2939 
Q 1816 3084 2150 3084 
Q 2853 3084 3261 2657 
Q 3669 2231 3669 1497 
Q 3669 778 3244 343 
Q 2819 -91 2113 -91 
Q 1303 -91 875 529 
Q 447 1150 447 2328 
Q 447 3434 972 4092 
Q 1497 4750 2381 4750 
Q 2619 4750 2861 4703 
Q 3103 4656 3366 4563 
z
" transform="scale(0.015625)"/>
       </defs>
       <use xlink:href="#DejaVuSans-32"/>
       <use xlink:href="#DejaVuSans-38" transform="translate(63.623047 0)"/>
       <use xlink:href="#DejaVuSans-34" transform="translate(127.246094 0)"/>
       <use xlink:href="#DejaVuSans-32" transform="translate(190.869141 0)"/>
       <use xlink:href="#DejaVuSans-36" transform="translate(254.492188 0)"/>
       <use xlink:href="#DejaVuSans-30" transform="translate(318.115234 0)"/>
       <use xlink:href="#DejaVuSans-30" transform="translate(381.738281 0)"/>
       <use xlink:href="#DejaVuSans-30" transform="translate(445.361328 0)"/>
      </g>
     </g>
    </g>
    <g id="xtick_8">
     <g id="line2d_8">
      <g>
       <use xlink:href="#mfd3f8230cc" x="381.635846" y="307.584" style="stroke: #000000; stroke-width: 0.8"/>
      </g>
     </g>
     <g id="text_8">
      <!-- 28426500 -->
      <g transform="translate(356.185846 322.182437) scale(0.1 -0.1)">
       <use xlink:href="#DejaVuSans-32"/>
       <use xlink:href="#DejaVuSans-38" transform="translate(63.623047 0)"/>
       <use xlink:href="#DejaVuSans-34" transform="translate(127.246094 0)"/>
       <use xlink:href="#DejaVuSans-32" transform="translate(190.869141 0)"/>
       <use xlink:href="#DejaVuSans-36" transform="translate(254.492188 0)"/>
       <use xlink:href="#DejaVuSans-35" transform="translate(318.115234 0)"/>
       <use xlink:href="#DejaVuSans-30" transform="translate(381.738281 0)"/>
       <use xlink:href="#DejaVuSans-30" transform="translate(445.361328 0)"/>
      </g>
     </g>
    </g>
    <g id="text_9">
     <!-- MID -->
     <g transform="translate(226.520938 335.860562) scale(0.1 -0.1)">
      <defs>
       <path id="DejaVuSans-4d" d="M 628 4666 
L 1569 4666 
L 2759 1491 
L 3956 4666 
L 4897 4666 
L 4897 0 
L 4281 0 
L 4281 4097 
L 3078 897 
L 2444 897 
L 1241 4097 
L 1241 0 
L 628 0 
L 628 4666 
z
" transform="scale(0.015625)"/>
       <path id="DejaVuSans-49" d="M 628 4666 
L 1259 4666 
L 1259 0 
L 628 0 
L 628 4666 
z
" transform="scale(0.015625)"/>
       <path id="DejaVuSans-44" d="M 1259 4147 
L 1259 519 
L 2022 519 
Q 2988 519 3436 956 
Q 3884 1394 3884 2338 
Q 3884 3275 3436 3711 
Q 2988 4147 2022 4147 
L 1259 4147 
z
M 628 4666 
L 1925 4666 
Q 3281 4666 3915 4102 
Q 4550 3538 4550 2338 
Q 4550 1131 3912 565 
Q 3275 0 1925 0 
L 628 0 
L 628 4666 
z
" transform="scale(0.015625)"/>
      </defs>
      <use xlink:href="#DejaVuSans-4d"/>
      <use xlink:href="#DejaVuSans-49" transform="translate(86.279297 0)"/>
      <use xlink:href="#DejaVuSans-44" transform="translate(115.771484 0)"/>
     </g>
    </g>
   </g>
   <g id="matplotlib.axis_2">
    <g id="ytick_1">
     <g id="line2d_9">
      <defs>
       <path id="m39d3831e07" d="M 0 0 
L -3.5 0 
" style="stroke: #85c1ff; stroke-width: 0.8"/>
      </defs>
      <g>
       <use xlink:href="#m39d3831e07" x="57.6" y="306.972185" style="fill: #85c1ff; stroke: #85c1ff; stroke-width: 0.8"/>
      </g>
     </g>
     <g id="text_10">
      <!-- 180 -->
      <g style="fill: #85c1ff" transform="translate(31.5125 310.771404) scale(0.1 -0.1)">
       <defs>
        <path id="DejaVuSans-31" d="M 794 531 
L 1825 531 
L 1825 4091 
L 703 3866 
L 703 4441 
L 1819 4666 
L 2450 4666 
L 2450 531 
L 3481 531 
L 3481 0 
L 794 0 
L 794 531 
z
" transform="scale(0.015625)"/>
       </defs>
       <use xlink:href="#DejaVuSans-31"/>
       <use xlink:href="#DejaVuSans-38" transform="translate(63.623047 0)"/>
       <use xlink:href="#DejaVuSans-30" transform="translate(127.246094 0)"/>
      </g>
     </g>
    </g>
    <g id="ytick_2">
     <g id="line2d_10">
      <g>
       <use xlink:href="#m39d3831e07" x="57.6" y="249.117348" style="fill: #85c1ff; stroke: #85c1ff; stroke-width: 0.8"/>
      </g>
     </g>
     <g id="text_11">
      <!-- 182 -->
      <g style="fill: #85c1ff" transform="translate(31.5125 252.916567) scale(0.1 -0.1)">
       <use xlink:href="#DejaVuSans-31"/>
       <use xlink:href="#DejaVuSans-38" transform="translate(63.623047 0)"/>
       <use xlink:href="#DejaVuSans-32" transform="translate(127.246094 0)"/>
      </g>
     </g>
    </g>
    <g id="ytick_3">
     <g id="line2d_11">
      <g>
       <use xlink:href="#m39d3831e07" x="57.6" y="191.262512" style="fill: #85c1ff; stroke: #85c1ff; stroke-width: 0.8"/>
      </g>
     </g>
     <g id="text_12">
      <!-- 184 -->
      <g style="fill: #85c1ff" transform="translate(31.5125 195.06173) scale(0.1 -0.1)">
       <use xlink:href="#DejaVuSans-31"/>
       <use xlink:href="#DejaVuSans-38" transform="translate(63.623047 0)"/>
       <use xlink:href="#DejaVuSans-34" transform="translate(127.246094 0)"/>
      </g>
     </g>
    </g>
    <g id="ytick_4">
     <g id="line2d_12">
      <g>
       <use xlink:href="#m39d3831e07" x="57.6" y="133.407675" style="fill: #85c1ff; stroke: #85c1ff; stroke-width: 0.8"/>
      </g>
     </g>
     <g id="text_13">
      <!-- 186 -->
      <g style="fill: #85c1ff" transform="translate(31.5125 137.206894) scale(0.1 -0.1)">
       <use xlink:href="#DejaVuSans-31"/>
       <use xlink:href="#DejaVuSans-38" transform="translate(63.623047 0)"/>
       <use xlink:href="#DejaVuSans-36" transform="translate(127.246094 0)"/>
      </g>
     </g>
    </g>
    <g id="ytick_5">
     <g id="line2d_13">
      <g>
       <use xlink:href="#m39d3831e07" x="57.6" y="75.552838" style="fill: #85c1ff; stroke: #85c1ff; stroke-width: 0.8"/>
      </g>
     </g>
     <g id="text_14">
      <!-- 188 -->
      <g style="fill: #85c1ff" transform="translate(31.5125 79.352057) scale(0.1 -0.1)">
       <use xlink:href="#DejaVuSans-31"/>
       <use xlink:href="#DejaVuSans-38" transform="translate(63.623047 0)"/>
       <use xlink:href="#DejaVuSans-38" transform="translate(127.246094 0)"/>
      </g>
     </g>
    </g>
    <g id="text_15">
     <!-- NYSE:AAPL#1d -->
     <g style="fill: #85c1ff" transform="translate(25.432812 212.664719) rotate(-90) scale(0.1 -0.1)">
      <defs>
       <path id="DejaVuSans-4e" d="M 628 4666 
L 1478 4666 
L 3547 763 
L 3547 4666 
L 4159 4666 
L 4159 0 
L 3309 0 
L 1241 3903 
L 1241 0 
L 628 0 
L 628 4666 
z
" transform="scale(0.015625)"/>
       <path id="DejaVuSans-59" d="M -13 4666 
L 666 4666 
L 1959 2747 
L 3244 4666 
L 3922 4666 
L 2272 2222 
L 2272 0 
L 1638 0 
L 1638 2222 
L -13 4666 
z
" transform="scale(0.015625)"/>
       <path id="DejaVuSans-53" d="M 3425 4513 
L 3425 3897 
Q 3066 4069 2747 4153 
Q 2428 4238 2131 4238 
Q 1616 4238 1336 4038 
Q 1056 3838 1056 3469 
Q 1056 3159 1242 3001 
Q 1428 2844 1947 2747 
L 2328 2669 
Q 3034 2534 3370 2195 
Q 3706 1856 3706 1288 
Q 3706 609 3251 259 
Q 2797 -91 1919 -91 
Q 1588 -91 1214 -16 
Q 841 59 441 206 
L 441 856 
Q 825 641 1194 531 
Q 1563 422 1919 422 
Q 2459 422 2753 634 
Q 3047 847 3047 1241 
Q 3047 1584 2836 1778 
Q 2625 1972 2144 2069 
L 1759 2144 
Q 1053 2284 737 2584 
Q 422 2884 422 3419 
Q 422 4038 858 4394 
Q 1294 4750 2059 4750 
Q 2388 4750 2728 4690 
Q 3069 4631 3425 4513 
z
" transform="scale(0.015625)"/>
       <path id="DejaVuSans-45" d="M 628 4666 
L 3578 4666 
L 3578 4134 
L 1259 4134 
L 1259 2753 
L 3481 2753 
L 3481 2222 
L 1259 2222 
L 1259 531 
L 3634 531 
L 3634 0 
L 628 0 
L 628 4666 
z
" transform="scale(0.015625)"/>
       <path id="DejaVuSans-3a" d="M 750 794 
L 1409 794 
L 1409 0 
L 750 0 
L 750 794 
z
M 750 3309 
L 1409 3309 
L 1409 2516 
L 750 2516 
L 750 3309 
z
" transform="scale(0.015625)"/>
       <path id="DejaVuSans-41" d="M 2188 4044 
L 1331 1722 
L 3047 1722 
L 2188 4044 
z
M 1831 4666 
L 2547 4666 
L 4325 0 
L 3669 0 
L 3244 1197 
L 1141 1197 
L 716 0 
L 50 0 
L 1831 4666 
z
" transform="scale(0.015625)"/>
       <path id="DejaVuSans-50" d="M 1259 4147 
L 1259 2394 
L 2053 2394 
Q 2494 2394 2734 2622 
Q 2975 2850 2975 3272 
Q 2975 3691 2734 3919 
Q 2494 4147 2053 4147 
L 1259 4147 
z
M 628 4666 
L 2053 4666 
Q 2838 4666 3239 4311 
Q 3641 3956 3641 3272 
Q 3641 2581 3239 2228 
Q 2838 1875 2053 1875 
L 1259 1875 
L 1259 0 
L 628 0 
L 628 4666 
z
" transform="scale(0.015625)"/>
       <path id="DejaVuSans-4c" d="M 628 4666 
L 1259 4666 
L 1259 531 
L 3531 531 
L 3531 0 
L 628 0 
L 628 4666 
z
" transform="scale(0.015625)"/>
       <path id="DejaVuSans-23" d="M 3272 2816 
L 2363 2816 
L 2100 1772 
L 3016 1772 
L 3272 2816 
z
M 2803 4594 
L 2478 3297 
L 3391 3297 
L 3719 4594 
L 4219 4594 
L 3897 3297 
L 4872 3297 
L 4872 2816 
L 3775 2816 
L 3519 1772 
L 4513 1772 
L 4513 1294 
L 3397 1294 
L 3072 0 
L 2572 0 
L 2894 1294 
L 1978 1294 
L 1656 0 
L 1153 0 
L 1478 1294 
L 494 1294 
L 494 1772 
L 1594 1772 
L 1856 2816 
L 850 2816 
L 850 3297 
L 1978 3297 
L 2297 4594 
L 2803 4594 
z
" transform="scale(0.015625)"/>
       <path id="DejaVuSans-64" d="M 2906 2969 
L 2906 4863 
L 3481 4863 
L 3481 0 
L 2906 0 
L 2906 525 
Q 2725 213 2448 61 
Q 2172 -91 1784 -91 
Q 1150 -91 751 415 
Q 353 922 353 1747 
Q 353 2572 751 3078 
Q 1150 3584 1784 3584 
Q 2172 3584 2448 3432 
Q 2725 3281 2906 2969 
z
M 947 1747 
Q 947 1113 1208 752 
Q 1469 391 1925 391 
Q 2381 391 2643 752 
Q 2906 1113 2906 1747 
Q 2906 2381 2643 2742 
Q 2381 3103 1925 3103 
Q 1469 3103 1208 2742 
Q 947 2381 947 1747 
z
" transform="scale(0.015625)"/>
      </defs>
      <use xlink:href="#DejaVuSans-4e"/>
      <use xlink:href="#DejaVuSans-59" transform="translate(74.804688 0)"/>
      <use xlink:href="#DejaVuSans-53" transform="translate(135.888672 0)"/>
      <use xlink:href="#DejaVuSans-45" transform="translate(199.365234 0)"/>
      <use xlink:href="#DejaVuSans-3a" transform="translate(262.548828 0)"/>
      <use xlink:href="#DejaVuSans-41" transform="translate(296.240234 0)"/>
      <use xlink:href="#DejaVuSans-41" transform="translate(367.398438 0)"/>
      <use xlink:href="#DejaVuSans-50" transform="translate(435.806641 0)"/>
      <use xlink:href="#DejaVuSans-4c" transform="translate(496.109375 0)"/>
      <use xlink:href="#DejaVuSans-23" transform="translate(551.822266 0)"/>
      <use xlink:href="#DejaVuSans-31" transform="translate(635.611328 0)"/>
      <use xlink:href="#DejaVuSans-64" transform="translate(699.234375 0)"/>
     </g>
    </g>
   </g>
   <g id="line2d_14">
    <path d="M 249.755113 242.26155 
L 249.917928 239.484518 
L 249.999336 241.046599 
L 250.162152 238.819187 
L 250.24356 240.496978 
L 250.324968 239.426663 
L 250.569191 242.608679 
L 250.650599 242.608679 
L 250.732007 242.984736 
L 250.813415 244.517889 
L 250.976231 242.116913 
L 251.057638 242.406187 
L 251.139046 241.567292 
L 251.220454 241.654074 
L 251.301862 242.406187 
L 251.627493 236.852123 
L 251.708901 236.852123 
L 251.790309 235.723954 
L 251.871717 237.083542 
L 252.034533 236.447139 
L 252.197348 238.211712 
L 252.360164 238.472058 
L 252.52298 241.567292 
L 252.685796 241.567292 
L 252.767203 238.67455 
L 252.848611 238.703478 
L 252.930019 239.339881 
L 253.174243 244.83609 
L 253.337058 244.199687 
L 253.418466 244.228615 
L 253.581282 244.807163 
L 253.66269 244.807163 
L 253.744098 245.993187 
L 253.906913 245.212147 
L 254.151137 245.212147 
L 254.313953 246.513881 
L 254.476768 239.976284 
L 254.558176 241.278018 
L 254.639584 208.069342 
L 254.8024 246.108897 
L 254.965216 238.529913 
L 255.128031 243.418647 
L 255.209439 243.216155 
L 255.290847 243.881486 
L 255.372255 243.505429 
L 255.616479 245.588203 
L 255.779294 243.997195 
L 255.94211 206.709753 
L 256.104926 247.960252 
L 256.349149 248.452018 
L 256.430557 248.191671 
L 256.919004 255.741727 
L 257.000412 254.208574 
L 257.163228 259.473364 
L 257.244636 259.733711 
L 257.326044 260.919735 
L 257.651675 256.088856 
L 257.814491 259.96513 
L 257.895899 259.357654 
L 258.058714 260.427969 
L 258.547161 271.536098 
L 258.791385 269.019412 
L 258.872793 270.552565 
L 259.035609 267.949098 
L 259.198424 271.62288 
L 259.279832 271.449315 
L 259.442648 269.540106 
L 259.605464 267.862315 
L 259.686872 267.630896 
L 259.768279 268.787993 
L 259.849687 267.949098 
L 259.931095 268.209444 
L 260.093911 267.601969 
L 260.50095 263.291783 
L 260.582358 263.696767 
L 260.663766 263.002509 
L 260.745174 252.183655 
L 260.907989 260.919735 
L 261.070805 262.221469 
L 261.152213 261.556138 
L 261.233621 261.87434 
L 261.477844 266.849856 
L 261.559252 270.523638 
L 261.64066 267.775533 
L 261.722068 269.135122 
L 261.803476 273.156033 
L 261.966292 271.565025 
L 262.047699 275.296662 
L 262.291923 290.801758 
L 262.536147 282.094605 
L 262.698962 289.008258 
L 262.861778 285.508041 
L 262.943186 285.62375 
L 263.024594 288.458637 
L 263.106002 295.488 
L 263.350225 289.123968 
L 263.431633 292.277057 
L 263.838672 266.849856 
L 264.001488 276.569468 
L 264.164304 278.883662 
L 264.32712 271.449315 
L 264.489935 268.006953 
L 264.571343 270.639348 
L 264.734159 261.237937 
L 264.815567 263.986041 
L 264.978382 260.341187 
L 265.05979 264.622445 
L 265.141198 262.713235 
L 265.222606 266.35809 
L 265.304014 263.089291 
L 265.385422 264.072824 
L 265.46683 262.77109 
L 265.629645 255.510308 
L 265.792461 258.894816 
L 265.873869 254.989614 
L 265.955277 255.105324 
L 266.1995 264.622445 
L 266.280908 263.581058 
L 266.362316 265.027428 
L 266.443724 261.324719 
L 266.525132 263.465348 
L 266.687947 255.48138 
L 266.769355 256.60955 
L 266.850763 260.19655 
L 266.932171 258.721251 
L 267.013579 260.456896 
L 267.094987 260.051912 
L 267.176395 260.051912 
L 267.33921 266.705219 
L 267.664842 255.134251 
L 267.74625 255.423526 
L 267.909065 256.464913 
L 268.071881 261.151154 
L 268.234697 256.031001 
L 268.397513 259.907275 
L 268.47892 257.766646 
L 268.804552 262.857872 
L 268.88596 265.519195 
L 268.967368 265.432412 
L 269.048775 265.866324 
L 269.211591 264.362098 
L 269.455815 258.229485 
L 269.537223 257.245953 
L 269.700038 252.762203 
L 269.862854 252.877913 
L 269.944262 253.68788 
L 270.02567 252.328292 
L 270.107078 253.601098 
L 270.269893 249.175203 
L 270.351301 250.3323 
L 270.676933 258.952671 
L 270.75834 257.101316 
L 270.839748 258.142703 
L 271.16538 251.402614 
L 271.246788 251.952235 
L 271.328195 252.444001 
L 271.409603 254.70034 
L 271.491011 253.9193 
L 271.572419 254.989614 
L 271.735235 253.745735 
L 271.816643 255.683872 
L 271.898051 254.960687 
L 271.979458 252.935768 
L 272.060866 254.063937 
L 272.142274 252.530784 
L 272.30509 256.464913 
L 272.386498 256.117784 
L 272.467906 256.291348 
L 272.549313 255.192106 
L 272.793537 258.808033 
L 272.874945 258.923743 
L 272.956353 257.361663 
L 273.200576 259.18409 
L 273.363392 256.638477 
L 273.526208 262.134687 
L 273.689023 262.973582 
L 273.933247 260.832953 
L 274.096063 257.622009 
L 274.258878 252.820058 
L 274.421694 255.48138 
L 274.58451 253.543243 
L 274.747326 251.662961 
L 274.828733 252.386147 
L 274.910141 253.080405 
L 274.991549 252.877913 
L 275.235773 245.125365 
L 275.317181 244.373252 
L 275.398588 244.402179 
L 275.561404 244.344324 
L 275.642812 245.935332 
L 275.72422 245.84855 
L 275.805628 241.075526 
L 275.887036 242.753316 
L 276.049851 245.154292 
L 276.131259 245.501421 
L 276.212667 243.852558 
L 276.375483 247.092429 
L 276.456891 246.947792 
L 276.538299 246.108897 
L 276.619706 246.918865 
L 276.782522 243.27401 
L 277.026746 246.282461 
L 277.108154 246.484953 
L 277.270969 248.278453 
L 277.352377 247.873469 
L 277.515193 249.580187 
L 277.596601 248.567727 
L 277.759416 251.807598 
L 277.840824 251.662961 
L 278.00364 252.993622 
L 278.492087 243.736848 
L 278.573495 244.026123 
L 278.899126 241.220163 
L 278.980534 241.885494 
L 279.224758 238.645623 
L 279.387574 235.608244 
L 279.468981 235.666099 
L 279.794613 239.397736 
L 279.876021 242.550824 
L 279.957429 242.319405 
L 280.120244 240.69947 
L 280.364468 245.703913 
L 280.445876 246.62959 
L 280.527284 246.456026 
L 280.608692 246.7453 
L 280.690099 247.844542 
L 280.771507 251.026558 
L 280.852915 250.071953 
L 280.934323 249.753752 
L 281.015731 249.927316 
L 281.259954 245.414639 
L 281.42277 246.513881 
L 281.666994 263.696767 
L 281.829809 257.361663 
L 281.992625 255.539235 
L 282.074033 253.456461 
L 282.236849 256.840969 
L 282.399664 254.58463 
L 282.56248 255.857437 
L 282.643888 252.704348 
L 282.725296 253.02255 
L 282.969519 255.7128 
L 283.050927 255.48138 
L 283.295151 249.666969 
L 283.376559 248.683437 
L 283.457967 245.588203 
L 283.539374 246.079969 
L 283.70219 249.522332 
L 283.783598 246.889937 
L 283.865006 247.005647 
L 284.027822 245.414639 
L 284.10923 242.406187 
L 284.272045 244.431107 
L 284.353453 243.216155 
L 284.516269 245.356784 
L 284.597677 244.460034 
L 284.679085 244.865018 
L 284.760492 244.633598 
L 284.8419 246.079969 
L 284.923308 245.588203 
L 285.167532 248.452018 
L 285.24894 247.64205 
L 285.330347 247.034574 
L 285.655979 239.021679 
L 285.818795 236.765341 
L 286.063018 235.608244 
L 286.144426 235.955373 
L 286.307242 234.132946 
L 286.470057 230.777365 
L 286.714281 242.319405 
L 286.795689 240.58376 
L 287.039912 244.286469 
L 287.12132 242.955808 
L 287.202728 242.897953 
L 287.284136 244.315397 
L 287.446952 242.087986 
L 287.52836 241.567292 
L 287.609767 239.282026 
L 287.691175 240.034139 
L 287.853991 239.918429 
L 287.935399 242.811171 
L 288.016807 241.48051 
L 288.098215 241.567292 
L 288.179623 241.278018 
L 288.26103 242.897953 
L 288.342438 242.26155 
L 288.423846 240.58376 
L 289.075109 246.311389 
L 289.156517 245.646058 
L 289.237925 244.865018 
L 289.319333 242.897953 
L 289.40074 237.141397 
L 289.482148 241.3648 
L 289.563556 240.149849 
L 289.644964 239.5713 
L 289.80778 244.17076 
L 289.889188 242.087986 
L 290.052003 243.794703 
L 290.214819 241.885494 
L 290.377635 239.600228 
L 290.459043 240.410195 
L 290.621858 243.765776 
L 290.703266 244.112905 
L 290.866082 245.819623 
L 290.94749 243.707921 
L 291.028898 243.997195 
L 291.68016 234.971841 
L 291.924384 231.876607 
L 292.005792 232.570865 
L 292.250016 230.430236 
L 292.575647 233.930454 
L 292.657055 233.901526 
L 292.982686 224.905099 
L 293.145502 225.512575 
L 293.22691 225.310083 
L 293.308318 226.438252 
L 293.389726 224.789389 
L 293.471133 225.425793 
L 293.552541 225.165446 
L 293.796765 229.996325 
L 293.878173 228.954938 
L 294.122396 230.256672 
L 294.285212 232.310518 
L 294.36662 232.599792 
L 294.448028 229.620268 
L 294.529436 232.368373 
L 294.692251 229.533486 
L 294.773659 233.207268 
L 294.855067 232.74443 
L 295.017883 232.51301 
L 295.099291 232.51301 
L 295.180698 232.339446 
L 295.262106 232.570865 
L 295.343514 229.475631 
L 295.50633 233.033704 
L 295.587738 233.236196 
L 295.669146 233.178341 
L 295.831961 233.207268 
L 295.994777 233.207268 
L 296.157593 232.62872 
L 296.320408 232.657647 
L 296.483224 233.467615 
L 296.564632 233.322978 
L 296.64604 231.008784 
L 296.808856 232.715502 
L 296.890264 229.678123 
L 296.971671 232.975849 
L 297.134487 221.780938 
L 297.541526 221.780938 
L 297.704342 232.715502 
L 297.867158 231.008784 
L 298.029974 230.979857 
L 298.192789 230.632728 
L 298.274197 230.632728 
L 298.518421 231.963389 
L 298.681236 233.670107 
L 298.844052 233.670107 
L 299.006868 234.132946 
L 299.251091 234.132946 
L 299.413907 234.595784 
L 299.495315 234.798276 
L 299.576723 234.451147 
L 299.820946 235.608244 
L 299.902354 235.290042 
L 300.227986 238.819187 
L 300.309394 238.414204 
L 300.553617 238.356349 
L 300.797841 238.356349 
L 300.960657 237.343889 
L 301.449104 237.343889 
L 301.611919 237.864583 
L 301.693327 237.257107 
L 301.856143 237.89351 
L 302.263182 237.922437 
L 302.34459 238.992752 
L 302.507406 238.587768 
L 302.588814 239.368808 
L 302.751629 236.128937 
L 302.914445 236.128937 
L 303.158669 238.529913 
L 303.321484 238.529913 
L 303.4843 237.546381 
L 303.565708 237.546381 
L 303.647116 236.186792 
L 303.809932 238.124929 
L 304.054155 238.124929 
L 304.298379 239.021679 
L 304.461194 239.021679 
L 304.62401 240.091994 
L 304.705418 240.120921 
L 304.868234 236.823196 
L 304.949642 236.765341 
L 305.112457 235.000768 
L 305.926536 234.913986 
L 306.007944 236.331429 
L 306.17076 234.971841 
L 306.577799 234.971841 
L 306.740615 235.723954 
L 306.90343 235.31897 
L 307.229062 235.31897 
L 307.391877 236.331429 
L 307.473285 236.331429 
L 307.636101 235.637171 
L 307.717509 235.637171 
L 307.880325 237.199252 
L 308.04314 237.199252 
L 308.124548 236.967833 
L 308.205956 235.376825 
L 308.287364 235.839663 
L 308.857219 235.839663 
L 309.020035 237.228179 
L 309.18285 236.649631 
L 309.345666 238.443131 
L 309.508482 235.955373 
L 309.58989 238.616695 
L 309.752705 236.678558 
L 310.078337 236.678558 
L 310.241153 239.021679 
L 310.32256 239.021679 
L 310.566784 241.798711 
L 310.648192 241.683002 
L 310.7296 241.278018 
L 310.892415 238.90597 
L 311.055231 238.529913 
L 311.218047 238.529913 
L 311.380863 239.253099 
L 311.543678 239.253099 
L 311.625086 239.513445 
L 311.787902 237.951365 
L 312.032125 236.533921 
L 312.194941 237.054615 
L 312.520573 237.054615 
L 312.683388 235.550389 
L 312.846204 235.550389 
L 312.927612 235.20326 
L 313.00902 235.666099 
L 313.090428 235.463607 
L 313.253243 235.608244 
L 352.247608 235.608244 
L 352.410424 228.000333 
L 352.57324 226.843236 
L 352.654648 227.190365 
L 352.736055 231.934462 
L 352.817463 231.182349 
L 352.898871 231.61626 
L 353.061687 231.384841 
L 353.224503 231.442696 
L 353.30591 229.417776 
L 353.387318 231.674115 
L 353.468726 231.61626 
L 353.550134 231.61626 
L 353.71295 232.889067 
L 354.119989 232.889067 
L 354.201397 233.351905 
L 354.282805 234.682567 
L 354.364213 233.004776 
L 354.527028 234.42222 
L 354.85266 234.42222 
L 355.015476 236.736413 
L 355.259699 235.9843 
L 355.341107 235.9843 
L 355.503923 236.852123 
L 355.666738 234.856131 
L 355.910962 237.401744 
L 355.99237 237.401744 
L 356.155186 234.653639 
L 356.236593 234.653639 
L 356.562225 238.038147 
L 356.725041 238.038147 
L 356.969264 242.753316 
L 357.376303 242.753316 
L 357.539119 240.554832 
L 357.620527 240.554832 
L 357.783343 242.435115 
L 357.946158 243.389719 
L 358.027566 243.418647 
L 358.190382 245.298929 
L 358.353198 243.997195 
L 358.678829 243.997195 
L 358.841645 243.534357 
L 358.923053 243.534357 
L 359.004461 238.79026 
L 359.085869 240.496978 
L 359.981355 240.496978 
L 360.144171 239.68701 
L 360.388394 239.68701 
L 360.469802 239.976284 
L 360.632618 238.79026 
L 360.714026 238.79026 
L 360.876841 237.691018 
L 361.039657 237.11247 
L 361.446696 237.11247 
L 361.609512 235.20326 
L 361.69092 235.20326 
L 361.853736 233.496542 
L 361.935144 233.496542 
L 362.097959 233.120486 
L 362.179367 220.913115 
L 362.423591 151.545166 
L 362.504999 151.574094 
L 362.749222 145.00757 
L 362.912038 137.428586 
L 362.993446 139.655997 
L 363.074854 145.817537 
L 363.237669 138.73032 
L 363.319077 144.081892 
L 363.400485 143.387634 
L 363.481893 144.805078 
L 363.644709 137.775715 
L 363.726117 138.209626 
L 363.888932 141.767699 
L 364.133156 133.610167 
L 364.214564 135.490449 
L 364.295972 133.754804 
L 364.784419 143.763691 
L 364.865827 142.606594 
L 365.11005 134.651554 
L 365.272866 135.779723 
L 365.435682 130.428151 
L 365.517089 129.965312 
L 365.679905 131.411683 
L 365.761313 131.238118 
L 365.842721 131.643102 
L 366.086944 135.664013 
L 366.168352 136.097925 
L 366.331168 135.114392 
L 366.656799 140.032054 
L 366.738207 140.032054 
L 366.819615 140.784166 
L 366.901023 137.283949 
L 366.982431 141.594134 
L 367.063839 140.870949 
L 367.145247 140.784166 
L 367.308062 142.953723 
L 367.552286 134.36228 
L 367.715102 135.316884 
L 367.877917 131.324901 
L 367.959325 131.903449 
L 368.040733 131.209191 
L 368.691996 136.647546 
L 368.773404 138.874957 
L 368.854812 138.759247 
L 368.93622 138.296408 
L 369.017627 141.709844 
L 369.099035 135.664013 
L 369.261851 140.118836 
L 369.587482 137.457513 
L 369.750298 130.457078 
L 369.831706 130.486006 
L 369.913114 131.700957 
L 370.727192 106.418393 
L 370.8086 106.447321 
L 370.890008 106.591958 
L 371.21564 99.157611 
L 371.297048 99.678305 
L 371.378455 99.099757 
L 371.622679 104.277764 
L 371.704087 104.451329 
L 371.785495 105.434861 
L 372.111126 213.79697 
L 372.273942 111.191417 
L 372.436758 108.240821 
L 372.518165 225.743994 
L 372.599573 108.530095 
L 372.680981 111.104635 
L 372.762389 109.889684 
L 372.925205 114.026304 
L 373.08802 114.923054 
L 373.169428 114.923054 
L 373.332244 115.848732 
L 373.413652 114.980909 
L 373.49506 116.109079 
L 373.576468 115.76195 
L 373.657875 114.286651 
L 373.739283 115.038764 
L 373.820691 115.009837 
L 373.902099 115.241256 
L 374.064915 117.237248 
L 374.22773 118.596837 
L 374.309138 123.051659 
L 374.390546 122.473111 
L 374.471954 120.534974 
L 374.553362 121.316014 
L 374.797585 109.426845 
L 374.960401 110.959998 
L 375.041809 110.815361 
L 375.286033 122.270619 
L 375.367441 121.113522 
L 375.530256 125.250143 
L 375.693072 122.183836 
L 375.77448 123.283078 
L 375.937296 128.692506 
L 376.181519 125.626199 
L 376.344335 130.804207 
L 376.507151 128.75036 
L 376.669966 133.46553 
L 376.751374 131.787739 
L 376.91419 120.882103 
L 376.995598 121.287086 
L 377.158413 122.328474 
L 377.321229 116.253716 
L 377.402637 116.080151 
L 377.484045 114.257724 
L 377.565453 114.662708 
L 377.809676 110.670724 
L 377.891084 110.757506 
L 377.972492 110.352522 
L 378.0539 110.497159 
L 378.135308 113.621321 
L 378.298123 110.236813 
L 378.460939 112.753498 
L 378.542347 111.856748 
L 378.623755 111.914603 
L 378.705163 111.364982 
L 378.867978 125.163361 
L 378.949386 127.18828 
L 379.030794 126.609731 
L 379.112202 127.390772 
L 379.19361 131.267046 
L 379.275018 119.088603 
L 379.356426 129.386764 
L 379.600649 104.567039 
L 379.844873 121.142449 
L 379.926281 112.001385 
L 380.007689 113.042772 
L 380.251912 103.438869 
L 380.496136 109.976466 
L 380.577544 111.596401 
L 380.740359 105.290224 
L 380.821767 107.401926 
L 380.903175 106.91016 
L 380.984583 104.972022 
L 381.147399 107.546563 
L 381.228806 106.071264 
L 381.391622 88.685886 
L 381.717254 95.773103 
L 381.880069 110.786434 
L 382.042885 108.992934 
L 382.287109 101.500732 
L 382.368516 103.033885 
L 382.856964 89.553708 
L 382.938371 89.727273 
L 383.019779 90.566168 
L 383.101187 88.367684 
L 383.264003 94.182095 
L 383.426819 89.900837 
L 383.508226 90.826515 
L 383.671042 100.054361 
L 383.833858 93.053926 
L 383.915266 93.429983 
L 384.078082 90.624023 
L 384.159489 90.942225 
L 384.240897 93.545692 
L 384.403713 86.689894 
L 384.485121 84.086426 
L 384.566529 84.60712 
L 384.647937 84.144281 
L 384.729344 81.830088 
L 384.89216 85.764217 
L 384.973568 85.735289 
L 385.136384 90.797587 
L 385.217792 89.119797 
L 385.299199 90.88437 
L 385.380607 89.669418 
L 385.706239 78.387725 
L 385.787647 79.689459 
L 385.869054 76.738862 
L 385.950462 76.883499 
L 386.03187 78.21416 
L 386.113278 75.899967 
L 386.357502 80.00766 
L 386.520317 73.470064 
L 386.601725 78.792709 
L 386.683133 78.21416 
L 386.927357 86.198128 
L 387.17158 76.796717 
L 387.252988 76.044604 
L 387.415804 70.172338 
L 387.497212 71.705491 
L 387.578619 79.081983 
L 387.741435 66.151427 
L 387.822843 64.965403 
L 388.148475 56.25825 
L 388.229882 54.811879 
L 388.392698 60.62629 
L 388.636922 57.675693 
L 388.71833 59.208847 
L 388.881145 53.568 
L 388.962553 54.898661 
L 389.043961 54.291185 
L 389.369592 61.52304 
L 389.451 59.932032 
L 389.532408 62.043734 
L 389.695224 55.795411 
L 389.85804 62.188371 
L 389.939447 61.899096 
L 390.265079 66.382846 
L 390.346487 66.209282 
L 390.427895 66.353919 
L 390.753526 59.642758 
L 390.834934 61.146984 
L 391.079157 57.155 
L 391.160565 61.63875 
L 391.241973 60.944492 
L 391.404789 63.345467 
L 391.649012 72.978298 
L 391.811828 75.466056 
L 391.974644 71.184798 
L 392.13746 73.932903 
L 392.218868 72.139403 
L 392.463091 79.660531 
L 392.544499 77.519902 
L 392.707315 80.094443 
L 392.788723 76.507443 
L 392.951538 81.974725 
L 393.032946 80.00766 
L 393.114354 80.268007 
L 393.195762 78.763781 
L 393.27717 80.615136 
L 393.358578 80.00766 
L 393.602801 77.085991 
L 393.684209 77.201701 
L 393.847025 79.978733 
L 394.254064 88.454467 
L 394.335472 86.082418 
L 394.41688 87.933773 
L 394.579695 85.417088 
L 394.661103 82.321854 
L 394.823919 84.954249 
L 395.312366 80.036588 
L 395.55659 81.222612 
L 395.637998 81.164757 
L 395.800813 82.119362 
L 395.882221 81.164757 
L 396.045037 82.148289 
L 396.126445 79.776241 
L 396.207853 80.296935 
L 396.370668 84.173209 
L 396.452076 82.437564 
L 396.614892 87.586644 
L 396.6963 85.850999 
L 396.859116 88.714813 
L 397.021931 86.169201 
L 397.266155 91.000079 
L 397.428971 88.772668 
L 397.673194 91.925757 
L 398.080233 105.405934 
L 398.161641 105.405934 
L 398.405865 110.873216 
L 398.487273 108.790442 
L 398.487273 108.790442 
" clip-path="url(#pc2d3262810)" style="fill: none; stroke: #64359c; stroke-width: 1.5; stroke-linecap: square"/>
   </g>
   <g id="line2d_15">
    <path d="M 73.832727 213.073785 
L 73.914135 213.073785 
L 74.076951 215.098704 
L 74.158359 215.098704 
L 74.321174 210.614954 
L 74.402582 210.614954 
L 74.48399 214.375519 
L 74.565398 214.317664 
L 74.728214 215.011922 
L 74.809622 215.011922 
L 74.972437 214.317664 
L 75.135253 214.317664 
L 75.298069 213.594479 
L 75.460884 216.429366 
L 75.6237 216.429366 
L 75.705108 214.635866 
L 75.786516 215.243341 
L 75.949332 214.751575 
L 76.437779 214.751575 
L 76.600595 213.276277 
L 76.76341 213.276277 
L 76.844818 214.02839 
L 77.007634 216.429366 
L 77.333265 216.429366 
L 77.496081 218.859269 
L 77.577489 218.859269 
L 77.658897 219.235325 
L 77.821712 219.032833 
L 77.984528 219.032833 
L 78.065936 219.235325 
L 78.228752 218.39643 
L 78.31016 218.801414 
L 78.472975 220.132075 
L 78.635791 218.946051 
L 78.880015 218.888196 
L 117.792972 218.888196 
L 117.955787 250.014098 
L 118.037195 246.542808 
L 118.118603 247.150284 
L 118.525642 260.746171 
L 118.60705 260.717243 
L 118.769866 260.485824 
L 118.932682 263.118219 
L 119.095497 263.118219 
L 119.176905 264.217461 
L 119.421129 260.630461 
L 119.583945 260.254404 
L 119.74676 257.448445 
L 119.909576 257.245953 
L 120.072392 255.654945 
L 120.1538 255.654945 
L 120.316615 253.977155 
L 120.642247 253.977155 
L 120.805062 253.051477 
L 120.88647 253.051477 
L 121.049286 253.225042 
L 121.212102 253.167187 
L 121.374917 253.485388 
L 121.537733 254.729267 
L 122.107588 254.81605 
L 122.270404 252.01009 
L 122.43322 251.662961 
L 122.596035 250.100881 
L 122.677443 250.100881 
L 122.840259 251.055485 
L 123.084483 251.055485 
L 123.410114 252.154727 
L 123.735745 252.154727 
L 123.898561 252.01009 
L 124.061377 251.923308 
L 124.224193 252.328292 
L 124.3056 252.328292 
L 124.387008 253.601098 
L 124.549824 252.444001 
L 124.631232 252.444001 
L 124.794048 253.485388 
L 124.875455 253.485388 
L 125.038271 254.70034 
L 125.282495 254.70034 
L 125.44531 256.49384 
L 126.015165 256.435985 
L 126.177981 257.622009 
L 126.422205 257.622009 
L 126.503613 257.188098 
L 126.585021 257.5063 
L 126.747836 258.663396 
L 127.561915 258.663396 
L 127.724731 257.130243 
L 128.050362 257.130243 
L 128.13177 257.593082 
L 128.294586 255.741727 
L 128.375993 255.741727 
L 128.538809 257.795574 
L 128.864441 257.795574 
L 129.027256 253.398606 
L 129.352888 253.398606 
L 129.515703 252.270437 
L 129.678519 252.270437 
L 129.841335 252.588639 
L 130.166966 252.588639 
L 130.248374 252.386147 
L 130.41119 253.456461 
L 130.736821 249.406623 
L 131.062453 249.406623 
L 131.225269 247.555268 
L 131.388084 247.034574 
L 131.632308 246.976719 
L 131.713716 246.976719 
L 131.876531 244.633598 
L 132.446386 244.633598 
L 132.69061 239.484518 
L 132.772018 241.046599 
L 132.934834 238.819187 
L 133.016241 240.496978 
L 133.097649 239.426663 
L 133.341873 242.608679 
L 133.423281 242.608679 
L 133.504689 242.984736 
L 133.586096 244.517889 
L 133.748912 242.116913 
L 133.83032 242.406187 
L 133.911728 241.567292 
L 133.993136 241.654074 
L 134.074544 242.406187 
L 134.400175 236.852123 
L 134.481583 236.852123 
L 134.562991 235.723954 
L 134.644399 237.083542 
L 134.807214 236.447139 
L 134.97003 238.211712 
L 135.132846 238.472058 
L 135.295662 241.567292 
L 135.458477 241.567292 
L 135.539885 238.67455 
L 135.621293 238.703478 
L 135.702701 239.339881 
L 135.946924 244.83609 
L 136.10974 244.199687 
L 136.191148 244.228615 
L 136.353964 244.807163 
L 136.435372 244.807163 
L 136.516779 245.993187 
L 136.679595 245.212147 
L 136.923819 245.212147 
L 137.086634 246.513881 
L 137.24945 239.976284 
L 137.330858 241.278018 
L 137.412266 208.069342 
L 137.575082 246.108897 
L 137.737897 238.529913 
L 137.900713 243.418647 
L 137.982121 243.216155 
L 138.063529 243.881486 
L 138.144937 243.505429 
L 138.38916 245.588203 
L 138.551976 243.997195 
L 138.714792 206.709753 
L 138.877607 247.960252 
L 139.121831 248.452018 
L 139.203239 248.191671 
L 139.691686 255.741727 
L 139.773094 254.208574 
L 139.93591 259.473364 
L 140.017317 259.733711 
L 140.098725 260.919735 
L 140.424357 256.088856 
L 140.587172 259.96513 
L 140.66858 259.357654 
L 140.831396 260.427969 
L 141.319843 271.536098 
L 141.564067 269.019412 
L 141.645475 270.552565 
L 141.80829 267.949098 
L 141.971106 271.62288 
L 142.052514 271.449315 
L 142.21533 269.540106 
L 142.378145 267.862315 
L 142.459553 267.630896 
L 142.540961 268.787993 
L 142.622369 267.949098 
L 142.703777 268.209444 
L 142.866593 267.601969 
L 143.273632 263.291783 
L 143.35504 263.696767 
L 143.436448 263.002509 
L 143.517855 252.183655 
L 143.680671 260.919735 
L 143.843487 262.221469 
L 143.924895 261.556138 
L 144.006303 261.87434 
L 144.250526 266.849856 
L 144.331934 270.523638 
L 144.413342 267.775533 
L 144.49475 269.135122 
L 144.576158 273.156033 
L 144.738973 271.565025 
L 144.820381 275.296662 
L 145.064605 290.801758 
L 145.308828 282.094605 
L 145.471644 289.008258 
L 145.63446 285.508041 
L 145.715868 285.62375 
L 145.797275 288.458637 
L 145.878683 295.488 
L 146.122907 289.123968 
L 146.204315 292.277057 
L 146.611354 266.849856 
L 146.77417 276.569468 
L 146.936986 278.883662 
L 147.099801 271.449315 
L 147.262617 268.006953 
L 147.344025 270.639348 
L 147.506841 261.237937 
L 147.588248 263.986041 
L 147.751064 260.341187 
L 147.832472 264.622445 
L 147.91388 262.713235 
L 147.995288 266.35809 
L 148.076696 263.089291 
L 148.158103 264.072824 
L 148.239511 262.77109 
L 148.402327 255.510308 
L 148.565143 258.894816 
L 148.646551 254.989614 
L 148.727958 255.105324 
L 148.972182 264.622445 
L 149.05359 263.581058 
L 149.134998 265.027428 
L 149.216406 261.324719 
L 149.297813 263.465348 
L 149.460629 255.48138 
L 149.542037 256.60955 
L 149.623445 260.19655 
L 149.704853 258.721251 
L 149.786261 260.456896 
L 149.867668 260.051912 
L 149.949076 260.051912 
L 150.111892 266.705219 
L 150.437523 255.134251 
L 150.518931 255.423526 
L 150.681747 256.464913 
L 150.844563 261.151154 
L 151.007378 256.031001 
L 151.170194 259.907275 
L 151.251602 257.766646 
L 151.577234 262.857872 
L 151.658641 265.519195 
L 151.740049 265.432412 
L 151.821457 265.866324 
L 151.984273 264.362098 
L 152.228496 258.229485 
L 152.309904 257.245953 
L 152.47272 252.762203 
L 152.635536 252.877913 
L 152.716944 253.68788 
L 152.798351 252.328292 
L 152.879759 253.601098 
L 153.042575 249.175203 
L 153.123983 250.3323 
L 153.449614 258.952671 
L 153.531022 257.101316 
L 153.61243 258.142703 
L 153.938061 251.402614 
L 154.019469 251.952235 
L 154.100877 252.444001 
L 154.182285 254.70034 
L 154.263693 253.9193 
L 154.345101 254.989614 
L 154.507916 253.745735 
L 154.589324 255.683872 
L 154.670732 254.960687 
L 154.75214 252.935768 
L 154.833548 254.063937 
L 154.914956 252.530784 
L 155.077771 256.464913 
L 155.159179 256.117784 
L 155.240587 256.291348 
L 155.321995 255.192106 
L 155.566219 258.808033 
L 155.647627 258.923743 
L 155.729034 257.361663 
L 155.973258 259.18409 
L 156.136074 256.638477 
L 156.298889 262.134687 
L 156.461705 262.973582 
L 156.705929 260.832953 
L 156.868744 257.622009 
L 157.03156 252.820058 
L 157.194376 255.48138 
L 157.357192 253.543243 
L 157.520007 251.662961 
L 157.601415 252.386147 
L 157.682823 253.080405 
L 157.764231 252.877913 
L 158.008454 245.125365 
L 158.089862 244.373252 
L 158.17127 244.402179 
L 158.334086 244.344324 
L 158.415494 245.935332 
L 158.496902 245.84855 
L 158.578309 241.075526 
L 158.659717 242.753316 
L 158.822533 245.154292 
L 158.903941 245.501421 
L 158.985349 243.852558 
L 159.148164 247.092429 
L 159.229572 246.947792 
L 159.31098 246.108897 
L 159.392388 246.918865 
L 159.555204 243.27401 
L 159.799427 246.282461 
L 159.880835 246.484953 
L 160.043651 248.278453 
L 160.125059 247.873469 
L 160.287875 249.580187 
L 160.369282 248.567727 
L 160.532098 251.807598 
L 160.613506 251.662961 
L 160.776322 252.993622 
L 161.264769 243.736848 
L 161.346177 244.026123 
L 161.671808 241.220163 
L 161.753216 241.885494 
L 161.99744 238.645623 
L 162.160255 235.608244 
L 162.241663 235.666099 
L 162.567295 239.397736 
L 162.648702 242.550824 
L 162.73011 242.319405 
L 162.892926 240.69947 
L 163.13715 245.703913 
L 163.218557 246.62959 
L 163.299965 246.456026 
L 163.381373 246.7453 
L 163.462781 247.844542 
L 163.544189 251.026558 
L 163.625597 250.071953 
L 163.707005 249.753752 
L 163.788413 249.927316 
L 164.032636 245.414639 
L 164.195452 246.513881 
L 164.439675 263.696767 
L 164.602491 257.361663 
L 164.765307 255.539235 
L 164.846715 253.456461 
L 165.00953 256.840969 
L 165.172346 254.58463 
L 165.335162 255.857437 
L 165.41657 252.704348 
L 165.497978 253.02255 
L 165.742201 255.7128 
L 165.823609 255.48138 
L 166.067833 249.666969 
L 166.14924 248.683437 
L 166.230648 245.588203 
L 166.312056 246.079969 
L 166.474872 249.522332 
L 166.55628 246.889937 
L 166.637688 247.005647 
L 166.800503 245.414639 
L 166.881911 242.406187 
L 167.044727 244.431107 
L 167.126135 243.216155 
L 167.28895 245.356784 
L 167.370358 244.460034 
L 167.451766 244.865018 
L 167.533174 244.633598 
L 167.614582 246.079969 
L 167.69599 245.588203 
L 167.940213 248.452018 
L 168.021621 247.64205 
L 168.103029 247.034574 
L 168.428661 239.021679 
L 168.591476 236.765341 
L 168.8357 235.608244 
L 168.917108 235.955373 
L 169.079923 234.132946 
L 169.242739 230.777365 
L 169.486963 242.319405 
L 169.568371 240.58376 
L 169.812594 244.286469 
L 169.894002 242.955808 
L 169.97541 242.897953 
L 170.056818 244.315397 
L 170.219633 242.087986 
L 170.301041 241.567292 
L 170.382449 239.282026 
L 170.463857 240.034139 
L 170.626673 239.918429 
L 170.708081 242.811171 
L 170.789488 241.48051 
L 170.870896 241.567292 
L 170.952304 241.278018 
L 171.033712 242.897953 
L 171.11512 242.26155 
L 171.196528 240.58376 
L 171.847791 246.311389 
L 171.929199 245.646058 
L 172.010606 244.865018 
L 172.092014 242.897953 
L 172.173422 237.141397 
L 172.25483 241.3648 
L 172.336238 240.149849 
L 172.417646 239.5713 
L 172.580461 244.17076 
L 172.661869 242.087986 
L 172.824685 243.794703 
L 172.987501 241.885494 
L 173.150316 239.600228 
L 173.231724 240.410195 
L 173.39454 243.765776 
L 173.475948 244.112905 
L 173.638764 245.819623 
L 173.720171 243.707921 
L 173.801579 243.997195 
L 174.452842 234.971841 
L 174.697066 231.876607 
L 174.778474 232.570865 
L 175.022697 230.430236 
L 175.348329 233.930454 
L 175.429736 233.901526 
L 175.755368 224.905099 
L 175.918184 225.512575 
L 175.999592 225.310083 
L 176.080999 226.438252 
L 176.162407 224.789389 
L 176.243815 225.425793 
L 176.325223 225.165446 
L 176.569447 229.996325 
L 176.650854 228.954938 
L 176.895078 230.256672 
L 177.057894 232.310518 
L 177.139302 232.599792 
L 177.220709 229.620268 
L 177.302117 232.368373 
L 177.464933 229.533486 
L 177.546341 233.207268 
L 177.627749 232.74443 
L 177.790564 232.51301 
L 177.871972 232.51301 
L 177.95338 232.339446 
L 178.034788 232.570865 
L 178.116196 229.475631 
L 178.279012 233.033704 
L 178.360419 233.236196 
L 178.441827 233.178341 
L 178.604643 233.207268 
L 178.767459 233.207268 
L 178.930274 232.62872 
L 179.09309 232.657647 
L 179.255906 233.467615 
L 179.337314 233.322978 
L 179.418722 231.008784 
L 179.581537 232.715502 
L 179.662945 229.678123 
L 179.744353 232.975849 
L 179.907169 221.780938 
L 180.314208 221.780938 
L 180.477024 232.715502 
L 180.63984 231.008784 
L 180.802655 230.979857 
L 180.965471 230.632728 
L 181.046879 230.632728 
L 181.291102 231.963389 
L 181.453918 233.670107 
L 181.616734 233.670107 
L 181.77955 234.132946 
L 182.023773 234.132946 
L 182.186589 234.595784 
L 182.267997 234.798276 
L 182.349405 234.451147 
L 182.593628 235.608244 
L 182.675036 235.290042 
L 183.000667 238.819187 
L 183.082075 238.414204 
L 183.326299 238.356349 
L 183.570522 238.356349 
L 183.733338 237.343889 
L 184.221785 237.343889 
L 184.384601 237.864583 
L 184.466009 237.257107 
L 184.628825 237.89351 
L 185.035864 237.922437 
L 185.117272 238.992752 
L 185.280088 238.587768 
L 185.361495 239.368808 
L 185.524311 236.128937 
L 185.687127 236.128937 
L 185.93135 238.529913 
L 186.094166 238.529913 
L 186.256982 237.546381 
L 186.33839 237.546381 
L 186.419798 236.186792 
L 186.582613 238.124929 
L 186.826837 238.124929 
L 187.07106 239.021679 
L 187.233876 239.021679 
L 187.396692 240.091994 
L 187.4781 240.120921 
L 187.640915 236.823196 
L 187.722323 236.765341 
L 187.885139 235.000768 
L 188.699218 234.913986 
L 188.780626 236.331429 
L 188.943441 234.971841 
L 189.350481 234.971841 
L 189.513296 235.723954 
L 189.676112 235.31897 
L 190.001743 235.31897 
L 190.164559 236.331429 
L 190.245967 236.331429 
L 190.408783 235.637171 
L 190.490191 235.637171 
L 190.653006 237.199252 
L 190.815822 237.199252 
L 190.89723 236.967833 
L 190.978638 235.376825 
L 191.060046 235.839663 
L 191.629901 235.839663 
L 191.792716 237.228179 
L 191.955532 236.649631 
L 192.118348 238.443131 
L 192.281163 235.955373 
L 192.362571 238.616695 
L 192.525387 236.678558 
L 192.851019 236.678558 
L 193.013834 239.021679 
L 193.095242 239.021679 
L 193.339466 241.798711 
L 193.420874 241.683002 
L 193.502281 241.278018 
L 193.665097 238.90597 
L 193.827913 238.529913 
L 193.990729 238.529913 
L 194.153544 239.253099 
L 194.31636 239.253099 
L 194.397768 239.513445 
L 194.560584 237.951365 
L 194.804807 236.533921 
L 194.967623 237.054615 
L 195.293254 237.054615 
L 195.45607 235.550389 
L 195.618886 235.550389 
L 195.700294 235.20326 
L 195.781701 235.666099 
L 195.863109 235.463607 
L 196.025925 235.608244 
L 235.02029 235.608244 
L 235.183106 228.000333 
L 235.345921 226.843236 
L 235.427329 227.190365 
L 235.508737 231.934462 
L 235.590145 231.182349 
L 235.671553 231.61626 
L 235.834369 231.384841 
L 235.997184 231.442696 
L 236.078592 229.417776 
L 236.16 231.674115 
L 236.241408 231.61626 
L 236.322816 231.61626 
L 236.485631 232.889067 
L 236.892671 232.889067 
L 236.974079 233.351905 
L 237.055486 234.682567 
L 237.136894 233.004776 
L 237.29971 234.42222 
L 237.625341 234.42222 
L 237.788157 236.736413 
L 238.032381 235.9843 
L 238.113789 235.9843 
L 238.276604 236.852123 
L 238.43942 234.856131 
L 238.683644 237.401744 
L 238.765052 237.401744 
L 238.927867 234.653639 
L 239.009275 234.653639 
L 239.334907 238.038147 
L 239.497722 238.038147 
L 239.741946 242.753316 
L 240.148985 242.753316 
L 240.311801 240.554832 
L 240.393209 240.554832 
L 240.556024 242.435115 
L 240.71884 243.389719 
L 240.800248 243.418647 
L 240.963064 245.298929 
L 241.125879 243.997195 
L 241.451511 243.997195 
L 241.614327 243.534357 
L 241.695734 243.534357 
L 241.777142 238.79026 
L 241.85855 240.496978 
L 242.754037 240.496978 
L 242.916852 239.68701 
L 243.161076 239.68701 
L 243.242484 239.976284 
L 243.4053 238.79026 
L 243.486707 238.79026 
L 243.649523 237.691018 
L 243.812339 237.11247 
L 244.219378 237.11247 
L 244.382194 235.20326 
L 244.463602 235.20326 
L 244.626417 233.496542 
L 244.707825 233.496542 
L 244.870641 233.120486 
L 244.952049 220.913115 
L 245.196272 151.545166 
L 245.27768 151.574094 
L 245.521904 145.00757 
L 245.68472 137.428586 
L 245.766127 139.655997 
L 245.847535 145.817537 
L 246.010351 138.73032 
L 246.091759 144.081892 
L 246.173167 143.387634 
L 246.254575 144.805078 
L 246.41739 137.775715 
L 246.498798 138.209626 
L 246.661614 141.767699 
L 246.905838 133.610167 
L 246.987245 135.490449 
L 247.068653 133.754804 
L 247.5571 143.763691 
L 247.638508 142.606594 
L 247.882732 134.651554 
L 248.045548 135.779723 
L 248.208363 130.428151 
L 248.289771 129.965312 
L 248.452587 131.411683 
L 248.533995 131.238118 
L 248.615403 131.643102 
L 248.859626 135.664013 
L 248.941034 136.097925 
L 249.10385 135.114392 
L 249.429481 140.032054 
L 249.510889 140.032054 
L 249.592297 140.784166 
L 249.673705 137.283949 
L 249.755113 141.594134 
L 249.755113 141.594134 
" clip-path="url(#pc2d3262810)" style="fill: none; stroke: #85c1ff; stroke-width: 1.5; stroke-linecap: square"/>
   </g>
   <g id="patch_19">
    <path d="M 57.6 307.584 
L 57.6 41.472 
" style="fill: none; stroke: #000000; stroke-width: 0.8; stroke-linejoin: miter; stroke-linecap: square"/>
   </g>
   <g id="patch_20">
    <path d="M 414.72 307.584 
L 414.72 41.472 
" style="fill: none; stroke: #000000; stroke-width: 0.8; stroke-linejoin: miter; stroke-linecap: square"/>
   </g>
   <g id="patch_21">
    <path d="M 57.6 307.584 
L 414.72 307.584 
" style="fill: none; stroke: #000000; stroke-width: 0.8; stroke-linejoin: miter; stroke-linecap: square"/>
   </g>
   <g id="patch_22">
    <path d="M 57.6 41.472 
L 414.72 41.472 
" style="fill: none; stroke: #000000; stroke-width: 0.8; stroke-linejoin: miter; stroke-linecap: square"/>
   </g>
  </g>
 </g>
 <defs>
  <clipPath id="pc2d3262810">
   <rect x="57.6" y="41.472" width="357.12" height="266.112"/>
  </clipPath>
 </defs>
</svg>
